v 1.000000 1.125000 2.750000
v 1.000000 1.125000 3.000000
v 1.000000 5.625000 3.000000
v 1.000000 5.625000 2.750000
v 1.000000 5.375000 2.750000
v 6.750000 1.125000 2.750000
v 6.750000 1.125000 3.000000
v 6.500000 1.125000 3.000000
v -4.000000 -2.875000 4.750000
v -4.000000 -2.875000 4.500000
v -4.000000 5.625000 4.500000
v -4.000000 5.625000 4.750000
v -4.000000 5.375000 4.750000
v 6.500000 -2.875000 4.750000
v 6.750000 -2.875000 4.750000
v 6.750000 -2.875000 4.500000
v 6.500000 -2.875000 4.500000
v -4.500000 -3.375000 4.500000
v -4.500000 -3.375000 4.250000
v -4.500000 5.625000 4.250000
v -4.500000 5.625000 4.500000
v -4.500000 5.375000 4.500000
v 6.500000 -3.375000 4.500000
v 6.750000 -3.375000 4.500000
v 6.750000 -3.375000 4.250000
v 6.500000 -3.375000 4.250000
v -4.750000 -3.625000 4.250000
v -4.750000 -3.625000 4.000000
v -4.750000 5.625000 4.000000
v -4.750000 5.625000 4.250000
v -4.750000 5.375000 4.250000
v 6.500000 -3.625000 4.250000
v 6.750000 -3.625000 4.250000
v 6.750000 -3.625000 4.000000
v 6.500000 -3.625000 4.000000
v -5.250000 -4.125000 4.000000
v -5.250000 -4.125000 3.750000
v -5.250000 5.625000 3.750000
v -5.250000 5.625000 4.000000
v -5.250000 5.375000 4.000000
v 6.500000 -4.125000 4.000000
v 6.750000 -4.125000 4.000000
v 6.750000 -4.125000 3.750000
v 6.500000 -4.125000 3.750000
v -5.750000 -4.625000 3.750000
v -5.750000 -4.625000 3.500000
v -5.750000 5.625000 3.500000
v -5.750000 5.625000 3.750000
v -5.750000 5.375000 3.750000
v 6.500000 -4.625000 3.750000
v 6.750000 -4.625000 3.750000
v 6.750000 -4.625000 3.500000
v 6.500000 -4.625000 3.500000
v -6.250000 -5.125000 3.500000
v -6.250000 -5.125000 3.250000
v -6.250000 5.625000 3.250000
v -6.250000 5.625000 3.500000
v -6.250000 5.375000 3.500000
v 6.500000 -5.125000 3.500000
v 6.750000 -5.125000 3.500000
v 6.750000 -5.125000 3.250000
v 6.500000 -5.125000 3.250000
v -6.500000 -5.375000 3.250000
v -6.500000 -5.375000 3.000000
v -6.500000 5.625000 3.000000
v -6.500000 5.625000 3.250000
v -6.500000 5.375000 3.250000
v 6.500000 -5.375000 3.250000
v 6.750000 -5.375000 3.250000
v 6.750000 -5.375000 3.000000
v 6.500000 -5.375000 3.000000
v -6.500000 -5.375000 0.000000
v -6.500000 5.125000 0.000000
v -6.500000 5.375000 0.000000
v -6.500000 5.375000 2.750000
v -6.500000 -5.375000 2.750000
v -6.500000 -5.375000 2.500000
v 6.500000 -5.375000 2.750000
v 6.500000 -5.375000 0.000000
v 6.250000 -5.375000 0.000000
v -6.250000 -5.125000 0.000000
v -6.250000 -5.125000 -0.250000
v -6.250000 5.125000 -0.250000
v -6.250000 5.375000 -0.250000
v -6.250000 5.375000 0.000000
v -6.250000 5.125000 0.000000
v 6.500000 -5.125000 0.000000
v 6.500000 -5.125000 -0.250000
v 6.250000 -5.125000 -0.250000
v 6.500000 -5.125000 2.750000
v 6.500000 -5.125000 3.000000
v 6.500000 -4.875000 3.000000
v 6.500000 -4.625000 3.000000
v 6.500000 -4.625000 3.250000
v 6.500000 -4.375000 3.250000
v 6.500000 -4.125000 3.250000
v 6.500000 -4.125000 3.500000
v 6.500000 -3.875000 3.500000
v 6.500000 -3.875000 3.750000
v 6.500000 -3.625000 3.750000
v 6.500000 -3.375000 3.750000
v 6.500000 -3.375000 4.000000
v 6.500000 -3.125000 4.000000
v 6.500000 -2.875000 4.000000
v 6.500000 -2.875000 4.250000
v 6.500000 -2.625000 4.250000
v 6.500000 -2.625000 4.500000
v 6.500000 -2.375000 4.500000
v 6.500000 -2.125000 4.500000
v 6.500000 -2.125000 4.250000
v 6.500000 -1.875000 4.250000
v 6.500000 -1.625000 4.250000
v 6.500000 -1.625000 4.000000
v 6.500000 -1.375000 4.000000
v 6.500000 -1.375000 3.750000
v 6.500000 -1.125000 3.750000
v 6.500000 -0.875000 3.750000
v 6.500000 -0.875000 3.500000
v 6.500000 -0.625000 3.500000
v 6.500000 -0.375000 3.500000
v 6.500000 -0.375000 3.250000
v 6.500000 -0.125000 3.250000
v 6.500000 -0.125000 3.000000
v 6.500000 0.125000 3.000000
v 6.500000 0.375000 3.000000
v 6.500000 0.375000 2.750000
v 6.500000 0.625000 2.750000
v 6.500000 0.625000 -0.250000
v 6.500000 0.375000 -0.250000
v 6.750000 0.375000 3.000000
v 6.750000 0.375000 2.750000
v -6.750000 -5.625000 3.000000
v -6.750000 -5.625000 2.750000
v -6.750000 5.375000 2.750000
v -6.750000 5.625000 2.750000
v -6.750000 5.625000 3.000000
v -6.750000 5.375000 3.000000
v 6.500000 -5.625000 3.000000
v 6.750000 -5.625000 3.000000
v 6.750000 -5.625000 2.750000
v 6.500000 -5.625000 2.750000
v 6.750000 -1.875000 4.750000
v 6.750000 -1.875000 4.500000
v 6.750000 -1.375000 4.500000
v 6.750000 -1.375000 4.250000
v 6.750000 -0.875000 4.250000
v 6.750000 -0.875000 4.000000
v 6.750000 -0.625000 4.000000
v 6.750000 -0.625000 3.750000
v 6.750000 -0.125000 3.750000
v 6.750000 -0.125000 3.500000
v 6.750000 0.375000 3.500000
v 6.750000 0.375000 3.250000
v 6.750000 0.875000 3.250000
v 6.750000 0.875000 3.000000
v 6.750000 -0.125000 3.000000
v 6.750000 -0.125000 3.250000
v 6.750000 -0.375000 3.250000
v 6.750000 -0.375000 3.500000
v 6.750000 -0.875000 3.500000
v 6.750000 -0.875000 3.750000
v 6.750000 -1.375000 3.750000
v 6.750000 -1.375000 4.000000
v 6.750000 -1.625000 4.000000
v 6.750000 -1.625000 4.250000
v 6.750000 -2.125000 4.250000
v 6.750000 -2.125000 4.500000
v 6.750000 -2.625000 4.500000
v 6.750000 -2.625000 4.250000
v 6.750000 -2.875000 4.250000
v 6.750000 -2.875000 4.000000
v 6.750000 -3.375000 4.000000
v 6.750000 -3.375000 3.750000
v 6.750000 -3.875000 3.750000
v 6.750000 -3.875000 3.500000
v 6.750000 -4.125000 3.500000
v 6.750000 -4.125000 3.250000
v 6.750000 -4.625000 3.250000
v 6.750000 -4.625000 3.000000
v 6.750000 -5.125000 3.000000
v 6.750000 -5.125000 2.750000
v 6.750000 -5.375000 2.750000
v 0.500000 0.625000 -0.250000
v 0.750000 0.625000 2.750000
v 0.500000 0.625000 2.750000
v 0.500000 0.625000 2.500000
v 4.250000 0.625000 2.000000
v 4.250000 0.625000 0.000000
v 4.250000 0.625000 2.250000
v 5.250000 0.625000 2.250000
v 5.500000 0.625000 2.250000
v 5.500000 0.625000 0.000000
v 5.250000 0.625000 0.000000
v 0.500000 5.375000 2.750000
v 0.500000 5.375000 -0.250000
v 0.500000 5.125000 -0.250000
v 4.250000 0.875000 0.000000
v 4.250000 0.875000 2.000000
v 4.250000 0.875000 2.250000
v 5.500000 0.875000 2.250000
v 5.500000 0.875000 0.000000
v 0.250000 5.375000 2.750000
v 0.250000 5.375000 3.000000
v -0.000000 5.375000 3.000000
v -0.000000 5.375000 3.250000
v -0.500000 5.375000 3.250000
v -0.500000 5.375000 3.500000
v -1.000000 5.375000 3.500000
v -1.000000 5.375000 3.750000
v -1.500000 5.375000 3.750000
v -1.500000 5.375000 4.000000
v -1.750000 5.375000 4.000000
v -1.750000 5.375000 4.250000
v -2.250000 5.375000 4.250000
v -2.250000 5.375000 4.500000
v -2.750000 5.375000 4.500000
v -2.750000 5.375000 4.750000
v -3.250000 5.375000 4.750000
v -3.250000 5.375000 4.500000
v -3.750000 5.375000 4.500000
v -3.750000 5.375000 4.250000
v -4.000000 5.375000 4.250000
v -4.000000 5.375000 4.000000
v -4.500000 5.375000 4.000000
v -4.500000 5.375000 3.750000
v -5.000000 5.375000 3.750000
v -5.000000 5.375000 3.500000
v -5.250000 5.375000 3.500000
v -5.250000 5.375000 3.250000
v -5.750000 5.375000 3.250000
v -5.750000 5.375000 3.000000
v -6.250000 5.375000 3.000000
v -6.250000 5.375000 2.750000
v 0.250000 5.625000 2.750000
v 0.250000 5.625000 3.000000
v -0.000000 5.625000 3.000000
v -0.000000 5.625000 3.250000
v -0.500000 5.625000 3.250000
v -0.500000 5.625000 3.500000
v -1.000000 5.625000 3.500000
v -1.000000 5.625000 3.750000
v -1.500000 5.625000 3.750000
v -1.500000 5.625000 4.000000
v -1.750000 5.625000 4.000000
v -1.750000 5.625000 4.250000
v -2.250000 5.625000 4.250000
v -2.250000 5.625000 4.500000
v -2.750000 5.625000 4.500000
v -2.750000 5.625000 4.750000
v -3.250000 5.625000 4.750000
v -3.250000 5.625000 4.500000
v -3.750000 5.625000 4.500000
v -3.750000 5.625000 4.250000
v -4.000000 5.625000 4.250000
v -4.000000 5.625000 4.000000
v -4.500000 5.625000 4.000000
v -4.500000 5.625000 3.750000
v -5.000000 5.625000 3.750000
v -5.000000 5.625000 3.500000
v -5.250000 5.625000 3.500000
v -5.250000 5.625000 3.250000
v -5.750000 5.625000 3.250000
v -5.750000 5.625000 3.000000
v -6.250000 5.625000 3.000000
v -6.250000 5.625000 2.750000
v 5.250000 0.875000 0.000000
v -6.000000 5.625000 3.000000
v -5.500000 5.625000 3.250000
v -4.750000 5.625000 3.750000
v -4.250000 5.625000 4.000000
v -3.500000 5.625000 4.500000
v -3.000000 5.625000 4.750000
v -2.500000 5.625000 4.500000
v -2.000000 5.625000 4.250000
v -1.250000 5.625000 3.750000
v -0.750000 5.625000 3.500000
v -0.250000 5.625000 3.250000
v 0.750000 5.625000 3.000000
v 0.750000 5.625000 3.250000
v 0.250000 5.625000 3.250000
v 0.250000 5.625000 3.500000
v -0.250000 5.625000 3.500000
v -0.250000 5.625000 3.750000
v -0.500000 5.625000 3.750000
v -0.500000 5.625000 4.000000
v -1.000000 5.625000 4.000000
v -1.000000 5.625000 4.250000
v -1.500000 5.625000 4.250000
v -1.500000 5.625000 4.500000
v -2.000000 5.625000 4.500000
v -2.000000 5.625000 4.750000
v -2.250000 5.625000 4.750000
v -2.250000 5.625000 5.000000
v -2.750000 5.625000 5.000000
v -2.750000 5.625000 5.250000
v -3.000000 5.625000 5.250000
v -3.000000 5.625000 5.000000
v -3.500000 5.625000 5.000000
v -3.500000 5.625000 4.750000
v 0.750000 0.875000 3.000000
v 0.750000 0.875000 3.250000
v 0.750000 5.375000 3.000000
v 0.250000 0.375000 3.250000
v 0.250000 0.375000 3.500000
v 0.250000 5.375000 3.250000
v -0.250000 -0.125000 3.500000
v -0.250000 -0.125000 3.750000
v -0.250000 5.375000 3.500000
v -0.500000 -0.625000 3.750000
v -0.500000 -0.625000 4.000000
v -0.500000 5.375000 3.750000
v -1.000000 -0.875000 4.000000
v -1.000000 -0.875000 4.250000
v -1.000000 5.375000 4.000000
v -1.500000 -1.375000 4.250000
v -1.500000 -1.375000 4.500000
v -1.500000 5.375000 4.250000
v -2.000000 -1.875000 4.500000
v -2.000000 -1.875000 4.750000
v -2.000000 5.375000 4.500000
v -3.500000 -2.375000 5.000000
v -3.500000 -2.375000 4.750000
v -3.500000 5.375000 5.000000
v -2.500000 -2.375000 5.000000
v -2.250000 -2.375000 5.000000
v -2.250000 -2.375000 4.750000
v -2.500000 -2.375000 4.750000
v -2.250000 5.375000 4.750000
v -3.000000 -1.875000 5.250000
v -3.000000 -1.875000 5.000000
v -3.000000 5.375000 5.250000
v -2.750000 -1.875000 5.250000
v -2.750000 -1.875000 5.000000
v -2.750000 5.375000 5.000000
v 6.500000 0.875000 3.000000
v 6.500000 0.875000 3.250000
v 6.500000 0.375000 3.250000
v 6.500000 0.375000 3.500000
v 6.500000 -0.125000 3.500000
v 6.500000 -0.125000 3.750000
v 6.500000 -0.625000 3.750000
v 6.500000 -0.625000 4.000000
v 6.500000 -0.875000 4.000000
v 6.500000 -0.875000 4.250000
v 6.500000 -1.375000 4.250000
v 6.500000 -1.375000 4.500000
v 6.500000 -1.875000 4.500000
v 6.500000 -1.875000 4.750000
o Outer Shell
f 2 1 5
f 5 4 3
f 5 3 2
f 1 2 8
f 8 7 6
f 8 6 1
f 10 9 13
f 13 12 11
f 13 11 10
f 9 10 14
f 14 10 17
f 16 15 14
f 16 14 17
f 19 18 22
f 20 22 21
f 22 20 19
f 19 26 18
f 18 26 23
f 25 24 23
f 25 23 26
f 28 27 31
f 31 30 29
f 31 29 28
f 27 28 32
f 32 28 35
f 33 32 35
f 33 35 34
f 37 36 40
f 40 39 38
f 40 38 37
f 37 44 36
f 36 44 41
f 42 41 44
f 42 44 43
f 46 45 49
f 49 48 47
f 49 47 46
f 45 46 50
f 50 46 53
f 52 51 50
f 52 50 53
f 55 54 58
f 58 57 56
f 58 56 55
f 55 62 54
f 54 62 59
f 61 60 59
f 61 59 62
f 64 63 67
f 65 67 66
f 67 65 64
f 64 71 63
f 63 71 68
f 70 69 68
f 70 68 71
f 77 76 75
f 72 77 73
f 73 75 74
f 75 73 77
f 77 72 80
f 76 77 78
f 80 79 78
f 80 78 77
f 82 81 83
f 83 81 86
f 86 85 84
f 86 84 83
f 81 82 89
f 89 88 87
f 89 87 81
f 129 96 87
f 79 87 78
f 98 96 101
f 96 98 97
f 93 87 96
f 87 88 129
f 129 118 96
f 105 104 106
f 101 115 104
f 104 103 101
f 102 101 103
f 98 101 100
f 127 129 128
f 96 115 101
f 93 92 90
f 90 78 87
f 91 90 92
f 93 90 87
f 95 93 96
f 95 94 93
f 99 98 100
f 123 121 118
f 121 123 122
f 119 118 121
f 118 117 116
f 121 120 119
f 118 115 96
f 127 126 129
f 126 125 124
f 126 124 123
f 123 129 126
f 108 110 109
f 111 110 113
f 106 108 107
f 108 106 110
f 106 104 110
f 116 115 118
f 115 114 113
f 111 113 112
f 104 113 110
f 115 113 104
f 129 123 118
f 126 131 125
f 130 125 131
f 133 132 134
f 134 132 137
f 134 136 135
f 136 134 137
f 132 133 138
f 138 133 141
f 140 139 138
f 140 138 141
f 177 176 52
f 42 174 34
f 174 176 175
f 173 34 174
f 174 43 176
f 173 172 34
f 171 170 25
f 169 168 170
f 170 168 16
f 33 172 25
f 172 33 34
f 25 172 171
f 170 16 25
f 24 25 16
f 168 15 16
f 70 182 181
f 70 181 180
f 139 140 70
f 69 70 180
f 140 182 70
f 180 61 69
f 178 52 60
f 178 177 52
f 52 43 51
f 52 176 43
f 179 178 180
f 43 174 42
f 61 178 60
f 178 61 180
f 130 131 155
f 156 130 157
f 158 151 159
f 157 151 158
f 149 160 159
f 157 130 153
f 154 130 155
f 155 6 7
f 154 153 130
f 151 153 152
f 151 157 153
f 151 150 159
f 131 6 155
f 149 159 150
f 164 145 165
f 145 164 163
f 162 147 163
f 168 167 15
f 15 167 142
f 143 167 166
f 166 165 143
f 142 167 143
f 165 144 143
f 161 149 148
f 148 147 161
f 146 163 147
f 144 165 145
f 163 146 145
f 147 162 161
f 160 149 161
f 123 156 122
f 157 122 156
f 121 158 159
f 159 120 121
f 118 160 161
f 161 117 118
f 115 162 163
f 163 114 115
f 113 164 165
f 165 112 113
f 110 166 109
f 167 109 166
f 186 185 184
f 186 184 183
f 128 183 188
f 187 188 183
f 128 188 193
f 187 183 184
f 189 187 184
f 190 189 127
f 192 128 193
f 128 192 191
f 191 127 128
f 127 191 190
f 189 184 127
f 186 183 196
f 185 186 194
f 196 195 194
f 196 194 186
f 197 188 198
f 198 188 187
f 199 198 187
f 199 187 189
f 192 201 200
f 200 191 192
f 233 231 85
f 231 233 232
f 75 233 85
f 225 227 226
f 230 229 231
f 229 228 227
f 229 225 85
f 229 227 225
f 74 75 85
f 195 84 85
f 195 85 210
f 85 231 229
f 210 225 223
f 221 223 222
f 221 214 223
f 85 225 210
f 221 220 219
f 223 225 224
f 219 218 217
f 217 216 219
f 219 216 214
f 215 214 216
f 213 212 214
f 212 211 210
f 214 210 223
f 210 214 212
f 210 209 208
f 208 207 206
f 206 202 195
f 206 195 208
f 205 204 206
f 203 202 204
f 202 194 195
f 204 202 206
f 195 210 208
f 221 219 214
f 234 202 235
f 203 235 202
f 236 204 237
f 205 237 204
f 206 207 239
f 239 238 206
f 208 209 241
f 241 240 208
f 210 211 242
f 243 242 211
f 212 213 245
f 245 244 212
f 246 214 247
f 215 247 214
f 216 217 249
f 249 248 216
f 219 251 250
f 250 218 219
f 221 253 252
f 252 220 221
f 223 255 254
f 254 222 223
f 225 257 224
f 256 224 257
f 227 259 258
f 258 226 227
f 229 261 260
f 260 228 229
f 231 263 262
f 262 230 231
f 233 265 264
f 264 232 233
f 266 197 198
f 201 266 200
f 198 199 200
f 198 200 266
f 90 91 181
f 180 181 91
f 65 135 136
f 262 267 56
f 264 66 56
f 65 265 135
f 265 65 264
f 56 267 264
f 263 267 262
f 65 66 264
f 56 57 262
f 268 262 47
f 47 262 57
f 38 39 258
f 48 38 47
f 260 268 47
f 258 260 38
f 38 260 47
f 256 29 30
f 29 258 39
f 269 258 29
f 260 258 259
f 29 256 269
f 256 20 270
f 269 256 257
f 256 30 20
f 270 254 255
f 20 254 270
f 20 11 254
f 260 261 268
f 11 12 252
f 11 20 21
f 12 299 252
f 299 298 250
f 252 299 271
f 252 253 254
f 271 299 251
f 297 272 250
f 250 251 299
f 250 298 297
f 252 254 11
f 294 272 297
f 272 294 249
f 273 249 292
f 294 297 296
f 294 296 295
f 247 273 292
f 249 273 248
f 274 246 247
f 290 274 247
f 292 249 294
f 247 292 290
f 292 294 293
f 292 291 290
f 245 288 243
f 288 245 289
f 243 288 287
f 245 243 244
f 287 286 243
f 245 290 289
f 242 243 275
f 290 245 274
f 275 243 286
f 241 284 276
f 284 241 285
f 276 284 239
f 241 276 240
f 286 241 275
f 277 238 282
f 282 238 239
f 284 282 239
f 237 282 281
f 282 237 277
f 283 282 284
f 237 281 280
f 235 280 278
f 235 236 280
f 278 280 279
f 278 4 234
f 278 3 4
f 278 234 235
f 280 236 237
f 286 285 241
f 301 300 302
f 302 278 279
f 302 279 301
f 304 303 305
f 305 280 281
f 305 281 304
f 307 306 308
f 308 282 283
f 308 283 307
f 310 309 311
f 311 284 285
f 311 285 310
f 313 312 314
f 314 286 287
f 314 287 313
f 316 315 317
f 317 288 289
f 317 289 316
f 319 318 320
f 320 290 291
f 320 291 319
f 322 321 323
f 323 298 299
f 323 299 322
f 321 322 324
f 324 322 327
f 325 324 327
f 325 327 326
f 325 326 328
f 328 292 293
f 328 293 325
f 330 329 331
f 331 296 297
f 331 297 330
f 330 333 329
f 332 329 333
f 332 333 334
f 334 294 295
f 334 295 332
f 93 94 179
f 178 179 94
f 300 301 335
f 335 301 336
f 336 154 155
f 336 155 335
f 96 97 176
f 176 177 96
f 303 304 337
f 337 304 338
f 338 152 153
f 338 153 337
f 98 99 174
f 174 175 98
f 306 307 339
f 339 307 340
f 340 150 151
f 340 151 339
f 173 101 172
f 102 172 101
f 309 310 341
f 341 310 342
f 341 148 149
f 148 341 342
f 104 105 170
f 170 171 104
f 343 312 344
f 344 312 313
f 146 147 343
f 146 343 344
f 106 107 169
f 168 169 107
f 315 316 345
f 345 316 346
f 346 144 145
f 346 145 345
f 318 319 347
f 347 319 348
f 348 142 143
f 348 143 347
f 183 83 196
f 82 183 89
f 183 82 83
f 89 183 129
f 83 84 195
f 195 196 83
f 88 89 129
f 129 183 128
f 81 73 86
f 72 81 80
f 81 72 73
f 73 74 85
f 85 86 73
f 80 87 79
f 80 81 87
f 188 197 193
f 193 197 266
f 193 201 192
f 201 193 266
f 134 135 75
f 233 75 265
f 134 75 76
f 134 76 133
f 133 76 141
f 75 135 265
f 78 90 181
f 78 141 76
f 140 141 182
f 182 141 78
f 78 181 182
f 202 234 194
f 194 234 4
f 194 1 185
f 185 1 184
f 1 127 184
f 194 5 1
f 4 5 194
f 6 127 1
f 126 127 131
f 131 127 6
f 180 91 92
f 92 93 179
f 92 179 180
f 123 124 156
f 124 130 156
f 130 124 125
f 232 264 267
f 267 263 231
f 267 231 232
f 204 236 235
f 235 203 204
f 94 95 178
f 95 177 178
f 177 95 96
f 121 122 158
f 157 158 122
f 230 262 268
f 268 261 229
f 268 229 230
f 206 238 277
f 277 237 205
f 277 205 206
f 97 98 175
f 175 176 97
f 118 119 160
f 119 159 160
f 159 119 120
f 228 260 259
f 259 227 228
f 208 240 276
f 276 239 207
f 276 207 208
f 174 99 100
f 100 101 173
f 100 173 174
f 115 116 162
f 116 161 162
f 161 116 117
f 226 258 269
f 269 257 225
f 269 225 226
f 210 242 275
f 275 241 209
f 275 209 210
f 102 103 172
f 103 171 172
f 171 103 104
f 113 114 164
f 163 164 114
f 224 256 270
f 270 255 223
f 270 223 224
f 212 244 243
f 243 211 212
f 105 106 170
f 169 170 106
f 110 111 166
f 111 165 166
f 165 111 112
f 222 254 253
f 253 221 222
f 214 246 274
f 274 245 213
f 274 213 214
f 107 108 168
f 108 167 168
f 167 108 109
f 220 252 271
f 271 251 219
f 271 219 220
f 216 248 273
f 273 247 215
f 273 215 216
f 218 250 272
f 272 249 217
f 272 217 218
f 199 189 190
f 190 191 200
f 190 200 199
f 132 64 137
f 64 132 138
f 65 136 137
f 137 64 65
f 138 139 70
f 70 71 138
f 71 64 138
f 300 2 302
f 2 300 335
f 3 278 302
f 302 2 3
f 335 155 7
f 7 8 335
f 8 2 335
f 63 55 67
f 55 63 68
f 56 66 67
f 67 55 56
f 68 69 61
f 61 62 68
f 62 55 68
f 303 301 305
f 301 303 337
f 279 280 305
f 305 301 279
f 337 153 336
f 154 336 153
f 336 301 337
f 54 46 58
f 46 54 59
f 47 57 58
f 58 46 47
f 59 60 52
f 52 53 59
f 53 46 59
f 306 304 308
f 304 306 339
f 281 282 308
f 308 304 281
f 339 151 152
f 152 338 339
f 338 304 339
f 45 37 49
f 37 45 50
f 38 48 49
f 49 37 38
f 50 51 43
f 43 44 50
f 44 37 50
f 309 307 311
f 307 309 341
f 283 284 311
f 311 307 283
f 341 149 150
f 150 340 341
f 340 307 341
f 36 28 40
f 28 36 41
f 29 39 40
f 40 28 29
f 41 42 34
f 34 35 41
f 35 28 41
f 312 310 314
f 310 312 343
f 285 286 314
f 314 310 285
f 343 147 342
f 148 342 147
f 342 310 343
f 27 19 31
f 19 27 32
f 20 30 31
f 31 19 20
f 32 33 25
f 25 26 32
f 26 19 32
f 315 313 317
f 313 315 345
f 287 288 317
f 317 313 287
f 345 145 146
f 146 344 345
f 344 313 345
f 18 10 22
f 10 18 23
f 11 21 22
f 22 10 11
f 23 24 16
f 16 17 23
f 17 10 23
f 318 316 320
f 316 318 347
f 289 290 320
f 320 316 289
f 347 143 346
f 144 346 143
f 346 316 347
f 326 319 328
f 326 327 9
f 319 326 14
f 9 322 13
f 322 9 327
f 13 299 12
f 326 9 14
f 14 15 348
f 142 348 15
f 13 322 299
f 291 292 328
f 319 291 328
f 319 14 348
f 324 325 333
f 324 330 321
f 330 324 333
f 321 330 323
f 325 293 333
f 334 293 294
f 293 334 333
f 323 297 298
f 323 330 297
f 329 332 331
f 331 295 296
f 295 331 332
