v -6.000000 -5.000000 4.750000
v -6.000000 -5.000000 3.750000
v -6.000000 6.000000 3.750000
v -6.000000 6.000000 4.750000
v -6.000000 5.000000 4.750000
v 6.000000 -5.000000 4.750000
v 7.000000 -5.000000 4.750000
v 7.000000 -5.000000 3.750000
v 6.000000 -5.000000 3.750000
v -7.000000 -6.000000 -0.250000
v -7.000000 4.000000 -0.250000
v -7.000000 5.000000 -0.250000
v -7.000000 5.000000 1.750000
v -7.000000 5.000000 2.750000
v -7.000000 6.000000 2.750000
v -7.000000 6.000000 3.750000
v -7.000000 -6.000000 3.750000
v -7.000000 -6.000000 2.750000
v 6.000000 -6.000000 3.750000
v 7.000000 -6.000000 3.750000
v 7.000000 -6.000000 -0.250000
v 6.000000 -6.000000 -0.250000
v 7.000000 -1.000000 4.750000
v 7.000000 -1.000000 3.750000
v 7.000000 1.000000 3.750000
v 7.000000 1.000000 -0.250000
v 7.000000 0.000000 -0.250000
v 1.000000 1.000000 -0.250000
v 1.000000 1.000000 3.750000
v 1.000000 1.000000 2.750000
v 1.000000 6.000000 3.750000
v 1.000000 6.000000 2.750000
v 1.000000 5.000000 2.750000
v 1.000000 5.000000 -0.250000
v 1.000000 4.000000 -0.250000
v -2.000000 5.000000 2.750000
v -2.000000 5.000000 3.750000
v -5.000000 5.000000 3.750000
v -5.000000 5.000000 2.750000
v -2.000000 6.000000 2.750000
v -2.000000 6.000000 3.750000
v -5.000000 6.000000 3.750000
v -5.000000 6.000000 2.750000
v -6.000000 6.000000 2.750000
v -3.000000 6.000000 3.750000
v -0.000000 6.000000 2.750000
v -0.000000 6.000000 3.750000
v -0.000000 6.000000 4.750000
v -2.000000 6.000000 4.750000
v -2.000000 6.000000 5.750000
v -4.000000 6.000000 5.750000
v -4.000000 6.000000 4.750000
v -0.000000 -1.000000 3.750000
v -0.000000 -1.000000 4.750000
v -0.000000 5.000000 3.750000
v -4.000000 -3.000000 5.750000
v -4.000000 -3.000000 4.750000
v -4.000000 5.000000 5.750000
v -3.000000 -3.000000 5.750000
v -2.000000 -3.000000 5.750000
v -2.000000 -3.000000 4.750000
v -3.000000 -3.000000 4.750000
v -2.000000 5.000000 4.750000
v 6.000000 -1.000000 3.750000
v 6.000000 -1.000000 4.750000
o Outer Shell
f 2 1 5
f 5 4 3
f 5 3 2
f 1 2 6
f 6 2 9
f 8 7 6
f 8 6 9
f 11 18 14
f 11 10 18
f 18 17 14
f 14 16 15
f 16 14 17
f 12 11 13
f 13 11 14
f 18 10 22
f 17 18 19
f 22 21 20
f 20 19 22
f 22 19 18
f 21 8 20
f 8 21 24
f 8 24 7
f 27 26 25
f 25 24 27
f 24 23 7
f 27 24 21
f 28 30 26
f 25 26 30
f 25 30 29
f 30 35 33
f 30 28 35
f 35 34 33
f 32 31 33
f 29 33 31
f 33 29 30
f 13 14 39
f 12 39 36
f 39 12 13
f 37 36 39
f 36 33 34
f 34 12 36
f 39 38 37
f 36 37 40
f 41 40 37
f 39 43 38
f 42 38 43
f 15 16 3
f 3 4 42
f 15 3 44
f 43 44 42
f 42 52 45
f 52 42 4
f 45 52 49
f 44 3 42
f 45 49 41
f 50 49 51
f 49 48 41
f 41 48 47
f 40 41 46
f 47 31 32
f 47 32 46
f 41 47 46
f 52 51 49
f 54 53 55
f 55 47 48
f 55 48 54
f 57 56 58
f 58 51 52
f 58 52 57
f 56 57 59
f 59 57 62
f 61 60 59
f 61 59 62
f 60 61 63
f 63 49 50
f 63 50 60
f 64 53 65
f 65 53 54
f 24 65 23
f 65 24 64
f 28 10 11
f 28 22 10
f 27 21 22
f 35 11 12
f 34 35 12
f 28 26 27
f 28 27 22
f 35 28 11
f 14 15 44
f 44 43 39
f 44 39 14
f 36 40 46
f 46 32 33
f 46 33 36
f 38 42 45
f 45 41 37
f 45 37 38
f 17 19 2
f 2 16 17
f 3 16 2
f 2 19 9
f 20 8 9
f 9 19 20
f 53 64 29
f 29 55 53
f 31 55 29
f 29 64 25
f 47 55 31
f 64 24 25
f 61 54 63
f 61 62 1
f 54 61 6
f 1 57 5
f 57 1 62
f 5 52 4
f 61 1 6
f 6 7 23
f 23 65 6
f 5 57 52
f 48 49 63
f 54 48 63
f 54 6 65
f 56 59 58
f 59 60 58
f 58 50 51
f 50 58 60
