v 0.950000 1.000000 2.800000
v 0.950000 1.000000 2.700000
v 0.950000 5.600000 2.800000
v 0.950000 5.600000 2.700000
v 0.950000 5.500000 2.700000
v 6.750000 1.000000 2.700000
v 6.750000 1.000000 2.900000
v 0.850000 1.000000 2.900000
v 0.850000 1.000000 2.800000
v -6.550000 -5.400000 2.700000
v -6.550000 -5.400000 2.800000
v -6.550000 5.500000 2.800000
v -6.550000 5.600000 2.800000
v -6.550000 5.600000 2.700000
v -6.550000 5.500000 2.700000
v 6.750000 -5.400000 2.700000
v 6.750000 -5.400000 2.800000
v 6.650000 -5.400000 2.800000
v 4.350000 0.600000 0.000000
v 4.350000 0.700000 0.000000
v 4.350000 0.700000 2.100000
v 4.350000 0.700000 2.200000
v 4.350000 0.600000 2.200000
v 4.350000 0.600000 2.100000
v 0.550000 0.600000 0.000000
v 5.350000 0.600000 2.200000
v 5.450000 0.600000 2.200000
v 5.450000 0.600000 0.000000
v 6.550000 0.600000 0.000000
v 6.550000 0.600000 2.800000
v 0.550000 0.600000 2.800000
v 0.550000 0.600000 2.700000
v 5.450000 0.700000 2.200000
v 5.450000 0.700000 0.000000
v -3.650000 -2.500000 4.700000
v -3.650000 -2.500000 4.600000
v -3.650000 5.600000 4.600000
v -3.650000 5.600000 4.700000
v -3.650000 5.500000 4.700000
v 6.650000 -2.500000 4.700000
v 6.750000 -2.500000 4.700000
v 6.750000 -2.500000 4.600000
v 6.650000 -2.500000 4.600000
v -3.850000 -2.700000 4.600000
v -3.850000 -2.700000 4.500000
v -3.850000 5.600000 4.500000
v -3.850000 5.600000 4.600000
v -3.850000 5.500000 4.600000
v 6.650000 -2.700000 4.600000
v 6.750000 -2.700000 4.600000
v 6.750000 -2.700000 4.500000
v 6.650000 -2.700000 4.500000
v -3.950000 -2.800000 4.500000
v -3.950000 -2.800000 4.400000
v -3.950000 5.600000 4.400000
v -3.950000 5.600000 4.500000
v -3.950000 5.500000 4.500000
v 6.650000 -2.800000 4.500000
v 6.750000 -2.800000 4.500000
v 6.750000 -2.800000 4.400000
v 6.650000 -2.800000 4.400000
v -4.150000 -3.000000 4.400000
v -4.150000 -3.000000 4.300000
v -4.150000 5.600000 4.300000
v -4.150000 5.600000 4.400000
v -4.150000 5.500000 4.400000
v 6.650000 -3.000000 4.400000
v 6.750000 -3.000000 4.400000
v 6.750000 -3.000000 4.300000
v 6.650000 -3.000000 4.300000
v -4.350000 -3.200000 4.300000
v -4.350000 -3.200000 4.200000
v -4.350000 5.600000 4.200000
v -4.350000 5.600000 4.300000
v -4.350000 5.500000 4.300000
v 6.650000 -3.200000 4.300000
v 6.750000 -3.200000 4.300000
v 6.750000 -3.200000 4.200000
v 6.650000 -3.200000 4.200000
v -4.550000 -3.400000 4.200000
v -4.550000 -3.400000 4.100000
v -4.550000 5.600000 4.100000
v -4.550000 5.600000 4.200000
v -4.550000 5.500000 4.200000
v 6.650000 -3.400000 4.200000
v 6.750000 -3.400000 4.200000
v 6.750000 -3.400000 4.100000
v 6.650000 -3.400000 4.100000
v -4.650000 -3.500000 4.100000
v -4.650000 -3.500000 4.000000
v -4.650000 5.600000 4.000000
v -4.650000 5.600000 4.100000
v -4.650000 5.500000 4.100000
v 6.650000 -3.500000 4.100000
v 6.750000 -3.500000 4.100000
v 6.750000 -3.500000 4.000000
v 6.650000 -3.500000 4.000000
v -4.850000 -3.700000 4.000000
v -4.850000 -3.700000 3.900000
v -4.850000 5.600000 3.900000
v -4.850000 5.600000 4.000000
v -4.850000 5.500000 4.000000
v 6.650000 -3.700000 4.000000
v 6.750000 -3.700000 4.000000
v 6.750000 -3.700000 3.900000
v 6.650000 -3.700000 3.900000
v -5.050000 -3.900000 3.900000
v -5.050000 -3.900000 3.800000
v -5.050000 5.600000 3.800000
v -5.050000 5.600000 3.900000
v -5.050000 5.500000 3.900000
v 6.650000 -3.900000 3.900000
v 6.750000 -3.900000 3.900000
v 6.750000 -3.900000 3.800000
v 6.650000 -3.900000 3.800000
v -5.250000 -4.100000 3.800000
v -5.250000 -4.100000 3.700000
v -5.250000 5.600000 3.700000
v -5.250000 5.600000 3.800000
v -5.250000 5.500000 3.800000
v 6.650000 -4.100000 3.800000
v 6.750000 -4.100000 3.800000
v 6.750000 -4.100000 3.700000
v 6.650000 -4.100000 3.700000
v -5.350000 -4.200000 3.700000
v -5.350000 -4.200000 3.600000
v -5.350000 5.600000 3.600000
v -5.350000 5.600000 3.700000
v -5.350000 5.500000 3.700000
v 6.650000 -4.200000 3.700000
v 6.750000 -4.200000 3.700000
v 6.750000 -4.200000 3.600000
v 6.650000 -4.200000 3.600000
v -5.550000 -4.400000 3.600000
v -5.550000 -4.400000 3.500000
v -5.550000 5.600000 3.500000
v -5.550000 5.600000 3.600000
v -5.550000 5.500000 3.600000
v 6.650000 -4.400000 3.600000
v 6.750000 -4.400000 3.600000
v 6.750000 -4.400000 3.500000
v 6.650000 -4.400000 3.500000
v -5.750000 -4.600000 3.500000
v -5.750000 -4.600000 3.400000
v -5.750000 5.600000 3.400000
v -5.750000 5.600000 3.500000
v -5.750000 5.500000 3.500000
v 6.650000 -4.600000 3.500000
v 6.750000 -4.600000 3.500000
v 6.750000 -4.600000 3.400000
v 6.650000 -4.600000 3.400000
v -5.850000 -4.700000 3.400000
v -5.850000 -4.700000 3.300000
v -5.850000 5.600000 3.300000
v -5.850000 5.600000 3.400000
v -5.850000 5.500000 3.400000
v 6.650000 -4.700000 3.400000
v 6.750000 -4.700000 3.400000
v 6.750000 -4.700000 3.300000
v 6.650000 -4.700000 3.300000
v -6.050000 -4.900000 3.300000
v -6.050000 -4.900000 3.200000
v -6.050000 5.600000 3.200000
v -6.050000 5.600000 3.300000
v -6.050000 5.500000 3.300000
v 6.650000 -4.900000 3.300000
v 6.750000 -4.900000 3.300000
v 6.750000 -4.900000 3.200000
v 6.650000 -4.900000 3.200000
v -6.250000 -5.100000 3.200000
v -6.250000 -5.100000 3.100000
v -6.250000 5.600000 3.100000
v -6.250000 5.600000 3.200000
v -6.250000 5.500000 3.200000
v 6.650000 -5.100000 3.200000
v 6.750000 -5.100000 3.200000
v 6.750000 -5.100000 3.100000
v 6.650000 -5.100000 3.100000
v -6.450000 -5.300000 3.100000
v -6.450000 -5.300000 3.000000
v -6.450000 5.600000 3.000000
v -6.450000 5.600000 3.100000
v -6.450000 5.500000 3.100000
v 6.650000 -5.300000 3.100000
v 6.750000 -5.300000 3.100000
v 6.750000 -5.300000 3.000000
v 6.650000 -5.300000 3.000000
v -6.550000 -5.400000 3.000000
v -6.550000 -5.400000 2.900000
v -6.550000 5.600000 2.900000
v -6.550000 5.600000 3.000000
v -6.550000 5.500000 3.000000
v 6.650000 -5.400000 3.000000
v 6.750000 -5.400000 3.000000
v 6.750000 -5.400000 2.900000
v 6.650000 -5.400000 2.900000
v 6.450000 -3.000000 0.500000
v 6.450000 -3.000000 2.100000
v 6.450000 -3.000000 2.200000
v 6.450000 -2.700000 2.200000
v 6.450000 -2.600000 2.200000
v 6.450000 -2.600000 0.500000
v 6.450000 -2.700000 0.500000
v 6.550000 -2.600000 2.200000
v 6.550000 -2.600000 0.500000
v -6.450000 -1.700000 0.000000
v -6.450000 -0.600000 0.000000
v -6.450000 -0.600000 2.100000
v -6.450000 -0.600000 2.200000
v -6.450000 -1.700000 2.200000
v -6.450000 -1.700000 2.100000
v -6.350000 -1.700000 2.200000
v -6.350000 -1.700000 0.000000
v -6.350000 -5.200000 0.000000
v -6.350000 -1.800000 0.000000
v -6.350000 -0.600000 2.200000
v -6.350000 -0.600000 0.000000
v -6.350000 5.400000 0.000000
v -6.350000 5.400000 2.800000
v -6.350000 -5.200000 2.800000
v -6.350000 -5.200000 2.700000
v 6.550000 -5.200000 2.800000
v 6.550000 -5.200000 0.000000
v 6.450000 -5.200000 0.000000
v 1.350000 -5.200000 0.100000
v 2.350000 -5.200000 0.100000
v 2.450000 -5.200000 0.100000
v 2.450000 -5.200000 2.200000
v 1.350000 -5.200000 2.200000
v 1.350000 -5.200000 2.100000
v 6.550000 -5.200000 2.900000
v 6.550000 -5.100000 2.900000
v 6.550000 -5.100000 3.000000
v 6.550000 -5.000000 3.000000
v 6.550000 -4.900000 3.000000
v 6.550000 -4.900000 3.100000
v 6.550000 -4.800000 3.100000
v 6.550000 -4.700000 3.100000
v 6.550000 -4.700000 3.200000
v 6.550000 -4.600000 3.200000
v 6.550000 -4.500000 3.200000
v 6.550000 -4.500000 3.300000
v 6.550000 -4.400000 3.300000
v 6.550000 -4.400000 3.400000
v 6.550000 -4.300000 3.400000
v 6.550000 -4.200000 3.400000
v 6.550000 -4.200000 3.500000
v 6.550000 -4.100000 3.500000
v 6.550000 -4.000000 3.500000
v 6.550000 -4.000000 3.600000
v 6.550000 -3.900000 3.600000
v 6.550000 -3.900000 3.700000
v 6.550000 -3.800000 3.700000
v 6.550000 -3.700000 3.700000
v 6.550000 -3.700000 3.800000
v 6.550000 -3.600000 3.800000
v 6.550000 -3.500000 3.800000
v 6.550000 -3.500000 3.900000
v 6.550000 -3.400000 3.900000
v 6.550000 -3.300000 3.900000
v 6.550000 -3.300000 4.000000
v 6.550000 -3.200000 4.000000
v 6.550000 -3.200000 4.100000
v 6.550000 -3.100000 4.100000
v 6.550000 -3.000000 4.100000
v 6.550000 -3.000000 4.200000
v 6.550000 -2.900000 4.200000
v 6.550000 -2.800000 4.200000
v 6.550000 -2.800000 4.300000
v 6.550000 -2.700000 4.300000
v 6.550000 -2.600000 4.300000
v 6.550000 -2.600000 4.400000
v 6.550000 -2.500000 4.400000
v 6.550000 -2.500000 4.500000
v 6.550000 -2.300000 4.500000
v 6.550000 -2.200000 4.500000
v 6.550000 -2.200000 4.400000
v 6.550000 -2.100000 4.400000
v 6.550000 -2.000000 4.400000
v 6.550000 -2.000000 4.300000
v 6.550000 -1.900000 4.300000
v 6.550000 -1.800000 4.300000
v 6.550000 -1.800000 4.200000
v 6.550000 -1.700000 4.200000
v 6.550000 -1.600000 4.200000
v 6.550000 -1.600000 4.100000
v 6.550000 -1.500000 4.100000
v 6.550000 -1.500000 4.000000
v 6.550000 -1.400000 4.000000
v 6.550000 -1.300000 4.000000
v 6.550000 -1.300000 3.900000
v 6.550000 -1.200000 3.900000
v 6.550000 -1.100000 3.900000
v 6.550000 -1.100000 3.800000
v 6.550000 -1.000000 3.800000
v 6.550000 -0.900000 3.800000
v 6.550000 -0.900000 3.700000
v 6.550000 -0.800000 3.700000
v 6.550000 -0.800000 3.600000
v 6.550000 -0.700000 3.600000
v 6.550000 -0.600000 3.600000
v 6.550000 -0.600000 3.500000
v 6.550000 -0.500000 3.500000
v 6.550000 -0.400000 3.500000
v 6.550000 -0.400000 3.400000
v 6.550000 -0.300000 3.400000
v 6.550000 -0.200000 3.400000
v 6.550000 -0.200000 3.300000
v 6.550000 -0.100000 3.300000
v 6.550000 -0.100000 3.200000
v 6.550000 0.000000 3.200000
v 6.550000 0.100000 3.200000
v 6.550000 0.100000 3.100000
v 6.550000 0.200000 3.100000
v 6.550000 0.300000 3.100000
v 6.550000 0.300000 3.000000
v 6.550000 0.400000 3.000000
v 6.550000 0.400000 2.900000
v 6.550000 0.500000 2.900000
v 6.550000 0.600000 2.900000
v 6.550000 0.500000 0.000000
v 6.550000 -3.000000 0.500000
v 6.550000 -3.000000 2.200000
v 6.550000 -3.000000 2.100000
v 2.450000 -5.300000 0.100000
v 2.450000 -5.300000 2.200000
v 1.350000 -5.300000 0.100000
v 1.350000 -5.300000 2.200000
v 1.350000 -5.300000 2.100000
v 2.350000 -5.300000 2.200000
v 2.350000 -5.300000 0.100000
v 6.750000 0.600000 2.900000
v 6.750000 0.600000 2.800000
v 6.650000 0.600000 2.800000
v 0.650000 0.800000 2.800000
v 0.650000 0.800000 2.700000
v 0.650000 5.500000 2.700000
v 0.650000 5.600000 2.700000
v 0.650000 5.600000 2.800000
v 0.650000 5.500000 2.800000
v 6.750000 0.800000 2.800000
v 6.750000 0.800000 2.700000
v 6.650000 0.800000 2.700000
v -6.750000 -5.600000 2.700000
v -6.750000 5.500000 2.700000
v -6.750000 5.600000 2.700000
v -6.750000 5.600000 2.800000
v -6.750000 5.600000 2.900000
v -6.750000 -5.600000 2.900000
v -6.750000 -5.600000 2.800000
v 6.650000 -5.600000 2.900000
v 6.750000 -5.600000 2.900000
v 6.750000 -5.600000 2.700000
v 6.650000 -5.600000 2.700000
v 6.750000 -2.100000 4.700000
v 6.750000 -2.100000 4.600000
v 6.750000 -2.000000 4.600000
v 6.750000 -2.000000 4.500000
v 6.750000 -1.800000 4.500000
v 6.750000 -1.800000 4.400000
v 6.750000 -1.600000 4.400000
v 6.750000 -1.600000 4.300000
v 6.750000 -1.400000 4.300000
v 6.750000 -1.400000 4.200000
v 6.750000 -1.300000 4.200000
v 6.750000 -1.300000 4.100000
v 6.750000 -1.100000 4.100000
v 6.750000 -1.100000 4.000000
v 6.750000 -0.900000 4.000000
v 6.750000 -0.900000 3.900000
v 6.750000 -0.700000 3.900000
v 6.750000 -0.700000 3.800000
v 6.750000 -0.600000 3.800000
v 6.750000 -0.600000 3.700000
v 6.750000 -0.400000 3.700000
v 6.750000 -0.400000 3.600000
v 6.750000 -0.200000 3.600000
v 6.750000 -0.200000 3.500000
v 6.750000 0.000000 3.500000
v 6.750000 0.000000 3.400000
v 6.750000 0.100000 3.400000
v 6.750000 0.100000 3.300000
v 6.750000 0.300000 3.300000
v 6.750000 0.300000 3.200000
v 6.750000 0.500000 3.200000
v 6.750000 0.500000 3.100000
v 6.750000 0.600000 3.100000
v 6.750000 0.600000 3.000000
v 6.750000 0.800000 3.000000
v 6.750000 0.800000 2.900000
v 6.750000 0.400000 2.900000
v 6.750000 0.400000 3.000000
v 6.750000 0.300000 3.000000
v 6.750000 0.300000 3.100000
v 6.750000 0.100000 3.100000
v 6.750000 0.100000 3.200000
v 6.750000 -0.100000 3.200000
v 6.750000 -0.100000 3.300000
v 6.750000 -0.200000 3.300000
v 6.750000 -0.200000 3.400000
v 6.750000 -0.400000 3.400000
v 6.750000 -0.400000 3.500000
v 6.750000 -0.600000 3.500000
v 6.750000 -0.600000 3.600000
v 6.750000 -0.800000 3.600000
v 6.750000 -0.800000 3.700000
v 6.750000 -0.900000 3.700000
v 6.750000 -0.900000 3.800000
v 6.750000 -1.100000 3.800000
v 6.750000 -1.100000 3.900000
v 6.750000 -1.300000 3.900000
v 6.750000 -1.300000 4.000000
v 6.750000 -1.500000 4.000000
v 6.750000 -1.500000 4.100000
v 6.750000 -1.600000 4.100000
v 6.750000 -1.600000 4.200000
v 6.750000 -1.800000 4.200000
v 6.750000 -1.800000 4.300000
v 6.750000 -2.000000 4.300000
v 6.750000 -2.000000 4.400000
v 6.750000 -2.200000 4.400000
v 6.750000 -2.200000 4.500000
v 6.750000 -2.500000 4.500000
v 6.750000 -2.500000 4.400000
v 6.750000 -2.600000 4.400000
v 6.750000 -2.600000 4.300000
v 6.750000 -2.800000 4.300000
v 6.750000 -2.800000 4.200000
v 6.750000 -3.000000 4.200000
v 6.750000 -3.000000 4.100000
v 6.750000 -3.200000 4.100000
v 6.750000 -3.200000 4.000000
v 6.750000 -3.300000 4.000000
v 6.750000 -3.300000 3.900000
v 6.750000 -3.500000 3.900000
v 6.750000 -3.500000 3.800000
v 6.750000 -3.700000 3.800000
v 6.750000 -3.700000 3.700000
v 6.750000 -3.900000 3.700000
v 6.750000 -3.900000 3.600000
v 6.750000 -4.000000 3.600000
v 6.750000 -4.000000 3.500000
v 6.750000 -4.200000 3.500000
v 6.750000 -4.200000 3.400000
v 6.750000 -4.400000 3.400000
v 6.750000 -4.400000 3.300000
v 6.750000 -4.500000 3.300000
v 6.750000 -4.500000 3.200000
v 6.750000 -4.700000 3.200000
v 6.750000 -4.700000 3.100000
v 6.750000 -4.900000 3.100000
v 6.750000 -4.900000 3.000000
v 6.750000 -5.100000 3.000000
v 6.750000 -5.100000 2.900000
v 6.750000 -5.200000 2.900000
v 6.750000 -5.200000 2.800000
v 6.750000 -5.500000 2.700000
v 6.650000 0.400000 3.000000
v 6.650000 0.400000 2.900000
v 6.650000 0.300000 3.000000
v 6.650000 0.100000 3.100000
v 6.650000 -0.100000 3.300000
v 6.650000 -0.100000 3.200000
v 6.650000 -0.200000 3.300000
v 6.650000 -0.400000 3.400000
v 6.650000 -0.600000 3.500000
v 6.650000 -0.800000 3.700000
v 6.650000 -0.800000 3.600000
v 6.650000 -0.900000 3.700000
v 6.650000 -1.100000 3.800000
v 6.650000 -1.300000 3.900000
v 6.650000 -1.500000 4.100000
v 6.650000 -1.500000 4.000000
v 6.650000 -1.600000 4.100000
v 6.650000 -1.800000 4.200000
v 6.650000 -2.000000 4.300000
v 6.650000 -2.200000 4.400000
v 0.550000 5.400000 2.800000
v 0.550000 5.400000 0.000000
v 0.550000 5.300000 0.000000
v 0.550000 5.400000 2.900000
v 0.350000 5.400000 2.900000
v 0.350000 5.400000 3.000000
v 0.150000 5.400000 3.000000
v 0.150000 5.400000 3.100000
v -0.050000 5.400000 3.100000
v -0.050000 5.400000 3.200000
v -0.150000 5.400000 3.200000
v -0.150000 5.400000 3.300000
v -0.350000 5.400000 3.300000
v -0.350000 5.400000 3.400000
v -0.550000 5.400000 3.400000
v -0.550000 5.400000 3.500000
v -0.750000 5.400000 3.500000
v -0.750000 5.400000 3.600000
v -0.850000 5.400000 3.600000
v -0.850000 5.400000 3.700000
v -1.050000 5.400000 3.700000
v -1.050000 5.400000 3.800000
v -1.250000 5.400000 3.800000
v -1.250000 5.400000 3.900000
v -1.350000 5.400000 3.900000
v -1.350000 5.400000 4.000000
v -1.550000 5.400000 4.000000
v -1.550000 5.400000 4.100000
v -1.750000 5.400000 4.100000
v -1.750000 5.400000 4.200000
v -1.950000 5.400000 4.200000
v -1.950000 5.400000 4.300000
v -2.050000 5.400000 4.300000
v -2.050000 5.400000 4.400000
v -2.250000 5.400000 4.400000
v -2.250000 5.400000 4.500000
v -2.450000 5.400000 4.500000
v -2.450000 5.400000 4.600000
v -2.650000 5.400000 4.600000
v -2.650000 5.400000 4.700000
v -2.750000 5.400000 4.700000
v -2.750000 5.400000 4.800000
v -3.050000 5.400000 4.800000
v -3.050000 5.400000 4.700000
v -3.250000 5.400000 4.700000
v -3.250000 5.400000 4.600000
v -3.450000 5.400000 4.600000
v -3.450000 5.400000 4.500000
v -3.650000 5.400000 4.500000
v -3.650000 5.400000 4.400000
v -3.750000 5.400000 4.400000
v -3.750000 5.400000 4.300000
v -3.950000 5.400000 4.300000
v -3.950000 5.400000 4.200000
v -4.150000 5.400000 4.200000
v -4.150000 5.400000 4.100000
v -4.350000 5.400000 4.100000
v -4.350000 5.400000 4.000000
v -4.450000 5.400000 4.000000
v -4.450000 5.400000 3.900000
v -4.650000 5.400000 3.900000
v -4.650000 5.400000 3.800000
v -4.850000 5.400000 3.800000
v -4.850000 5.400000 3.700000
v -5.050000 5.400000 3.700000
v -5.050000 5.400000 3.600000
v -5.150000 5.400000 3.600000
v -5.150000 5.400000 3.500000
v -5.350000 5.400000 3.500000
v -5.350000 5.400000 3.400000
v -5.550000 5.400000 3.400000
v -5.550000 5.400000 3.300000
v -5.650000 5.400000 3.300000
v -5.650000 5.400000 3.200000
v -5.850000 5.400000 3.200000
v -5.850000 5.400000 3.100000
v -6.050000 5.400000 3.100000
v -6.050000 5.400000 3.000000
v -6.250000 5.400000 3.000000
v -6.250000 5.400000 2.900000
v -6.350000 5.400000 2.900000
v -4.750000 5.400000 2.000000
v -4.750000 5.400000 0.900000
v -3.750000 5.400000 2.000000
v -3.650000 5.400000 2.000000
v -3.650000 5.400000 0.900000
v -3.750000 5.400000 0.900000
v -2.150000 5.400000 2.000000
v -2.150000 5.400000 0.900000
v -1.150000 5.400000 2.000000
v -1.050000 5.400000 2.000000
v -1.050000 5.400000 0.900000
v -1.150000 5.400000 0.900000
v 0.550000 5.500000 2.800000
v 0.550000 5.600000 2.800000
v 0.550000 5.600000 2.900000
v 0.550000 5.500000 2.900000
v 0.350000 5.500000 2.900000
v 0.350000 5.600000 2.900000
v 0.350000 5.600000 3.000000
v 0.350000 5.500000 3.000000
v 0.150000 5.500000 3.000000
v 0.150000 5.600000 3.000000
v 0.150000 5.600000 3.100000
v 0.150000 5.500000 3.100000
v -0.050000 5.500000 3.100000
v -0.050000 5.600000 3.100000
v -0.050000 5.600000 3.200000
v -0.050000 5.500000 3.200000
v -0.150000 5.500000 3.200000
v -0.150000 5.600000 3.200000
v -0.150000 5.600000 3.300000
v -0.150000 5.500000 3.300000
v -0.350000 5.500000 3.300000
v -0.350000 5.600000 3.300000
v -0.350000 5.600000 3.400000
v -0.350000 5.500000 3.400000
v -0.550000 5.500000 3.400000
v -0.550000 5.600000 3.400000
v -0.550000 5.600000 3.500000
v -0.550000 5.500000 3.500000
v -0.750000 5.500000 3.500000
v -0.750000 5.600000 3.500000
v -0.750000 5.600000 3.600000
v -0.750000 5.500000 3.600000
v -0.850000 5.500000 3.600000
v -0.850000 5.600000 3.600000
v -0.850000 5.600000 3.700000
v -0.850000 5.500000 3.700000
v -1.050000 5.500000 3.700000
v -1.050000 5.600000 3.700000
v -1.050000 5.600000 3.800000
v -1.050000 5.500000 3.800000
v -1.250000 5.500000 3.800000
v -1.250000 5.600000 3.800000
v -1.250000 5.600000 3.900000
v -1.250000 5.500000 3.900000
v -1.350000 5.500000 3.900000
v -1.350000 5.600000 3.900000
v -1.350000 5.600000 4.000000
v -1.350000 5.500000 4.000000
v -1.550000 5.500000 4.000000
v -1.550000 5.600000 4.000000
v -1.550000 5.600000 4.100000
v -1.550000 5.500000 4.100000
v -1.750000 5.500000 4.100000
v -1.750000 5.600000 4.100000
v -1.750000 5.600000 4.200000
v -1.750000 5.500000 4.200000
v -1.950000 5.500000 4.200000
v -1.950000 5.600000 4.200000
v -1.950000 5.600000 4.300000
v -1.950000 5.500000 4.300000
v -2.050000 5.500000 4.300000
v -2.050000 5.600000 4.300000
v -2.050000 5.600000 4.400000
v -2.050000 5.500000 4.400000
v -2.250000 5.500000 4.400000
v -2.250000 5.600000 4.400000
v -2.250000 5.600000 4.500000
v -2.250000 5.500000 4.500000
v -2.450000 5.500000 4.500000
v -2.450000 5.600000 4.500000
v -2.450000 5.600000 4.600000
v -2.450000 5.500000 4.600000
v -2.650000 5.500000 4.600000
v -2.650000 5.600000 4.600000
v -2.650000 5.600000 4.700000
v -2.650000 5.500000 4.700000
v -2.750000 5.500000 4.700000
v -2.750000 5.600000 4.700000
v -2.750000 5.600000 4.800000
v -2.750000 5.500000 4.800000
v -3.050000 5.500000 4.800000
v -3.050000 5.600000 4.800000
v -3.050000 5.600000 4.700000
v -3.050000 5.500000 4.700000
v -3.250000 5.500000 4.700000
v -3.250000 5.600000 4.700000
v -3.250000 5.600000 4.600000
v -3.250000 5.500000 4.600000
v -3.450000 5.500000 4.600000
v -3.450000 5.600000 4.600000
v -3.450000 5.600000 4.500000
v -3.450000 5.500000 4.500000
v -3.650000 5.500000 4.500000
v -3.650000 5.600000 4.500000
v -3.650000 5.600000 4.400000
v -3.650000 5.500000 4.400000
v -3.750000 5.500000 4.400000
v -3.750000 5.600000 4.400000
v -3.750000 5.600000 4.300000
v -3.750000 5.500000 4.300000
v -3.950000 5.500000 4.300000
v -3.950000 5.600000 4.300000
v -3.950000 5.600000 4.200000
v -3.950000 5.500000 4.200000
v -4.150000 5.500000 4.200000
v -4.150000 5.600000 4.200000
v -4.150000 5.600000 4.100000
v -4.150000 5.500000 4.100000
v -4.350000 5.500000 4.100000
v -4.350000 5.600000 4.100000
v -4.350000 5.600000 4.000000
v -4.350000 5.500000 4.000000
v -4.450000 5.500000 4.000000
v -4.450000 5.600000 4.000000
v -4.450000 5.600000 3.900000
v -4.450000 5.500000 3.900000
v -4.650000 5.500000 3.900000
v -4.650000 5.600000 3.900000
v -4.650000 5.600000 3.800000
v -4.650000 5.500000 3.800000
v -4.850000 5.500000 3.800000
v -4.850000 5.600000 3.800000
v -4.850000 5.600000 3.700000
v -4.850000 5.500000 3.700000
v -5.050000 5.500000 3.700000
v -5.050000 5.600000 3.700000
v -5.050000 5.600000 3.600000
v -5.050000 5.500000 3.600000
v -5.150000 5.500000 3.600000
v -5.150000 5.600000 3.600000
v -5.150000 5.600000 3.500000
v -5.150000 5.500000 3.500000
v -5.350000 5.500000 3.500000
v -5.350000 5.600000 3.500000
v -5.350000 5.600000 3.400000
v -5.350000 5.500000 3.400000
v -5.550000 5.500000 3.400000
v -5.550000 5.600000 3.400000
v -5.550000 5.600000 3.300000
v -5.550000 5.500000 3.300000
v -5.650000 5.500000 3.300000
v -5.650000 5.600000 3.300000
v -5.650000 5.600000 3.200000
v -5.650000 5.500000 3.200000
v -5.850000 5.500000 3.200000
v -5.850000 5.600000 3.200000
v -5.850000 5.600000 3.100000
v -5.850000 5.500000 3.100000
v -6.050000 5.500000 3.100000
v -6.050000 5.600000 3.100000
v -6.050000 5.600000 3.000000
v -6.050000 5.500000 3.000000
v -6.250000 5.500000 3.000000
v -6.250000 5.600000 3.000000
v -6.250000 5.600000 2.900000
v -6.250000 5.500000 2.900000
v -6.350000 5.500000 2.900000
v -6.350000 5.600000 2.900000
v -6.350000 5.600000 2.800000
v -6.350000 5.500000 2.800000
v -4.750000 5.300000 0.900000
v -4.750000 5.300000 1.900000
v -4.750000 5.300000 2.000000
v -3.650000 5.300000 0.900000
v -3.650000 5.300000 2.000000
v -3.650000 5.300000 1.900000
v -2.150000 5.300000 0.900000
v -2.150000 5.300000 1.900000
v -2.150000 5.300000 2.000000
v -1.050000 5.300000 0.900000
v -1.050000 5.300000 2.000000
v -1.050000 5.300000 1.900000
v -3.750000 5.300000 0.900000
v -1.150000 5.300000 0.900000
v 0.850000 5.600000 2.900000
v 0.850000 5.600000 2.800000
v 0.850000 5.500000 2.800000
v 0.750000 5.600000 2.900000
v 0.750000 5.600000 3.000000
v 0.550000 5.600000 3.000000
v 0.550000 5.600000 3.100000
v 0.350000 5.600000 3.100000
v 0.350000 5.600000 3.200000
v 0.150000 5.600000 3.200000
v 0.150000 5.600000 3.300000
v 0.050000 5.600000 3.300000
v 0.050000 5.600000 3.400000
v -0.150000 5.600000 3.400000
v -0.150000 5.600000 3.500000
v -0.350000 5.600000 3.500000
v -0.350000 5.600000 3.600000
v -0.550000 5.600000 3.600000
v -0.550000 5.600000 3.700000
v -0.650000 5.600000 3.700000
v -0.650000 5.600000 3.800000
v -0.850000 5.600000 3.800000
v -0.850000 5.600000 3.900000
v -1.050000 5.600000 3.900000
v -1.050000 5.600000 4.000000
v -1.150000 5.600000 4.000000
v -1.150000 5.600000 4.100000
v -1.350000 5.600000 4.100000
v -1.350000 5.600000 4.200000
v -1.550000 5.600000 4.200000
v -1.550000 5.600000 4.300000
v -1.750000 5.600000 4.300000
v -1.750000 5.600000 4.400000
v -1.850000 5.600000 4.400000
v -1.850000 5.600000 4.500000
v -2.050000 5.600000 4.500000
v -2.050000 5.600000 4.600000
v -2.250000 5.600000 4.600000
v -2.250000 5.600000 4.700000
v -2.450000 5.600000 4.700000
v -2.450000 5.600000 4.800000
v -2.550000 5.600000 4.800000
v -2.550000 5.600000 4.900000
v -2.750000 5.600000 4.900000
v -2.750000 5.600000 5.000000
v -3.150000 5.600000 5.000000
v -3.150000 5.600000 4.900000
v -3.250000 5.600000 4.900000
v -3.250000 5.600000 4.800000
v -3.450000 5.600000 4.800000
v -3.450000 5.600000 4.700000
v 0.750000 0.800000 2.900000
v 0.750000 0.800000 3.000000
v 0.750000 5.500000 2.900000
v 0.550000 0.600000 3.000000
v 0.550000 0.600000 3.100000
v 0.550000 5.500000 3.000000
v 0.350000 0.500000 3.100000
v 0.350000 0.500000 3.200000
v 0.350000 5.500000 3.100000
v 0.150000 0.300000 3.200000
v 0.150000 0.300000 3.300000
v 0.150000 5.500000 3.200000
v 0.050000 0.100000 3.300000
v 0.050000 0.100000 3.400000
v 0.050000 5.500000 3.300000
v -0.150000 0.000000 3.400000
v -0.150000 0.000000 3.500000
v -0.150000 5.500000 3.400000
v -0.350000 -0.200000 3.500000
v -0.350000 -0.200000 3.600000
v -0.350000 5.500000 3.500000
v -0.550000 -0.400000 3.600000
v -0.550000 -0.400000 3.700000
v -0.550000 5.500000 3.600000
v -0.650000 -0.600000 3.700000
v -0.650000 -0.600000 3.800000
v -0.650000 5.500000 3.700000
v -0.850000 -0.700000 3.800000
v -0.850000 -0.700000 3.900000
v -0.850000 5.500000 3.800000
v -1.050000 -0.900000 3.900000
v -1.050000 -0.900000 4.000000
v -1.050000 5.500000 3.900000
v -1.150000 -1.100000 4.000000
v -1.150000 -1.100000 4.100000
v -1.150000 5.500000 4.000000
v -1.350000 -1.300000 4.100000
v -1.350000 -1.300000 4.200000
v -1.350000 5.500000 4.100000
v -1.550000 -1.400000 4.200000
v -1.550000 -1.400000 4.300000
v -1.550000 5.500000 4.200000
v -1.750000 -1.600000 4.300000
v -1.750000 -1.600000 4.400000
v -1.750000 5.500000 4.300000
v -1.850000 -1.800000 4.400000
v -1.850000 -1.800000 4.500000
v -1.850000 5.500000 4.400000
v -2.050000 -2.000000 4.500000
v -2.050000 -2.000000 4.600000
v -2.050000 5.500000 4.500000
v -2.250000 -2.100000 4.600000
v -2.250000 -2.100000 4.700000
v -2.250000 5.500000 4.600000
v -3.450000 -2.300000 4.800000
v -3.450000 -2.300000 4.700000
v -3.450000 5.500000 4.800000
v -2.550000 -2.300000 4.800000
v -2.450000 -2.300000 4.800000
v -2.450000 -2.300000 4.700000
v -2.550000 -2.300000 4.700000
v -2.450000 5.500000 4.700000
v -3.250000 -2.100000 4.900000
v -3.250000 -2.100000 4.800000
v -3.250000 5.500000 4.900000
v -2.650000 -2.100000 4.900000
v -2.550000 -2.100000 4.900000
v -2.550000 -2.100000 4.800000
v -2.650000 -2.100000 4.800000
v -2.550000 5.500000 4.800000
v -3.150000 -2.000000 5.000000
v -3.150000 -2.000000 4.900000
v -3.150000 5.500000 5.000000
v -2.850000 -2.000000 5.000000
v -2.750000 -2.000000 5.000000
v -2.750000 -2.000000 4.900000
v -2.850000 -2.000000 4.900000
v -2.750000 5.500000 4.900000
v 6.650000 -5.200000 2.900000
v 6.650000 -5.100000 2.900000
v 6.650000 -5.100000 3.000000
v 6.650000 0.800000 2.900000
v 6.650000 0.800000 3.000000
v 6.650000 -4.900000 3.100000
v 6.650000 0.600000 3.000000
v 6.650000 0.600000 3.100000
v 6.650000 -4.700000 3.200000
v 6.650000 0.500000 3.100000
v 6.650000 0.500000 3.200000
v 6.650000 -4.500000 3.300000
v 6.650000 0.300000 3.200000
v 6.650000 0.300000 3.300000
v 6.650000 -4.400000 3.300000
v 6.650000 -4.400000 3.400000
v 6.650000 0.100000 3.300000
v 6.650000 0.100000 3.400000
v 6.650000 -4.200000 3.500000
v 6.650000 0.000000 3.400000
v 6.650000 0.000000 3.500000
v 6.650000 -4.000000 3.600000
v 6.650000 -0.200000 3.500000
v 6.650000 -0.200000 3.600000
v 6.650000 -3.900000 3.600000
v 6.650000 -3.900000 3.700000
v 6.650000 -0.400000 3.600000
v 6.650000 -0.400000 3.700000
v 6.650000 -3.700000 3.800000
v 6.650000 -0.600000 3.700000
v 6.650000 -0.600000 3.800000
v 6.650000 -3.500000 3.900000
v 6.650000 -0.700000 3.800000
v 6.650000 -0.700000 3.900000
v 6.650000 -3.300000 4.000000
v 6.650000 -0.900000 3.900000
v 6.650000 -0.900000 4.000000
v 6.650000 -3.200000 4.000000
v 6.650000 -3.200000 4.100000
v 6.650000 -1.100000 4.000000
v 6.650000 -1.100000 4.100000
v 6.650000 -3.000000 4.200000
v 6.650000 -1.300000 4.100000
v 6.650000 -1.300000 4.200000
v 6.650000 -2.800000 4.300000
v 6.650000 -1.400000 4.200000
v 6.650000 -1.400000 4.300000
v 6.650000 -2.600000 4.400000
v 6.650000 -1.600000 4.300000
v 6.650000 -1.600000 4.400000
v 6.650000 -2.500000 4.400000
v 6.650000 -2.500000 4.500000
v 6.650000 -1.800000 4.400000
v 6.650000 -1.800000 4.500000
v 6.650000 -2.000000 4.500000
v 6.650000 -2.000000 4.600000
v 6.650000 -2.100000 4.600000
v 6.650000 -2.100000 4.700000
v -6.250000 5.300000 0.000000
v -6.250000 -5.100000 0.000000
v 0.450000 5.300000 0.000000
v 0.450000 0.500000 0.000000
v 6.450000 0.500000 0.000000
v 6.450000 -5.100000 0.000000
v 6.350000 -5.100000 0.000000
v -6.250000 -5.100000 -0.300000
v -6.250000 5.200000 -0.300000
v -6.250000 5.300000 -0.300000
v -6.250000 5.300000 -0.100000
v -6.250000 -5.100000 -0.100000
v 6.450000 -5.100000 -0.300000
v 6.350000 -5.100000 -0.300000
v 6.450000 0.500000 -0.300000
v 6.450000 0.400000 -0.300000
v 0.450000 0.500000 -0.300000
v 0.450000 0.500000 -0.100000
v 0.450000 5.300000 -0.300000
v 0.450000 5.200000 -0.300000
o Outer Shell
f 1 2 5
f 5 4 3
f 5 3 1
f 1 9 8
f 2 1 6
f 7 6 1
f 7 1 8
f 10 15 11
f 11 15 12
f 14 13 12
f 14 12 15
f 10 11 18
f 16 18 17
f 18 16 10
f 19 24 20
f 20 24 21
f 23 22 21
f 23 21 24
f 24 25 32
f 24 19 25
f 23 32 31
f 23 24 32
f 26 23 30
f 29 27 30
f 29 28 27
f 30 27 26
f 23 31 30
f 28 34 33
f 33 27 28
f 36 35 39
f 39 38 37
f 39 37 36
f 36 43 35
f 35 43 40
f 42 41 40
f 42 40 43
f 45 44 48
f 48 47 46
f 48 46 45
f 45 52 44
f 44 52 49
f 51 50 49
f 51 49 52
f 54 53 57
f 57 56 55
f 57 55 54
f 54 61 53
f 53 61 58
f 60 59 58
f 60 58 61
f 63 62 66
f 66 65 64
f 66 64 63
f 62 63 67
f 67 63 70
f 68 67 70
f 68 70 69
f 72 71 75
f 75 74 73
f 75 73 72
f 72 79 71
f 71 79 76
f 78 77 76
f 78 76 79
f 81 80 84
f 84 83 82
f 84 82 81
f 81 88 80
f 80 88 85
f 87 86 85
f 87 85 88
f 90 89 93
f 93 92 91
f 93 91 90
f 90 97 89
f 89 97 94
f 96 95 94
f 96 94 97
f 99 98 102
f 102 101 100
f 102 100 99
f 98 99 103
f 103 99 106
f 106 104 103
f 104 106 105
f 108 107 111
f 111 110 109
f 111 109 108
f 108 115 107
f 107 115 112
f 114 113 112
f 114 112 115
f 117 116 120
f 120 119 118
f 120 118 117
f 116 117 121
f 121 117 124
f 123 122 121
f 123 121 124
f 126 125 129
f 129 128 127
f 129 127 126
f 126 133 125
f 125 133 130
f 132 131 130
f 132 130 133
f 135 134 138
f 138 137 136
f 138 136 135
f 135 142 134
f 134 142 139
f 141 140 139
f 141 139 142
f 144 143 147
f 147 146 145
f 147 145 144
f 144 151 143
f 143 151 148
f 150 149 148
f 150 148 151
f 153 152 156
f 156 155 154
f 156 154 153
f 153 160 152
f 152 160 157
f 159 158 157
f 159 157 160
f 162 161 165
f 163 165 164
f 165 163 162
f 162 169 161
f 161 169 166
f 168 167 166
f 168 166 169
f 171 170 174
f 174 173 172
f 174 172 171
f 171 178 170
f 170 178 175
f 177 176 175
f 177 175 178
f 180 179 183
f 183 182 181
f 183 181 180
f 180 187 179
f 179 187 184
f 186 185 184
f 186 184 187
f 189 188 192
f 192 191 190
f 192 190 189
f 189 196 188
f 188 196 193
f 195 194 193
f 195 193 196
f 198 197 203
f 198 203 202
f 201 200 198
f 199 198 200
f 201 198 202
f 202 205 204
f 204 201 202
f 206 211 207
f 207 211 208
f 209 208 211
f 209 211 210
f 206 213 211
f 211 212 210
f 212 211 213
f 212 214 221
f 212 215 214
f 212 213 215
f 212 221 220
f 212 220 216
f 216 218 217
f 218 216 219
f 220 219 216
f 225 230 214
f 224 226 225
f 224 227 226
f 230 221 214
f 229 220 221
f 214 224 225
f 224 223 222
f 224 222 228
f 229 228 222
f 230 229 221
f 222 220 229
f 228 227 224
f 223 205 322
f 205 223 321
f 223 322 324
f 204 205 321
f 204 260 323
f 222 223 324
f 254 257 256
f 257 254 323
f 255 254 256
f 324 323 238
f 257 259 258
f 260 257 323
f 257 260 259
f 283 268 204
f 254 249 323
f 268 265 204
f 268 280 271
f 265 268 267
f 270 269 268
f 271 270 268
f 321 29 30
f 260 262 261
f 262 260 265
f 266 265 267
f 263 262 264
f 264 262 265
f 204 265 260
f 313 204 321
f 235 238 237
f 235 324 238
f 235 237 236
f 240 239 238
f 241 240 238
f 235 222 324
f 222 232 231
f 232 222 235
f 234 233 232
f 232 235 234
f 238 323 241
f 249 248 246
f 250 249 251
f 254 253 251
f 252 251 253
f 249 254 251
f 243 242 241
f 244 243 245
f 248 247 246
f 246 245 243
f 241 246 243
f 241 323 246
f 323 249 246
f 303 305 304
f 305 302 204
f 308 305 310
f 305 303 302
f 308 306 305
f 306 308 307
f 310 309 308
f 298 297 299
f 299 297 294
f 299 204 302
f 300 299 302
f 301 300 302
f 310 305 204
f 316 318 317
f 318 316 313
f 30 320 319
f 30 319 318
f 318 313 321
f 313 311 310
f 311 313 312
f 315 314 316
f 313 316 314
f 313 310 204
f 299 294 204
f 278 280 279
f 281 280 283
f 280 278 277
f 280 268 283
f 288 286 283
f 283 282 281
f 277 271 280
f 271 273 272
f 274 273 275
f 277 276 275
f 277 275 273
f 277 273 271
f 288 283 204
f 291 294 292
f 204 291 288
f 292 294 293
f 296 295 297
f 294 297 295
f 286 284 283
f 285 284 286
f 290 289 291
f 286 288 287
f 289 288 291
f 294 291 204
f 318 321 30
f 325 227 326
f 228 326 227
f 327 329 225
f 225 329 230
f 328 229 230
f 328 230 329
f 327 331 329
f 331 325 326
f 330 329 331
f 328 329 330
f 330 331 326
f 320 30 334
f 334 333 332
f 334 332 320
f 336 335 337
f 337 335 340
f 340 339 338
f 340 338 337
f 335 336 343
f 343 342 341
f 343 341 335
f 344 350 345
f 350 349 345
f 345 348 347
f 348 345 349
f 347 346 345
f 350 344 354
f 349 350 351
f 354 353 352
f 352 351 354
f 354 351 350
f 114 438 437
f 436 435 437
f 434 96 435
f 96 434 433
f 96 433 87
f 437 435 105
f 433 431 87
f 104 435 96
f 440 439 441
f 441 443 442
f 441 439 123
f 437 105 114
f 114 105 113
f 105 435 104
f 114 439 438
f 87 95 96
f 114 123 439
f 433 432 431
f 428 427 429
f 430 429 431
f 429 427 69
f 51 425 423
f 423 425 424
f 422 42 423
f 427 425 60
f 426 425 427
f 423 42 51
f 429 78 431
f 429 69 78
f 86 87 78
f 77 78 69
f 78 87 431
f 60 51 59
f 51 60 425
f 51 42 50
f 68 69 427
f 60 68 427
f 455 17 456
f 454 453 455
f 452 451 177
f 452 177 453
f 176 177 451
f 176 451 168
f 455 453 186
f 451 449 168
f 177 186 453
f 457 17 352
f 17 457 16
f 352 353 457
f 17 195 352
f 195 186 194
f 195 17 455
f 186 177 185
f 455 186 195
f 159 448 447
f 446 445 447
f 445 444 141
f 131 132 123
f 132 443 441
f 132 441 123
f 123 114 122
f 447 445 150
f 443 141 444
f 132 141 443
f 448 159 449
f 447 150 159
f 167 168 159
f 158 159 150
f 168 449 159
f 141 132 140
f 141 149 150
f 445 141 150
f 449 451 450
f 398 397 382
f 399 398 400
f 382 396 384
f 394 396 395
f 396 382 397
f 380 400 398
f 402 401 378
f 376 404 403
f 403 402 376
f 402 377 376
f 380 378 400
f 374 376 375
f 374 404 376
f 378 377 402
f 401 400 378
f 404 374 406
f 380 398 382
f 341 332 333
f 341 342 6
f 392 332 388
f 390 388 332
f 332 341 390
f 332 392 391
f 7 390 341
f 389 388 390
f 7 341 6
f 386 388 387
f 392 394 393
f 384 394 385
f 384 383 382
f 380 382 381
f 379 378 380
f 394 392 386
f 384 396 394
f 394 386 385
f 392 388 386
f 416 418 417
f 362 416 364
f 416 415 414
f 414 364 416
f 416 362 418
f 366 414 413
f 418 362 360
f 419 418 420
f 422 41 42
f 422 421 420
f 355 41 422
f 422 420 358
f 360 358 420
f 357 356 358
f 356 355 422
f 359 358 360
f 358 356 422
f 418 360 420
f 361 360 362
f 405 404 406
f 408 410 409
f 408 407 406
f 406 372 408
f 372 406 374
f 370 408 371
f 408 370 410
f 371 408 372
f 373 372 374
f 410 370 369
f 366 412 367
f 411 410 368
f 362 364 363
f 414 366 364
f 364 366 365
f 411 368 412
f 413 412 366
f 368 410 369
f 412 368 367
f 318 459 317
f 317 459 458
f 391 392 458
f 391 458 459
f 316 460 315
f 460 394 315
f 394 460 393
f 312 313 461
f 461 395 396
f 461 396 312
f 310 463 309
f 309 463 462
f 397 398 462
f 397 462 463
f 307 308 464
f 464 399 400
f 464 400 307
f 304 305 465
f 465 401 402
f 465 402 304
f 301 302 466
f 466 403 404
f 466 404 301
f 299 468 298
f 298 468 467
f 405 406 467
f 405 467 468
f 296 297 469
f 469 407 408
f 469 408 296
f 293 294 470
f 470 409 410
f 470 410 293
f 290 291 471
f 471 411 412
f 471 412 290
f 287 288 472
f 472 288 473
f 414 472 473
f 414 473 413
f 285 286 474
f 474 415 416
f 474 416 285
f 282 283 475
f 475 417 418
f 475 418 282
f 279 280 476
f 476 419 420
f 476 420 279
f 276 277 477
f 477 421 422
f 477 422 276
f 217 207 208
f 208 209 216
f 208 216 217
f 32 25 480
f 31 32 478
f 480 479 478
f 480 478 32
f 34 20 21
f 21 22 33
f 21 33 34
f 219 558 557
f 555 557 556
f 219 557 555
f 554 553 555
f 553 552 551
f 559 555 553
f 551 550 549
f 551 549 547
f 555 559 219
f 559 553 551
f 545 547 546
f 548 547 549
f 545 543 541
f 543 545 544
f 543 542 541
f 559 545 541
f 537 539 538
f 539 541 540
f 559 547 545
f 551 547 559
f 539 559 541
f 218 219 560
f 219 559 560
f 559 539 561
f 537 536 535
f 539 537 561
f 561 537 562
f 533 562 537
f 564 563 218
f 563 479 218
f 563 562 565
f 563 566 479
f 563 565 566
f 218 560 564
f 533 537 535
f 479 566 570
f 533 532 531
f 533 535 534
f 529 562 531
f 531 530 529
f 512 565 562
f 562 529 512
f 479 569 478
f 500 567 565
f 529 527 525
f 529 528 527
f 569 479 570
f 527 526 525
f 531 562 533
f 525 524 523
f 521 523 522
f 525 523 516
f 521 518 516
f 518 521 519
f 516 518 517
f 516 514 525
f 516 515 514
f 521 520 519
f 516 523 521
f 514 512 529
f 513 512 514
f 511 510 512
f 510 509 508
f 512 510 508
f 508 507 506
f 506 504 565
f 505 504 506
f 504 503 502
f 565 508 506
f 508 565 512
f 504 500 565
f 502 501 500
f 567 500 498
f 499 498 500
f 498 497 496
f 494 567 498
f 494 568 567
f 494 498 496
f 494 496 495
f 568 494 492
f 493 492 494
f 568 492 490
f 500 504 502
f 490 488 486
f 488 490 489
f 486 488 487
f 490 486 568
f 490 492 491
f 482 484 483
f 485 484 486
f 482 478 568
f 481 478 482
f 482 568 484
f 486 484 568
f 568 478 569
f 525 514 529
f 478 481 571
f 571 481 574
f 574 573 572
f 574 572 571
f 482 483 575
f 575 483 578
f 578 577 576
f 578 576 575
f 579 484 582
f 582 484 485
f 582 581 580
f 582 580 579
f 583 486 586
f 586 486 487
f 586 585 584
f 586 584 583
f 587 488 590
f 590 488 489
f 588 590 589
f 590 588 587
f 490 491 591
f 591 491 594
f 594 593 592
f 594 592 591
f 492 493 595
f 595 493 598
f 598 597 596
f 598 596 595
f 494 495 599
f 599 495 602
f 602 601 600
f 602 600 599
f 496 497 603
f 603 497 606
f 605 604 603
f 605 603 606
f 498 499 607
f 607 499 610
f 610 609 608
f 610 608 607
f 500 501 611
f 611 501 614
f 614 613 612
f 614 612 611
f 615 502 618
f 618 502 503
f 618 617 616
f 618 616 615
f 504 505 619
f 619 505 622
f 622 621 620
f 622 620 619
f 623 506 626
f 626 506 507
f 626 625 624
f 626 624 623
f 627 508 630
f 630 508 509
f 630 629 628
f 630 628 627
f 631 510 634
f 634 510 511
f 634 633 632
f 634 632 631
f 635 512 638
f 638 512 513
f 638 637 636
f 638 636 635
f 639 514 642
f 642 514 515
f 641 640 639
f 641 639 642
f 643 516 646
f 646 516 517
f 646 645 644
f 646 644 643
f 647 518 650
f 650 518 519
f 650 649 648
f 650 648 647
f 520 521 651
f 651 521 654
f 653 652 651
f 653 651 654
f 522 523 655
f 655 523 658
f 657 656 655
f 657 655 658
f 524 525 659
f 659 525 662
f 660 659 662
f 660 662 661
f 526 527 663
f 663 527 666
f 665 664 663
f 665 663 666
f 528 529 667
f 667 529 670
f 669 668 667
f 669 667 670
f 530 531 671
f 671 531 674
f 673 672 671
f 673 671 674
f 532 533 675
f 675 533 678
f 677 676 675
f 677 675 678
f 535 682 534
f 534 682 679
f 681 680 679
f 681 679 682
f 536 537 683
f 683 537 686
f 685 684 683
f 685 683 686
f 539 690 538
f 538 690 687
f 689 688 687
f 689 687 690
f 541 694 540
f 540 694 691
f 693 692 691
f 693 691 694
f 543 698 542
f 542 698 695
f 696 695 698
f 696 698 697
f 545 702 544
f 544 702 699
f 701 700 699
f 701 699 702
f 547 706 546
f 546 706 703
f 705 704 703
f 705 703 706
f 549 710 548
f 548 710 707
f 709 708 707
f 709 707 710
f 550 551 711
f 711 551 714
f 713 712 711
f 713 711 714
f 552 553 715
f 715 553 718
f 717 716 715
f 717 715 718
f 554 555 719
f 719 555 722
f 721 720 719
f 721 719 722
f 557 726 556
f 556 726 723
f 725 724 723
f 725 723 726
f 219 730 558
f 558 730 727
f 729 728 727
f 729 727 730
f 731 560 732
f 732 559 733
f 559 732 560
f 563 734 736
f 736 735 562
f 736 562 563
f 737 566 738
f 738 565 739
f 565 738 566
f 569 740 742
f 742 741 568
f 742 568 569
f 197 198 322
f 322 198 324
f 199 323 324
f 199 324 198
f 731 732 743
f 743 732 736
f 735 736 732
f 734 743 736
f 732 733 735
f 737 738 744
f 744 738 742
f 739 741 742
f 740 744 742
f 742 738 739
f 8 9 747
f 747 746 745
f 747 745 8
f 13 346 347
f 190 347 348
f 190 13 347
f 191 181 190
f 181 182 724
f 720 172 173
f 190 181 728
f 182 172 724
f 13 728 729
f 13 190 728
f 728 724 725
f 13 14 346
f 720 721 172
f 728 181 724
f 720 163 717
f 172 721 724
f 717 163 716
f 716 163 154
f 163 720 173
f 163 164 154
f 712 154 145
f 145 154 155
f 146 708 145
f 146 136 708
f 128 118 127
f 109 118 119
f 704 127 700
f 137 127 136
f 704 136 127
f 712 708 709
f 708 712 145
f 705 136 704
f 708 136 705
f 713 716 712
f 692 109 110
f 118 109 696
f 109 693 696
f 101 91 100
f 100 692 110
f 127 118 700
f 118 696 700
f 712 716 154
f 701 704 700
f 700 696 697
f 693 109 692
f 684 688 91
f 100 91 688
f 91 92 82
f 83 73 680
f 680 82 83
f 91 82 684
f 74 64 73
f 688 692 100
f 688 689 692
f 684 685 688
f 684 680 681
f 676 677 73
f 684 82 680
f 676 64 672
f 73 677 680
f 673 676 672
f 64 65 672
f 64 676 73
f 65 55 672
f 668 55 46
f 46 55 56
f 37 664 46
f 668 46 664
f 46 47 37
f 38 660 37
f 795 794 656
f 664 37 661
f 795 660 38
f 664 665 668
f 660 661 37
f 668 669 55
f 652 656 793
f 657 795 656
f 794 793 656
f 652 793 791
f 653 656 652
f 791 790 652
f 657 660 795
f 792 791 793
f 790 789 652
f 55 669 672
f 645 649 786
f 645 648 649
f 644 645 641
f 649 788 786
f 649 652 788
f 787 786 788
f 784 645 786
f 784 641 645
f 784 786 785
f 641 784 782
f 788 652 789
f 640 641 637
f 780 636 637
f 781 637 782
f 637 641 782
f 780 633 636
f 778 629 633
f 629 776 628
f 629 632 633
f 779 633 780
f 781 780 637
f 784 783 782
f 776 629 778
f 633 779 778
f 625 628 776
f 775 625 776
f 621 624 625
f 778 777 776
f 775 774 625
f 621 774 773
f 621 625 774
f 620 621 772
f 772 621 773
f 613 617 770
f 772 617 620
f 613 616 617
f 612 613 768
f 617 772 771
f 771 770 617
f 770 769 768
f 766 609 768
f 609 612 768
f 766 768 767
f 768 613 770
f 608 609 605
f 601 604 605
f 600 601 762
f 605 764 601
f 765 764 605
f 762 601 764
f 761 597 762
f 597 600 762
f 763 762 764
f 605 766 765
f 609 766 605
f 596 597 593
f 592 593 589
f 758 760 759
f 593 597 760
f 758 589 593
f 589 756 585
f 581 584 585
f 585 588 589
f 756 589 758
f 593 760 758
f 597 761 760
f 754 585 756
f 754 756 755
f 581 585 754
f 753 581 754
f 580 581 752
f 758 757 756
f 753 752 581
f 750 577 752
f 580 752 577
f 576 577 750
f 751 750 752
f 339 573 748
f 339 572 573
f 338 339 746
f 573 750 749
f 573 576 750
f 749 748 573
f 748 745 746
f 746 3 4
f 746 4 338
f 748 746 339
f 797 796 798
f 798 748 749
f 798 749 797
f 800 799 801
f 801 750 751
f 801 751 800
f 803 802 804
f 804 752 753
f 804 753 803
f 806 805 807
f 807 754 755
f 807 755 806
f 809 808 810
f 810 756 757
f 810 757 809
f 812 811 813
f 813 758 759
f 813 759 812
f 815 814 816
f 816 760 761
f 816 761 815
f 818 817 819
f 819 762 763
f 819 763 818
f 821 820 822
f 822 764 765
f 822 765 821
f 824 823 825
f 825 766 767
f 825 767 824
f 827 826 828
f 828 768 769
f 828 769 827
f 830 829 831
f 831 770 771
f 831 771 830
f 833 832 834
f 834 772 773
f 834 773 833
f 836 835 837
f 837 774 775
f 837 775 836
f 839 838 840
f 840 776 777
f 840 777 839
f 842 841 843
f 843 778 779
f 843 779 842
f 845 844 846
f 846 780 781
f 846 781 845
f 848 847 849
f 849 782 783
f 849 783 848
f 851 850 852
f 852 794 795
f 852 795 851
f 850 851 853
f 853 851 856
f 855 854 853
f 855 853 856
f 854 855 857
f 857 784 785
f 857 785 854
f 859 858 860
f 793 860 792
f 860 793 859
f 858 859 861
f 861 859 864
f 863 862 861
f 863 861 864
f 862 863 865
f 865 786 787
f 865 787 862
f 867 866 868
f 868 790 791
f 868 791 867
f 867 872 866
f 866 872 869
f 871 870 869
f 871 869 872
f 870 871 873
f 873 788 789
f 873 789 870
f 222 231 874
f 874 455 456
f 874 456 222
f 232 233 875
f 875 233 876
f 876 453 454
f 876 454 875
f 877 796 878
f 878 796 797
f 878 389 390
f 878 390 877
f 235 236 879
f 452 879 451
f 879 452 235
f 799 800 880
f 880 800 881
f 388 881 387
f 881 388 880
f 238 239 882
f 882 449 450
f 882 450 238
f 802 803 883
f 883 803 884
f 884 385 386
f 884 386 883
f 241 242 885
f 885 447 448
f 885 448 241
f 805 806 886
f 886 806 887
f 887 383 384
f 887 384 886
f 243 244 888
f 888 244 889
f 889 445 446
f 889 446 888
f 808 809 890
f 890 809 891
f 891 381 382
f 891 382 890
f 246 247 892
f 892 443 444
f 892 444 246
f 811 812 893
f 893 812 894
f 894 379 380
f 894 380 893
f 249 250 895
f 895 441 442
f 895 442 249
f 814 815 896
f 896 815 897
f 897 377 378
f 897 378 896
f 251 252 898
f 898 252 899
f 899 439 440
f 899 440 898
f 900 817 901
f 901 817 818
f 901 375 376
f 901 376 900
f 254 255 902
f 902 437 438
f 902 438 254
f 903 820 904
f 904 820 821
f 904 373 374
f 904 374 903
f 257 258 905
f 436 905 435
f 905 436 257
f 823 824 906
f 906 824 907
f 372 907 371
f 907 372 906
f 260 261 908
f 908 433 434
f 908 434 260
f 909 826 910
f 910 826 827
f 369 370 909
f 369 909 910
f 262 263 911
f 911 263 912
f 432 912 431
f 912 432 911
f 829 830 913
f 913 830 914
f 368 914 367
f 914 368 913
f 265 266 915
f 915 429 430
f 915 430 265
f 832 833 916
f 916 833 917
f 917 365 366
f 917 366 916
f 268 269 918
f 918 427 428
f 918 428 268
f 835 836 919
f 919 836 920
f 920 363 364
f 920 364 919
f 271 272 921
f 921 425 426
f 921 426 271
f 922 838 923
f 923 838 839
f 361 362 922
f 361 922 923
f 273 274 924
f 924 274 925
f 925 423 424
f 925 424 924
f 841 842 926
f 926 842 927
f 927 359 360
f 927 360 926
f 928 844 929
f 929 844 845
f 929 357 358
f 929 358 928
f 930 847 931
f 931 847 848
f 931 355 356
f 931 356 930
f 206 207 213
f 213 207 217
f 217 218 932
f 932 933 217
f 214 215 933
f 213 933 215
f 214 933 224
f 217 933 213
f 19 935 25
f 933 938 224
f 935 934 25
f 932 218 934
f 936 935 19
f 28 19 20
f 479 480 934
f 934 218 479
f 28 20 34
f 937 223 224
f 223 937 321
f 937 224 938
f 29 321 936
f 29 936 28
f 936 321 937
f 19 28 936
f 934 480 25
f 943 933 940
f 939 943 940
f 932 942 940
f 941 940 942
f 932 940 933
f 943 939 945
f 933 943 938
f 945 944 937
f 937 938 945
f 945 938 943
f 937 944 947
f 947 946 936
f 947 936 937
f 948 949 946
f 936 946 949
f 936 949 935
f 949 948 951
f 935 949 951
f 951 950 934
f 951 934 935
f 941 942 950
f 934 950 942
f 934 942 932
f 948 940 951
f 939 948 945
f 948 939 940
f 945 948 947
f 940 941 950
f 950 951 940
f 944 945 947
f 947 948 946
f 327 225 331
f 331 225 226
f 325 226 227
f 226 325 331
f 733 559 561
f 561 562 735
f 561 735 733
f 739 565 567
f 567 568 741
f 567 741 739
f 323 199 200
f 200 201 204
f 200 204 323
f 345 346 15
f 345 10 344
f 10 345 15
f 344 10 354
f 346 14 15
f 16 354 10
f 354 457 353
f 457 354 16
f 2 337 5
f 336 2 343
f 2 336 337
f 337 338 4
f 4 5 337
f 343 6 342
f 343 2 6
f 219 12 730
f 12 220 11
f 220 12 219
f 11 220 18
f 12 13 730
f 729 730 13
f 222 18 220
f 18 456 17
f 456 18 222
f 340 478 571
f 31 478 335
f 340 335 478
f 31 335 30
f 571 572 340
f 339 340 572
f 341 30 335
f 334 30 341
f 333 334 341
f 231 232 874
f 874 232 875
f 875 454 455
f 875 455 874
f 318 319 459
f 459 319 332
f 332 391 459
f 332 319 320
f 558 727 557
f 557 727 726
f 728 725 726
f 728 726 727
f 482 575 481
f 481 575 574
f 576 573 574
f 576 574 575
f 233 234 876
f 876 234 452
f 452 453 876
f 452 234 235
f 316 317 460
f 460 317 458
f 458 392 393
f 458 393 460
f 556 723 555
f 555 723 722
f 724 721 722
f 724 722 723
f 578 484 579
f 578 579 580
f 484 578 483
f 578 580 577
f 236 237 879
f 879 237 450
f 450 451 879
f 450 237 238
f 313 314 461
f 461 314 394
f 394 395 461
f 394 314 315
f 718 554 719
f 718 719 720
f 718 553 554
f 717 718 720
f 582 486 583
f 582 583 584
f 582 485 486
f 581 582 584
f 239 240 882
f 882 240 448
f 448 449 882
f 448 240 241
f 310 311 463
f 463 311 396
f 396 397 463
f 396 311 312
f 714 552 715
f 713 715 716
f 714 551 552
f 713 714 715
f 488 587 487
f 487 587 586
f 588 585 586
f 588 586 587
f 242 243 885
f 885 243 888
f 888 446 447
f 888 447 885
f 308 309 464
f 464 309 462
f 462 398 399
f 462 399 464
f 550 711 549
f 549 711 710
f 709 710 711
f 709 711 712
f 490 591 489
f 489 591 590
f 592 589 590
f 592 590 591
f 244 245 889
f 889 245 444
f 444 445 889
f 444 245 246
f 305 306 465
f 465 306 400
f 400 401 465
f 400 306 307
f 547 548 707
f 706 707 708
f 707 706 547
f 706 708 705
f 594 492 595
f 594 595 596
f 492 594 491
f 594 596 593
f 247 248 892
f 892 248 442
f 442 443 892
f 442 248 249
f 302 303 466
f 466 303 402
f 402 403 466
f 402 303 304
f 546 703 545
f 545 703 702
f 704 701 702
f 704 702 703
f 494 599 493
f 493 599 598
f 600 597 598
f 600 598 599
f 250 251 895
f 895 251 898
f 898 440 441
f 898 441 895
f 299 300 468
f 468 300 404
f 404 405 468
f 404 300 301
f 543 544 698
f 698 544 699
f 697 698 699
f 697 699 700
f 495 496 602
f 602 496 603
f 601 602 603
f 601 603 604
f 252 253 899
f 899 253 438
f 438 439 899
f 438 253 254
f 469 297 467
f 467 297 298
f 407 467 406
f 467 407 469
f 542 695 541
f 541 695 694
f 696 693 694
f 696 694 695
f 606 498 607
f 605 607 608
f 606 497 498
f 605 606 607
f 255 256 902
f 902 256 436
f 436 437 902
f 436 256 257
f 294 295 470
f 470 295 408
f 408 409 470
f 408 295 296
f 690 540 691
f 689 691 692
f 690 539 540
f 689 690 691
f 611 612 609
f 500 611 610
f 610 499 500
f 609 610 611
f 258 259 905
f 905 259 434
f 434 435 905
f 434 259 260
f 291 292 471
f 471 292 410
f 410 411 471
f 410 292 293
f 686 538 687
f 685 687 688
f 686 537 538
f 685 686 687
f 501 502 614
f 614 502 615
f 616 613 614
f 616 614 615
f 261 262 908
f 908 262 911
f 911 432 433
f 911 433 908
f 288 289 473
f 473 289 412
f 412 413 473
f 412 289 290
f 535 536 682
f 682 536 683
f 684 681 682
f 684 682 683
f 504 619 503
f 503 619 618
f 617 618 619
f 617 619 620
f 263 264 912
f 912 264 430
f 430 431 912
f 430 264 265
f 286 287 474
f 474 287 472
f 472 414 415
f 472 415 474
f 533 534 679
f 678 679 680
f 679 678 533
f 678 680 677
f 506 623 505
f 505 623 622
f 621 622 623
f 621 623 624
f 266 267 915
f 915 267 428
f 428 429 915
f 428 267 268
f 283 284 475
f 475 284 416
f 416 417 475
f 416 284 285
f 532 675 531
f 531 675 674
f 673 674 675
f 673 675 676
f 626 508 627
f 626 627 628
f 508 626 507
f 626 628 625
f 269 270 918
f 918 270 426
f 426 427 918
f 426 270 271
f 280 281 476
f 476 281 418
f 418 419 476
f 418 281 282
f 530 671 529
f 529 671 670
f 672 669 670
f 672 670 671
f 509 510 630
f 630 510 631
f 632 629 630
f 632 630 631
f 272 273 921
f 921 273 924
f 924 424 425
f 924 425 921
f 277 278 477
f 477 278 420
f 420 421 477
f 420 278 279
f 527 528 666
f 666 528 667
f 668 665 666
f 668 666 667
f 634 512 635
f 634 635 636
f 512 634 511
f 634 636 633
f 274 275 925
f 925 275 422
f 925 422 423
f 422 275 276
f 526 663 525
f 525 663 662
f 664 661 662
f 664 662 663
f 514 639 513
f 513 639 638
f 640 637 638
f 640 638 639
f 658 524 659
f 657 659 660
f 658 523 524
f 657 658 659
f 516 643 515
f 515 643 642
f 644 641 642
f 644 642 643
f 654 522 655
f 653 655 656
f 654 521 522
f 653 654 655
f 518 647 517
f 517 647 646
f 648 645 646
f 648 646 647
f 650 520 651
f 650 651 652
f 650 519 520
f 649 650 652
f 197 322 203
f 203 205 202
f 205 203 322
f 731 743 560
f 560 743 564
f 734 563 564
f 734 564 743
f 737 744 566
f 566 744 570
f 740 569 570
f 740 570 744
f 229 328 330
f 330 326 228
f 330 228 229
f 210 212 216
f 216 209 210
f 22 23 26
f 26 27 33
f 26 33 22
f 9 1 747
f 747 3 746
f 3 747 1
f 349 189 348
f 189 349 351
f 190 348 189
f 351 352 195
f 195 196 351
f 351 196 189
f 796 8 798
f 8 796 877
f 745 748 798
f 798 8 745
f 877 390 7
f 7 8 877
f 188 180 192
f 180 188 193
f 181 191 192
f 192 180 181
f 193 194 186
f 186 187 193
f 187 180 193
f 799 797 801
f 797 799 880
f 749 750 801
f 801 797 749
f 880 388 389
f 389 878 880
f 878 797 880
f 179 171 183
f 171 179 184
f 172 182 183
f 183 171 172
f 184 185 177
f 177 178 184
f 178 171 184
f 802 800 804
f 800 802 883
f 751 752 804
f 804 800 751
f 883 386 387
f 387 881 883
f 881 800 883
f 170 162 174
f 162 170 175
f 163 173 174
f 174 162 163
f 175 176 168
f 168 169 175
f 169 162 175
f 805 803 807
f 803 805 886
f 753 754 807
f 807 803 753
f 886 384 385
f 385 884 886
f 884 803 886
f 161 153 165
f 153 161 166
f 154 164 165
f 165 153 154
f 166 167 159
f 159 160 166
f 160 153 166
f 808 806 810
f 806 808 890
f 755 756 810
f 810 806 755
f 890 382 887
f 383 887 382
f 887 806 890
f 152 144 156
f 144 152 157
f 145 155 156
f 156 144 145
f 157 158 150
f 150 151 157
f 151 144 157
f 811 809 813
f 809 811 893
f 757 758 813
f 813 809 757
f 893 380 381
f 381 891 893
f 891 809 893
f 143 135 147
f 135 143 148
f 136 146 147
f 147 135 136
f 148 149 141
f 141 142 148
f 142 135 148
f 814 812 816
f 812 814 896
f 759 760 816
f 816 812 759
f 896 378 379
f 379 894 896
f 894 812 896
f 134 126 138
f 126 134 139
f 127 137 138
f 138 126 127
f 139 140 132
f 132 133 139
f 133 126 139
f 817 815 819
f 815 817 900
f 761 762 819
f 819 815 761
f 900 376 897
f 377 897 376
f 897 815 900
f 125 117 129
f 117 125 130
f 118 128 129
f 129 117 118
f 130 131 123
f 123 124 130
f 124 117 130
f 820 818 822
f 818 820 903
f 763 764 822
f 822 818 763
f 903 374 901
f 375 901 374
f 901 818 903
f 116 108 120
f 108 116 121
f 109 119 120
f 120 108 109
f 121 122 114
f 114 115 121
f 115 108 121
f 823 821 825
f 821 823 906
f 765 766 825
f 825 821 765
f 906 372 373
f 373 904 906
f 904 821 906
f 107 99 111
f 99 107 112
f 100 110 111
f 111 99 100
f 112 113 106
f 105 106 113
f 106 99 112
f 826 824 828
f 824 826 909
f 767 768 828
f 828 824 767
f 909 370 371
f 371 907 909
f 907 824 909
f 98 90 102
f 90 98 103
f 91 101 102
f 102 90 91
f 103 104 96
f 96 97 103
f 97 90 103
f 829 827 831
f 827 829 913
f 769 770 831
f 831 827 769
f 913 368 369
f 369 910 913
f 910 827 913
f 89 81 93
f 81 89 94
f 82 92 93
f 93 81 82
f 94 95 88
f 87 88 95
f 88 81 94
f 832 830 834
f 830 832 916
f 771 772 834
f 834 830 771
f 916 366 367
f 367 914 916
f 914 830 916
f 80 72 84
f 72 80 85
f 73 83 84
f 84 72 73
f 85 86 78
f 78 79 85
f 79 72 85
f 835 833 837
f 833 835 919
f 773 774 837
f 837 833 773
f 919 364 365
f 365 917 919
f 917 833 919
f 71 63 75
f 63 71 76
f 64 74 75
f 75 63 64
f 76 77 69
f 69 70 76
f 70 63 76
f 838 836 840
f 836 838 922
f 775 776 840
f 840 836 775
f 922 362 363
f 363 920 922
f 920 836 922
f 62 54 66
f 54 62 67
f 55 65 66
f 66 54 55
f 67 68 60
f 60 61 67
f 61 54 67
f 841 839 843
f 839 841 926
f 777 778 843
f 843 839 777
f 926 360 361
f 361 923 926
f 923 839 926
f 53 45 57
f 45 53 58
f 46 56 57
f 57 45 46
f 58 59 51
f 51 52 58
f 52 45 58
f 844 842 846
f 842 844 928
f 779 780 846
f 846 842 779
f 928 358 359
f 359 927 928
f 927 842 928
f 44 36 48
f 36 44 49
f 37 47 48
f 48 36 37
f 49 50 43
f 42 43 50
f 43 36 49
f 847 845 849
f 845 847 930
f 781 782 849
f 849 845 781
f 930 356 357
f 357 929 930
f 929 845 930
f 855 848 857
f 855 856 35
f 848 855 40
f 35 851 39
f 851 35 856
f 39 795 38
f 855 35 40
f 40 41 355
f 355 931 40
f 39 851 795
f 783 784 857
f 848 783 857
f 848 40 931
f 853 854 863
f 863 854 785
f 853 863 864
f 853 859 850
f 859 853 864
f 850 859 852
f 865 785 786
f 785 865 863
f 852 793 794
f 852 859 793
f 861 862 871
f 871 862 787
f 861 871 872
f 858 872 867
f 872 858 861
f 858 867 860
f 873 787 788
f 787 873 871
f 860 791 792
f 860 867 791
f 868 866 869
f 868 869 870
f 868 789 790
f 789 868 870
