v 1.250000 1.250000 2.750000
v 1.250000 1.250000 3.250000
v 1.250000 5.750000 3.250000
v 1.250000 5.750000 2.750000
v 1.250000 5.250000 2.750000
v 6.750000 1.250000 2.750000
v 6.750000 1.250000 3.250000
v 6.250000 1.250000 3.250000
v -4.750000 -3.750000 4.750000
v -4.750000 -3.750000 4.250000
v -4.750000 5.750000 4.250000
v -4.750000 5.750000 4.750000
v -4.750000 5.250000 4.750000
v 6.250000 -3.750000 4.750000
v 6.750000 -3.750000 4.750000
v 6.750000 -3.750000 4.250000
v 6.250000 -3.750000 4.250000
v -5.250000 -4.250000 4.250000
v -5.250000 -4.250000 3.750000
v -5.250000 5.750000 3.750000
v -5.250000 5.750000 4.250000
v -5.250000 5.250000 4.250000
v 6.250000 -4.250000 4.250000
v 6.750000 -4.250000 4.250000
v 6.750000 -4.250000 3.750000
v 6.250000 -4.250000 3.750000
v -6.250000 -5.250000 3.750000
v -6.250000 -5.250000 3.250000
v -6.250000 5.750000 3.250000
v -6.250000 5.750000 3.750000
v -6.250000 5.250000 3.750000
v 6.250000 -5.250000 3.750000
v 6.750000 -5.250000 3.750000
v 6.750000 -5.250000 3.250000
v 6.250000 -5.250000 3.250000
v -6.750000 -5.750000 -0.250000
v -6.750000 4.750000 -0.250000
v -6.750000 5.250000 -0.250000
v -6.750000 5.250000 2.250000
v -6.750000 5.250000 2.750000
v -6.750000 5.750000 2.750000
v -6.750000 5.750000 3.250000
v -6.750000 -5.750000 3.250000
v -6.750000 -5.750000 2.750000
v 6.250000 -5.750000 3.250000
v 6.750000 -5.750000 3.250000
v 6.750000 -5.750000 -0.250000
v 6.250000 -5.750000 -0.250000
v 6.750000 -1.250000 4.750000
v 6.750000 -1.250000 4.250000
v 6.750000 -0.750000 4.250000
v 6.750000 -0.750000 3.750000
v 6.750000 0.250000 3.750000
v 6.750000 0.250000 3.250000
v 6.750000 0.750000 2.750000
v 6.750000 0.750000 -0.250000
v 6.750000 0.250000 -0.250000
v 0.750000 0.750000 -0.250000
v 0.750000 0.750000 2.750000
v 0.750000 0.750000 2.250000
v 0.750000 4.750000 2.750000
v 0.750000 5.250000 2.750000
v 0.750000 5.250000 -0.250000
v 0.750000 4.750000 -0.250000
v -0.250000 5.250000 2.750000
v -0.250000 5.250000 3.250000
v -1.250000 5.250000 3.250000
v -1.250000 5.250000 3.750000
v -1.750000 5.250000 3.750000
v -1.750000 5.250000 4.250000
v -2.750000 5.250000 4.250000
v -2.750000 5.250000 4.750000
v -3.250000 5.250000 4.750000
v -3.250000 5.250000 4.250000
v -3.750000 5.250000 4.250000
v -3.750000 5.250000 3.750000
v -4.750000 5.250000 3.750000
v -4.750000 5.250000 3.250000
v -5.750000 5.250000 3.250000
v -5.750000 5.250000 2.750000
v -0.250000 5.750000 2.750000
v -0.250000 5.750000 3.250000
v -1.250000 5.750000 3.250000
v -1.250000 5.750000 3.750000
v -1.750000 5.750000 3.750000
v -1.750000 5.750000 4.250000
v -2.750000 5.750000 4.250000
v -2.750000 5.750000 4.750000
v -3.250000 5.750000 4.750000
v -3.250000 5.750000 4.250000
v -3.750000 5.750000 4.250000
v -3.750000 5.750000 3.750000
v -4.750000 5.750000 3.750000
v -4.750000 5.750000 3.250000
v -5.750000 5.750000 3.250000
v -5.750000 5.750000 2.750000
v -6.250000 5.750000 2.750000
v -5.250000 5.750000 3.250000
v -4.250000 5.750000 3.750000
v -2.250000 5.750000 4.250000
v -0.750000 5.750000 3.250000
v 0.250000 5.750000 3.250000
v 0.250000 5.750000 3.750000
v -0.250000 5.750000 3.750000
v -0.250000 5.750000 4.250000
v -1.250000 5.750000 4.250000
v -1.250000 5.750000 4.750000
v -2.250000 5.750000 4.750000
v -2.250000 5.750000 5.250000
v -3.750000 5.750000 5.250000
v -3.750000 5.750000 4.750000
v 0.250000 0.250000 3.250000
v 0.250000 0.250000 3.750000
v 0.250000 5.250000 3.250000
v -0.250000 -0.750000 3.750000
v -0.250000 -0.750000 4.250000
v -0.250000 5.250000 3.750000
v -1.250000 -1.250000 4.250000
v -1.250000 -1.250000 4.750000
v -1.250000 5.250000 4.250000
v -3.750000 -2.750000 5.250000
v -3.750000 -2.750000 4.750000
v -3.750000 5.250000 5.250000
v -2.750000 -2.750000 5.250000
v -2.250000 -2.750000 5.250000
v -2.250000 -2.750000 4.750000
v -2.750000 -2.750000 4.750000
v -2.250000 5.250000 4.750000
v 6.250000 0.250000 3.250000
v 6.250000 0.250000 3.750000
v 6.250000 -0.750000 3.750000
v 6.250000 -0.750000 4.250000
v 6.250000 -1.250000 4.250000
v 6.250000 -1.250000 4.750000
o Outer Shell
f 2 1 5
f 5 4 3
f 5 3 2
f 1 2 8
f 6 8 7
f 8 6 1
f 10 9 13
f 13 12 11
f 13 11 10
f 9 10 14
f 14 10 17
f 15 14 17
f 15 17 16
f 19 18 22
f 20 22 21
f 22 20 19
f 19 26 18
f 18 26 23
f 25 24 23
f 25 23 26
f 28 27 31
f 31 30 29
f 31 29 28
f 28 35 27
f 27 35 32
f 34 33 32
f 34 32 35
f 37 44 39
f 37 36 44
f 44 43 40
f 40 42 41
f 42 40 43
f 38 37 39
f 39 44 40
f 44 36 48
f 43 44 45
f 48 47 46
f 46 45 48
f 48 45 44
f 25 47 57
f 55 57 56
f 25 57 52
f 16 25 52
f 34 46 47
f 25 33 34
f 24 25 16
f 34 47 25
f 54 52 57
f 54 55 7
f 7 55 6
f 54 53 52
f 16 50 15
f 16 52 50
f 51 50 52
f 50 49 15
f 57 55 54
f 58 60 56
f 55 56 60
f 55 60 59
f 60 58 64
f 59 60 61
f 64 63 62
f 62 61 64
f 64 61 60
f 39 40 80
f 78 80 79
f 39 80 38
f 63 38 67
f 78 38 80
f 67 78 76
f 76 78 77
f 74 76 75
f 38 78 67
f 74 73 72
f 72 71 74
f 71 69 76
f 69 71 70
f 69 68 67
f 67 76 69
f 66 65 67
f 65 62 63
f 67 65 63
f 76 74 71
f 81 65 66
f 66 82 81
f 67 68 84
f 84 83 67
f 85 69 70
f 70 86 85
f 71 72 88
f 88 87 71
f 74 90 89
f 89 73 74
f 76 92 75
f 91 75 92
f 78 94 93
f 93 77 78
f 80 96 79
f 95 79 96
f 41 42 97
f 97 29 95
f 29 97 42
f 95 29 30
f 97 95 96
f 20 21 11
f 30 20 95
f 95 20 98
f 93 11 99
f 94 20 93
f 98 20 94
f 20 11 93
f 11 91 99
f 11 12 91
f 91 92 99
f 90 91 111
f 90 111 89
f 12 111 91
f 111 110 89
f 88 89 109
f 108 100 87
f 87 88 108
f 109 108 88
f 86 107 106
f 107 86 108
f 85 86 84
f 108 86 100
f 89 110 109
f 84 86 106
f 83 84 101
f 104 82 101
f 81 82 102
f 101 84 104
f 105 104 84
f 104 103 102
f 102 3 4
f 102 4 81
f 104 102 82
f 84 106 105
f 113 112 114
f 114 102 103
f 114 103 113
f 116 115 117
f 117 104 105
f 117 105 116
f 119 118 120
f 120 106 107
f 120 107 119
f 122 121 123
f 123 110 111
f 123 111 122
f 122 127 121
f 121 127 124
f 125 124 127
f 125 127 126
f 125 126 128
f 128 108 109
f 128 109 125
f 112 113 129
f 129 113 130
f 130 53 54
f 130 54 129
f 115 116 131
f 131 116 132
f 52 132 51
f 132 52 131
f 133 118 134
f 134 118 119
f 49 50 133
f 49 133 134
f 58 36 37
f 36 58 48
f 47 48 57
f 64 37 38
f 63 64 38
f 58 56 57
f 58 57 48
f 64 58 37
f 59 61 1
f 1 61 5
f 59 1 55
f 65 81 62
f 62 4 5
f 4 62 81
f 6 55 1
f 5 61 62
f 40 41 97
f 97 96 80
f 97 80 40
f 79 95 98
f 98 94 78
f 98 78 79
f 67 83 101
f 101 82 66
f 101 66 67
f 77 93 99
f 99 92 76
f 99 76 77
f 69 85 68
f 84 68 85
f 75 91 90
f 90 74 75
f 71 87 100
f 100 86 70
f 100 70 71
f 73 89 88
f 88 72 73
f 43 28 42
f 28 43 45
f 29 42 28
f 45 46 34
f 34 35 45
f 45 35 28
f 112 2 114
f 2 112 129
f 3 102 114
f 114 2 3
f 129 54 7
f 7 8 129
f 8 2 129
f 27 19 31
f 19 27 32
f 20 30 31
f 31 19 20
f 32 33 25
f 25 26 32
f 26 19 32
f 115 131 113
f 113 117 115
f 103 117 113
f 113 131 130
f 52 53 130
f 117 103 104
f 130 131 52
f 18 10 22
f 10 18 23
f 11 21 22
f 22 10 11
f 23 24 16
f 16 17 23
f 17 10 23
f 118 116 120
f 116 118 133
f 105 106 120
f 120 116 105
f 133 50 51
f 51 132 133
f 132 116 133
f 126 119 128
f 126 127 9
f 119 126 14
f 9 122 13
f 122 9 127
f 13 111 12
f 126 9 14
f 14 15 134
f 49 134 15
f 13 122 111
f 107 108 128
f 119 107 128
f 119 14 134
f 124 125 123
f 121 124 123
f 123 109 110
f 109 123 125
