v -6.150000 0.350000 4.400000
v -6.150000 0.350000 4.300000
v -6.150000 0.550000 4.300000
v -6.150000 0.550000 4.400000
v -6.050000 0.550000 4.300000
v -6.050000 0.350000 4.300000
v -6.150000 0.350000 4.200000
v -6.150000 0.350000 4.100000
v -6.150000 0.550000 4.100000
v -6.150000 0.550000 4.200000
v -6.050000 0.550000 4.100000
v -6.050000 0.350000 4.100000
v 5.850000 0.150000 3.900000
v 5.850000 0.250000 3.900000
v 5.850000 0.250000 4.000000
v 5.850000 0.350000 4.200000
v 5.850000 0.350000 4.000000
v 5.850000 0.450000 4.200000
v 5.850000 0.450000 4.300000
v 5.850000 0.350000 4.300000
v 5.850000 -0.250000 3.900000
v 5.850000 -0.250000 3.800000
v 5.850000 0.150000 3.800000
v 5.850000 0.250000 4.500000
v 5.850000 0.350000 4.500000
v 5.850000 -0.350000 4.000000
v 5.850000 -0.350000 3.900000
v 5.850000 0.050000 4.600000
v 5.850000 0.250000 4.600000
v 5.850000 -0.350000 4.400000
v 5.850000 -0.050000 4.700000
v 5.850000 0.050000 4.700000
v 5.850000 -0.050000 4.600000
v 5.850000 -0.250000 4.500000
v 5.850000 -0.450000 4.400000
v 5.850000 -0.450000 4.000000
v 5.850000 -0.250000 4.600000
v 5.850000 -0.350000 4.500000
v 6.050000 0.150000 3.800000
v 6.050000 -0.250000 3.800000
v -6.550000 5.450000 3.400000
v -6.550000 5.550000 3.100000
v -6.550000 5.550000 3.400000
v -6.550000 5.250000 3.200000
v -6.550000 5.250000 3.100000
v -6.550000 5.150000 3.300000
v -6.550000 5.150000 3.200000
v -6.550000 5.250000 3.500000
v -6.550000 5.450000 3.500000
v -6.550000 4.950000 3.400000
v -6.550000 4.950000 3.300000
v -6.550000 5.050000 3.600000
v -6.550000 5.250000 3.600000
v -6.550000 4.950000 3.700000
v -6.550000 5.050000 3.700000
v -6.550000 4.750000 3.500000
v -6.550000 4.750000 3.400000
v -6.550000 4.550000 3.600000
v -6.550000 4.550000 3.500000
v -6.550000 4.650000 3.500000
v -6.550000 4.750000 3.800000
v -6.550000 4.950000 3.800000
v -6.550000 4.450000 3.700000
v -6.550000 4.450000 3.600000
v -6.550000 4.550000 3.900000
v -6.550000 4.750000 3.900000
v -6.550000 4.250000 3.800000
v -6.550000 4.250000 3.700000
v -6.550000 4.350000 4.000000
v -6.550000 4.550000 4.000000
v -6.550000 4.050000 3.900000
v -6.550000 4.050000 3.800000
v -6.550000 4.250000 4.100000
v -6.550000 4.350000 4.100000
v -6.550000 3.850000 4.000000
v -6.550000 3.850000 3.900000
v -6.550000 4.050000 4.200000
v -6.550000 4.250000 4.200000
v -6.550000 3.750000 4.100000
v -6.550000 3.750000 4.000000
v -6.550000 3.850000 4.300000
v -6.550000 4.050000 4.300000
v -6.550000 3.550000 4.200000
v -6.550000 3.550000 4.100000
v -6.550000 3.650000 4.400000
v -6.550000 3.850000 4.400000
v -6.550000 3.550000 4.500000
v -6.550000 3.650000 4.500000
v -6.550000 3.350000 4.300000
v -6.550000 3.350000 4.200000
v -6.550000 3.350000 4.600000
v -6.550000 3.550000 4.600000
v -6.550000 3.150000 4.400000
v -6.550000 3.150000 4.300000
v -6.550000 3.050000 4.500000
v -6.550000 3.050000 4.400000
v -6.550000 3.150000 4.700000
v -6.550000 3.350000 4.700000
v -6.550000 3.050000 4.800000
v -6.550000 3.150000 4.800000
v -6.550000 2.850000 4.600000
v -6.550000 2.850000 4.500000
v -6.550000 2.850000 4.900000
v -6.550000 3.050000 4.900000
v -6.550000 2.650000 4.700000
v -6.550000 2.650000 4.600000
v -6.550000 2.550000 4.800000
v -6.550000 2.550000 4.700000
v -6.550000 2.650000 5.000000
v -6.550000 2.850000 5.000000
v -6.550000 2.350000 4.900000
v -6.550000 2.350000 4.800000
v -6.550000 2.450000 5.100000
v -6.550000 2.650000 5.100000
v -6.550000 2.150000 5.000000
v -6.550000 2.150000 4.900000
v -6.550000 2.350000 5.200000
v -6.550000 2.450000 5.200000
v -6.550000 1.950000 5.100000
v -6.550000 1.950000 5.000000
v -6.550000 2.150000 5.300000
v -6.550000 2.350000 5.300000
v -6.550000 1.850000 5.200000
v -6.550000 1.850000 5.100000
v -6.550000 1.950000 5.400000
v -6.550000 2.150000 5.400000
v -6.550000 1.650000 5.300000
v -6.550000 1.650000 5.200000
v -6.550000 1.750000 5.500000
v -6.550000 1.950000 5.500000
v -6.550000 1.450000 5.400000
v -6.550000 1.450000 5.300000
v -6.550000 1.650000 5.600000
v -6.550000 1.750000 5.600000
v -6.550000 1.250000 5.500000
v -6.550000 1.250000 5.400000
v -6.550000 1.450000 5.700000
v -6.550000 1.650000 5.700000
v -6.550000 1.150000 5.600000
v -6.550000 1.150000 5.500000
v -6.550000 1.250000 5.800000
v -6.550000 1.450000 5.800000
v -6.550000 0.950000 5.700000
v -6.550000 0.950000 5.600000
v -6.550000 1.050000 5.900000
v -6.550000 1.250000 5.900000
v -6.550000 0.750000 5.800000
v -6.550000 0.750000 5.700000
v -6.550000 0.950000 6.000000
v -6.550000 1.050000 6.000000
v -6.550000 0.550000 5.900000
v -6.550000 0.550000 5.800000
v -6.550000 0.750000 6.100000
v -6.550000 0.950000 6.100000
v -6.550000 0.450000 6.000000
v -6.550000 0.450000 5.900000
v -6.550000 0.550000 6.200000
v -6.550000 0.750000 6.200000
v -6.550000 0.250000 6.100000
v -6.550000 0.250000 6.000000
v -6.550000 0.450000 6.300000
v -6.550000 0.550000 6.300000
v -6.550000 0.050000 6.200000
v -6.550000 0.050000 6.100000
v -6.550000 0.250000 6.400000
v -6.550000 0.450000 6.400000
v -6.550000 0.050000 6.500000
v -6.550000 0.250000 6.500000
v -6.550000 -0.350000 6.100000
v -6.550000 -0.150000 6.100000
v -6.550000 -0.150000 6.200000
v -6.550000 -0.550000 6.000000
v -6.550000 -0.650000 5.900000
v -6.550000 -0.550000 5.900000
v -6.550000 -0.350000 6.000000
v -6.550000 -0.850000 5.800000
v -6.550000 -0.650000 5.800000
v -6.550000 -0.150000 6.500000
v -6.550000 0.050000 6.600000
v -6.550000 -0.150000 6.600000
v -6.550000 -1.050000 5.700000
v -6.550000 -0.850000 5.700000
v -6.550000 -1.150000 5.600000
v -6.550000 -1.050000 5.600000
v -6.550000 -0.350000 6.400000
v -6.550000 -0.450000 6.300000
v -6.550000 -0.450000 6.400000
v -6.550000 -0.350000 6.500000
v -6.550000 -0.650000 6.200000
v -6.550000 -1.350000 5.500000
v -6.550000 -1.150000 5.500000
v -6.550000 -1.550000 5.400000
v -6.550000 -1.350000 5.400000
v -6.550000 -0.650000 6.300000
v -6.550000 -0.850000 6.100000
v -6.550000 -1.150000 5.900000
v -6.550000 -1.750000 5.300000
v -6.550000 -1.850000 5.200000
v -6.550000 -1.750000 5.200000
v -6.550000 -1.550000 5.300000
v -6.550000 -0.850000 6.200000
v -6.550000 -1.050000 6.000000
v -6.550000 -2.050000 5.100000
v -6.550000 -1.850000 5.100000
v -6.550000 -1.050000 6.100000
v -6.550000 -1.150000 6.000000
v -6.550000 -1.350000 5.800000
v -6.550000 -2.250000 5.000000
v -6.550000 -2.050000 5.000000
v -6.550000 -1.350000 5.900000
v -6.550000 -1.550000 5.700000
v -6.550000 -1.650000 5.600000
v -6.550000 -1.850000 5.500000
v -6.550000 -2.450000 4.900000
v -6.550000 -2.550000 4.800000
v -6.550000 -2.450000 4.800000
v -6.550000 -2.250000 4.900000
v -6.550000 -1.550000 5.800000
v -6.550000 -1.650000 5.700000
v -6.550000 -2.750000 4.700000
v -6.550000 -2.550000 4.700000
v -6.550000 -1.850000 5.600000
v -6.550000 -2.050000 5.400000
v -6.550000 -2.950000 4.600000
v -6.550000 -2.750000 4.600000
v -6.550000 -2.050000 5.500000
v -6.550000 -2.250000 5.300000
v -6.550000 -2.350000 5.200000
v -6.550000 -2.250000 5.400000
v -6.550000 -2.350000 5.300000
v -6.550000 -3.150000 4.500000
v -6.550000 -3.250000 4.400000
v -6.550000 -3.150000 4.400000
v -6.550000 -2.950000 4.500000
v -6.550000 -2.550000 5.100000
v -6.550000 -3.450000 4.300000
v -6.550000 -3.250000 4.300000
v -6.550000 -2.750000 5.000000
v -6.550000 -2.550000 5.200000
v -6.550000 -2.750000 5.100000
v -6.550000 -3.650000 4.200000
v -6.550000 -3.750000 4.100000
v -6.550000 -3.650000 4.100000
v -6.550000 -3.450000 4.200000
v -6.550000 -2.950000 4.900000
v -6.550000 -3.050000 4.800000
v -6.550000 -3.950000 4.000000
v -6.550000 -3.750000 4.000000
v -6.550000 -2.950000 5.000000
v -6.550000 -3.050000 4.900000
v -6.550000 -3.250000 4.700000
v -6.550000 -4.150000 3.900000
v -6.550000 -3.950000 3.900000
v -6.550000 -3.250000 4.800000
v -6.550000 -3.450000 4.600000
v -6.550000 -4.350000 3.800000
v -6.550000 -4.150000 3.800000
v -6.550000 -3.450000 4.700000
v -6.550000 -3.650000 4.500000
v -6.550000 -3.750000 4.400000
v -6.550000 -4.450000 3.700000
v -6.550000 -4.350000 3.700000
v -6.550000 -4.650000 3.600000
v -6.550000 -4.750000 3.500000
v -6.550000 -4.650000 3.500000
v -6.550000 -4.450000 3.600000
v -6.550000 -3.650000 4.600000
v -6.550000 -3.750000 4.500000
v -6.550000 -3.950000 4.300000
v -6.550000 -4.150000 4.200000
v -6.550000 -4.250000 4.100000
v -6.550000 -3.950000 4.400000
v -6.550000 -4.250000 4.200000
v -6.550000 -5.050000 3.400000
v -6.550000 -4.850000 3.400000
v -6.550000 -4.850000 3.500000
v -6.550000 -5.150000 3.300000
v -6.550000 -5.050000 3.300000
v -6.550000 -4.150000 4.300000
v -6.550000 -4.450000 4.000000
v -6.550000 -4.450000 4.100000
v -6.550000 -4.650000 3.900000
v -6.550000 -5.350000 3.200000
v -6.550000 -5.150000 3.200000
v -6.550000 -4.650000 4.000000
v -6.550000 -5.550000 3.100000
v -6.550000 -5.350000 3.100000
v -6.550000 -4.850000 3.800000
v -6.550000 -4.950000 3.700000
v -6.550000 -5.150000 3.600000
v -6.550000 -4.850000 3.900000
v -6.550000 -4.950000 3.800000
v -6.550000 -5.350000 3.500000
v -6.550000 -5.150000 3.700000
v -6.550000 -5.350000 3.600000
v -6.550000 -5.550000 3.500000
v -6.550000 -4.750000 3.400000
v -6.550000 4.650000 3.400000
v 6.550000 5.550000 3.400000
v 6.550000 5.450000 3.400000
v 6.550000 5.250000 3.500000
v 6.550000 5.450000 3.500000
v 6.550000 5.550000 3.100000
v 6.550000 5.050000 3.600000
v 6.550000 5.250000 3.600000
v 6.550000 4.950000 3.700000
v 6.550000 5.050000 3.700000
v 6.550000 4.750000 3.800000
v 6.550000 4.950000 3.800000
v 6.550000 4.550000 3.900000
v 6.550000 4.750000 3.900000
v 6.550000 5.250000 3.200000
v 6.550000 5.150000 3.300000
v 6.550000 4.950000 3.400000
v 6.550000 4.350000 4.000000
v 6.550000 4.550000 4.000000
v 6.550000 5.250000 3.100000
v 6.550000 4.250000 4.100000
v 6.550000 4.350000 4.100000
v 6.550000 5.150000 3.200000
v 6.550000 4.750000 3.500000
v 6.550000 4.050000 4.200000
v 6.550000 4.250000 4.200000
v 6.550000 4.950000 3.300000
v 6.550000 4.450000 3.700000
v 6.550000 3.850000 4.300000
v 6.550000 4.050000 4.300000
v 6.550000 4.550000 3.600000
v 6.550000 4.650000 3.500000
v 6.550000 4.750000 3.400000
v 6.550000 4.250000 3.800000
v 6.550000 4.550000 3.500000
v 6.550000 3.650000 4.400000
v 6.550000 3.550000 4.500000
v 6.550000 3.650000 4.500000
v 6.550000 3.850000 4.400000
v 6.550000 4.450000 3.600000
v 6.550000 4.050000 3.900000
v 6.550000 3.350000 4.600000
v 6.550000 3.550000 4.600000
v 6.550000 4.250000 3.700000
v 6.550000 3.850000 4.000000
v 6.550000 3.750000 4.100000
v 6.550000 3.150000 4.700000
v 6.550000 3.350000 4.700000
v 6.550000 3.050000 4.800000
v 6.550000 3.150000 4.800000
v 6.550000 4.050000 3.800000
v 6.550000 3.550000 4.200000
v 6.550000 3.850000 3.900000
v 6.550000 3.750000 4.000000
v 6.550000 2.850000 4.900000
v 6.550000 3.050000 4.900000
v 6.550000 3.350000 4.300000
v 6.550000 3.550000 4.100000
v 6.550000 2.650000 5.000000
v 6.550000 2.850000 5.000000
v 6.550000 3.150000 4.400000
v 6.550000 3.050000 4.500000
v 6.550000 2.450000 5.100000
v 6.550000 2.650000 5.100000
v 6.550000 2.350000 5.200000
v 6.550000 2.450000 5.200000
v 6.550000 3.350000 4.200000
v 6.550000 3.050000 4.400000
v 6.550000 2.150000 5.300000
v 6.550000 2.350000 5.300000
v 6.550000 3.150000 4.300000
v 6.550000 2.850000 4.600000
v 6.550000 2.650000 4.700000
v 6.550000 2.550000 4.800000
v 6.550000 1.950000 5.400000
v 6.550000 2.150000 5.400000
v 6.550000 2.850000 4.500000
v 6.550000 2.550000 4.700000
v 6.550000 2.650000 4.600000
v 6.550000 1.750000 5.500000
v 6.550000 1.950000 5.500000
v 6.550000 1.650000 5.600000
v 6.550000 1.750000 5.600000
v 6.550000 2.350000 4.900000
v 6.550000 1.450000 5.700000
v 6.550000 1.650000 5.700000
v 6.550000 2.150000 5.000000
v 6.550000 2.350000 4.800000
v 6.550000 2.150000 4.900000
v 6.550000 1.950000 5.100000
v 6.550000 1.250000 5.800000
v 6.550000 1.450000 5.800000
v 6.550000 1.850000 5.200000
v 6.550000 1.850000 5.100000
v 6.550000 1.050000 5.900000
v 6.550000 0.950000 6.000000
v 6.550000 1.050000 6.000000
v 6.550000 1.250000 5.900000
v 6.550000 1.950000 5.000000
v 6.550000 1.650000 5.300000
v 6.550000 0.750000 6.100000
v 6.550000 0.950000 6.100000
v 6.550000 1.650000 5.200000
v 6.550000 1.450000 5.400000
v 6.550000 0.550000 6.200000
v 6.550000 0.750000 6.200000
v 6.550000 0.450000 6.300000
v 6.550000 0.550000 6.300000
v 6.550000 1.150000 5.600000
v 6.550000 1.250000 5.500000
v 6.550000 1.450000 5.300000
v 6.550000 0.250000 6.400000
v 6.550000 0.450000 6.400000
v 6.550000 1.250000 5.400000
v 6.550000 1.150000 5.500000
v 6.550000 0.950000 5.700000
v 6.550000 0.050000 6.500000
v 6.550000 0.250000 6.500000
v 6.550000 0.950000 5.600000
v 6.550000 0.750000 5.800000
v 6.550000 0.750000 5.700000
v 6.550000 0.550000 5.900000
v 6.550000 0.450000 6.000000
v 6.550000 0.250000 6.100000
v 6.550000 -0.150000 6.500000
v 6.550000 -0.150000 6.600000
v 6.550000 0.050000 6.600000
v 6.550000 0.550000 5.800000
v 6.550000 0.450000 5.900000
v 6.550000 0.050000 6.200000
v 6.550000 0.250000 6.000000
v 6.550000 0.050000 6.100000
v 6.550000 -0.350000 6.400000
v 6.550000 -0.350000 6.500000
v 6.550000 -0.150000 6.200000
v 6.550000 -0.450000 6.300000
v 6.550000 -0.450000 6.400000
v 6.550000 -0.350000 6.100000
v 6.550000 -0.150000 6.100000
v 6.550000 -0.650000 6.200000
v 6.550000 -0.650000 6.300000
v 6.550000 -0.550000 6.000000
v 6.550000 -0.350000 6.000000
v 6.550000 -0.850000 6.100000
v 6.550000 -0.850000 6.200000
v 6.550000 -0.650000 5.900000
v 6.550000 -0.550000 5.900000
v 6.550000 -1.050000 6.000000
v 6.550000 -1.050000 6.100000
v 6.550000 -0.850000 5.800000
v 6.550000 -0.650000 5.800000
v 6.550000 -1.150000 5.900000
v 6.550000 -1.150000 6.000000
v 6.550000 -1.050000 5.700000
v 6.550000 -0.850000 5.700000
v 6.550000 -1.350000 5.800000
v 6.550000 -1.350000 5.900000
v 6.550000 -1.150000 5.600000
v 6.550000 -1.050000 5.600000
v 6.550000 -1.550000 5.700000
v 6.550000 -1.550000 5.800000
v 6.550000 -1.350000 5.500000
v 6.550000 -1.150000 5.500000
v 6.550000 -1.650000 5.600000
v 6.550000 -1.650000 5.700000
v 6.550000 -1.550000 5.400000
v 6.550000 -1.350000 5.400000
v 6.550000 -1.850000 5.500000
v 6.550000 -1.850000 5.600000
v 6.550000 -1.750000 5.300000
v 6.550000 -1.550000 5.300000
v 6.550000 -2.050000 5.400000
v 6.550000 -2.050000 5.500000
v 6.550000 -1.850000 5.200000
v 6.550000 -1.750000 5.200000
v 6.550000 -2.250000 5.300000
v 6.550000 -2.250000 5.400000
v 6.550000 -2.050000 5.100000
v 6.550000 -1.850000 5.100000
v 6.550000 -2.350000 5.200000
v 6.550000 -2.350000 5.300000
v 6.550000 -2.250000 5.000000
v 6.550000 -2.050000 5.000000
v 6.550000 -2.550000 5.100000
v 6.550000 -2.550000 5.200000
v 6.550000 -2.450000 4.900000
v 6.550000 -2.250000 4.900000
v 6.550000 -2.750000 5.000000
v 6.550000 -2.750000 5.100000
v 6.550000 -2.550000 4.800000
v 6.550000 -2.450000 4.800000
v 6.550000 -2.750000 4.700000
v 6.550000 -2.550000 4.700000
v 6.550000 -2.950000 4.900000
v 6.550000 -2.950000 5.000000
v 6.550000 -3.050000 4.800000
v 6.550000 -3.050000 4.900000
v 6.550000 -2.950000 4.600000
v 6.550000 -2.750000 4.600000
v 6.550000 -3.250000 4.700000
v 6.550000 -3.250000 4.800000
v 6.550000 -3.150000 4.500000
v 6.550000 -2.950000 4.500000
v 6.550000 -3.450000 4.600000
v 6.550000 -3.450000 4.700000
v 6.550000 -3.250000 4.400000
v 6.550000 -3.150000 4.400000
v 6.550000 -3.450000 4.300000
v 6.550000 -3.250000 4.300000
v 6.550000 -3.650000 4.500000
v 6.550000 -3.650000 4.600000
v 6.550000 -3.750000 4.400000
v 6.550000 -3.750000 4.500000
v 6.550000 -3.650000 4.200000
v 6.550000 -3.450000 4.200000
v 6.550000 -3.950000 4.300000
v 6.550000 -3.950000 4.400000
v 6.550000 -3.750000 4.100000
v 6.550000 -3.650000 4.100000
v 6.550000 -4.150000 4.200000
v 6.550000 -4.150000 4.300000
v 6.550000 -3.950000 4.000000
v 6.550000 -3.750000 4.000000
v 6.550000 -4.250000 4.100000
v 6.550000 -4.250000 4.200000
v 6.550000 -4.150000 3.900000
v 6.550000 -3.950000 3.900000
v 6.550000 -4.450000 4.000000
v 6.550000 -4.450000 4.100000
v 6.550000 -4.350000 3.800000
v 6.550000 -4.150000 3.800000
v 6.550000 -4.650000 3.900000
v 6.550000 -4.650000 4.000000
v 6.550000 -4.450000 3.700000
v 6.550000 -4.350000 3.700000
v 6.550000 -4.850000 3.800000
v 6.550000 -4.850000 3.900000
v 6.550000 -4.650000 3.600000
v 6.550000 -4.450000 3.600000
v 6.550000 -4.750000 3.500000
v 6.550000 -4.650000 3.500000
v 6.550000 -4.950000 3.700000
v 6.550000 -4.950000 3.800000
v 6.550000 -4.850000 3.500000
v 6.550000 -5.150000 3.600000
v 6.550000 -5.150000 3.700000
v 6.550000 -5.050000 3.400000
v 6.550000 -4.850000 3.400000
v 6.550000 -5.350000 3.500000
v 6.550000 -5.350000 3.600000
v 6.550000 -5.150000 3.300000
v 6.550000 -5.050000 3.300000
v 6.550000 -5.350000 3.200000
v 6.550000 -5.550000 3.500000
v 6.550000 -5.150000 3.200000
v 6.550000 -5.550000 3.100000
v 6.550000 -5.350000 3.100000
v 6.550000 -4.750000 3.400000
v 6.550000 4.650000 3.400000
v -6.050000 4.950000 3.400000
v -6.050000 4.950000 3.300000
v -6.050000 0.450000 0.300000
v -6.050000 5.050000 0.000000
v -6.050000 5.050000 0.300000
v -6.050000 -5.050000 0.300000
v -6.050000 -5.050000 0.000000
v -6.050000 -0.450000 0.300000
v -6.050000 5.050000 3.300000
v -6.050000 4.650000 3.400000
v -6.050000 3.450000 2.200000
v -6.050000 3.450000 1.100000
v -6.050000 4.550000 3.500000
v -6.050000 4.650000 3.500000
v -6.050000 4.450000 3.600000
v -6.050000 4.550000 3.600000
v -6.050000 4.250000 3.700000
v -6.050000 4.450000 3.700000
v -6.050000 4.050000 3.800000
v -6.050000 4.250000 3.800000
v -6.050000 1.550000 1.100000
v -6.050000 3.850000 3.900000
v -6.050000 4.050000 3.900000
v -6.050000 3.750000 4.000000
v -6.050000 3.850000 4.000000
v -6.050000 3.550000 4.100000
v -6.050000 3.750000 4.100000
v -6.050000 3.350000 4.200000
v -6.050000 3.550000 4.200000
v -6.050000 3.150000 4.300000
v -6.050000 1.550000 2.200000
v -6.050000 3.350000 4.300000
v -6.050000 3.050000 4.400000
v -6.050000 3.150000 4.400000
v -6.050000 2.850000 4.500000
v -6.050000 3.050000 4.500000
v -6.050000 0.450000 2.200000
v -6.050000 2.650000 4.600000
v -6.050000 2.850000 4.600000
v -6.050000 2.550000 4.700000
v -6.050000 2.650000 4.700000
v -6.050000 2.350000 4.800000
v -6.050000 2.550000 4.800000
v -6.050000 2.150000 4.900000
v -6.050000 2.350000 4.900000
v -6.050000 1.950000 5.000000
v -6.050000 2.150000 5.000000
v -6.050000 -1.850000 1.200000
v -6.050000 -0.450000 2.200000
v -6.050000 1.850000 5.100000
v -6.050000 1.950000 5.100000
v -6.050000 1.650000 5.200000
v -6.050000 1.850000 5.200000
v -6.050000 0.550000 4.200000
v -6.050000 0.250000 3.900000
v -6.050000 0.150000 3.800000
v -6.050000 0.350000 4.000000
v -6.050000 0.250000 4.000000
v -6.050000 0.150000 3.900000
v -6.050000 0.550000 4.400000
v -6.050000 0.350000 4.200000
v -6.050000 1.450000 5.300000
v -6.050000 1.650000 5.300000
v -6.050000 -0.250000 3.800000
v -6.050000 0.350000 4.500000
v -6.050000 0.350000 4.400000
v -6.050000 1.250000 5.400000
v -6.050000 1.450000 5.400000
v -6.050000 -1.850000 2.300000
v -6.050000 -0.350000 3.900000
v -6.050000 -0.250000 3.900000
v -6.050000 0.250000 4.600000
v -6.050000 0.250000 4.500000
v -6.050000 1.150000 5.500000
v -6.050000 1.250000 5.500000
v -6.050000 -0.450000 4.000000
v -6.050000 -0.350000 4.000000
v -6.050000 0.150000 4.800000
v -6.050000 0.150000 4.600000
v -6.050000 0.950000 5.600000
v -6.050000 1.150000 5.600000
v -6.050000 -0.350000 4.500000
v -6.050000 -0.450000 4.400000
v -6.050000 -0.350000 4.400000
v -6.050000 -0.050000 4.800000
v -6.050000 -0.050000 4.600000
v -6.050000 0.050000 4.600000
v -6.050000 0.050000 4.800000
v -6.050000 -0.250000 4.600000
v -6.050000 -0.250000 4.500000
v -6.050000 -0.150000 4.800000
v -6.050000 -0.150000 4.600000
v -6.050000 0.750000 5.700000
v -6.050000 0.950000 5.700000
v -6.050000 0.550000 5.800000
v -6.050000 0.750000 5.800000
v -6.050000 -3.750000 1.200000
v -6.050000 0.450000 5.900000
v -6.050000 0.550000 5.900000
v -6.050000 0.250000 6.000000
v -6.050000 0.450000 6.000000
v -6.050000 -3.750000 2.300000
v -6.050000 -0.350000 6.000000
v -6.050000 0.250000 6.100000
v -6.050000 -0.350000 6.100000
v -6.050000 -0.650000 5.800000
v -6.050000 -0.550000 5.900000
v -6.050000 -0.650000 5.900000
v -6.050000 -0.550000 6.000000
v -6.050000 -0.850000 5.700000
v -6.050000 -0.850000 5.800000
v -6.050000 -1.150000 5.500000
v -6.050000 -1.050000 5.600000
v -6.050000 -1.050000 5.700000
v -6.050000 -1.150000 5.600000
v -6.050000 -1.350000 5.400000
v -6.050000 -1.350000 5.500000
v -6.050000 -1.550000 5.300000
v -6.050000 -1.550000 5.400000
v -6.050000 -1.850000 5.100000
v -6.050000 -1.750000 5.200000
v -6.050000 -1.750000 5.300000
v -6.050000 -1.850000 5.200000
v -6.050000 -2.050000 5.000000
v -6.050000 -2.050000 5.100000
v -6.050000 -2.250000 4.900000
v -6.050000 -2.250000 5.000000
v -6.050000 -2.550000 4.700000
v -6.050000 -2.450000 4.800000
v -6.050000 -2.450000 4.900000
v -6.050000 -2.550000 4.800000
v -6.050000 -2.750000 4.600000
v -6.050000 -2.950000 4.500000
v -6.050000 -2.750000 4.700000
v -6.050000 -2.950000 4.600000
v -6.050000 -3.250000 4.300000
v -6.050000 -3.150000 4.400000
v -6.050000 -3.250000 4.400000
v -6.050000 -3.150000 4.500000
v -6.050000 -3.450000 4.200000
v -6.050000 -3.750000 4.000000
v -6.050000 -3.650000 4.100000
v -6.050000 -3.450000 4.300000
v -6.050000 -3.650000 4.200000
v -6.050000 -3.750000 4.100000
v -6.050000 -3.950000 3.900000
v -6.050000 -3.950000 4.000000
v -6.050000 -4.150000 3.800000
v -6.050000 -4.150000 3.900000
v -6.050000 -4.450000 3.600000
v -6.050000 -4.350000 3.700000
v -6.050000 -4.750000 3.400000
v -6.050000 -4.650000 3.500000
v -6.050000 -4.350000 3.800000
v -6.050000 -4.450000 3.700000
v -6.050000 -4.650000 3.600000
v -6.050000 -4.750000 3.500000
v -6.050000 -5.050000 3.300000
v -6.050000 -5.050000 3.400000
v -5.950000 0.450000 0.300000
v -5.950000 -0.450000 0.300000
v -5.950000 -0.450000 2.200000
v -5.950000 0.450000 2.200000
v -5.950000 3.450000 1.100000
v -5.950000 1.550000 1.100000
v -5.950000 1.550000 2.200000
v -5.950000 3.450000 2.200000
v -5.950000 -1.850000 1.200000
v -5.950000 -3.750000 1.200000
v -5.950000 -3.750000 2.300000
v -5.950000 -1.850000 2.300000
v -0.950000 -5.050000 0.300000
v 6.050000 -5.050000 0.300000
v 6.050000 -5.050000 0.000000
v 0.950000 -5.050000 0.300000
v -0.950000 -5.050000 2.500000
v -0.950000 -4.950000 2.500000
v -0.950000 -4.950000 0.300000
v 0.950000 -4.950000 0.300000
v 0.950000 -5.050000 2.500000
v 0.950000 -4.950000 2.500000
v 5.850000 1.550000 1.100000
v 5.850000 1.550000 2.200000
v 5.850000 3.450000 2.200000
v 5.850000 3.450000 1.100000
v 6.050000 3.450000 1.100000
v 6.050000 1.550000 1.100000
v 5.850000 -3.750000 1.100000
v 5.850000 -3.750000 2.200000
v 5.850000 -1.850000 2.200000
v 5.850000 -1.850000 1.100000
v 6.050000 -1.850000 1.100000
v 6.050000 -3.750000 1.100000
v 6.050000 5.050000 0.300000
v 6.050000 5.050000 0.000000
v 6.050000 4.450000 3.600000
v 6.050000 4.550000 3.600000
v 6.050000 4.550000 3.500000
v 6.050000 4.650000 3.400000
v 6.050000 4.650000 3.500000
v 6.050000 4.950000 3.400000
v 6.050000 4.950000 3.300000
v 6.050000 4.250000 3.700000
v 6.050000 4.450000 3.700000
v 6.050000 4.050000 3.800000
v 6.050000 4.250000 3.800000
v 6.050000 3.850000 3.900000
v 6.050000 4.050000 3.900000
v 6.050000 3.750000 4.000000
v 6.050000 3.850000 4.000000
v 6.050000 3.550000 4.100000
v 6.050000 3.750000 4.100000
v 6.050000 3.350000 4.200000
v 6.050000 3.550000 4.200000
v 6.050000 3.150000 4.300000
v 6.050000 3.050000 4.400000
v 6.050000 3.150000 4.400000
v 6.050000 3.350000 4.300000
v 6.050000 2.850000 4.500000
v 6.050000 3.050000 4.500000
v 6.050000 2.650000 4.600000
v 6.050000 2.550000 4.700000
v 6.050000 2.650000 4.700000
v 6.050000 2.850000 4.600000
v 6.050000 2.350000 4.800000
v 6.050000 2.550000 4.800000
v 6.050000 2.150000 4.900000
v 6.050000 2.350000 4.900000
v 6.050000 1.950000 5.000000
v 6.050000 1.850000 5.100000
v 6.050000 1.950000 5.100000
v 6.050000 2.150000 5.000000
v 6.050000 1.650000 5.200000
v 6.050000 1.850000 5.200000
v 6.050000 1.450000 5.300000
v 6.050000 1.650000 5.300000
v 6.050000 1.250000 5.400000
v 6.050000 1.150000 5.500000
v 6.050000 1.250000 5.500000
v 6.050000 1.450000 5.400000
v 6.050000 0.950000 5.600000
v 6.050000 1.150000 5.600000
v 6.050000 0.750000 5.700000
v 6.050000 0.950000 5.700000
v 6.050000 0.550000 5.800000
v 6.050000 0.750000 5.800000
v 6.050000 0.450000 5.900000
v 6.050000 0.550000 5.900000
v 6.050000 0.250000 6.000000
v 6.050000 0.450000 6.000000
v 6.050000 3.450000 2.200000
v 6.050000 -0.350000 6.000000
v 6.050000 -0.350000 6.100000
v 6.050000 0.250000 6.100000
v 6.050000 5.050000 3.300000
v 6.050000 -0.550000 5.900000
v 6.050000 -0.550000 6.000000
v 6.050000 -0.650000 5.800000
v 6.050000 -0.650000 5.900000
v 6.050000 0.350000 4.500000
v 6.050000 0.250000 4.600000
v 6.050000 -0.850000 5.700000
v 6.050000 -0.850000 5.800000
v 6.050000 0.250000 4.500000
v 6.050000 -1.050000 5.600000
v 6.050000 -1.050000 5.700000
v 6.050000 -0.250000 4.600000
v 6.050000 -1.150000 5.500000
v 6.050000 -1.150000 5.600000
v 6.050000 0.350000 4.000000
v 6.050000 -0.350000 4.500000
v 6.050000 -0.250000 4.500000
v 6.050000 0.250000 3.900000
v 6.050000 0.250000 4.000000
v 6.050000 -1.350000 5.400000
v 6.050000 -1.350000 5.500000
v 6.050000 -0.450000 4.400000
v 6.050000 -0.350000 4.400000
v 6.050000 0.150000 3.900000
v 6.050000 1.550000 2.200000
v 6.050000 -1.550000 5.300000
v 6.050000 -1.550000 5.400000
v 6.050000 -0.350000 3.900000
v 6.050000 -0.450000 4.000000
v 6.050000 -0.350000 4.000000
v 6.050000 -0.250000 3.900000
v 6.050000 -1.750000 5.200000
v 6.050000 -1.750000 5.300000
v 6.050000 -1.850000 5.100000
v 6.050000 -1.850000 5.200000
v 6.050000 -2.050000 5.000000
v 6.050000 -2.050000 5.100000
v 6.050000 -2.250000 4.900000
v 6.050000 -2.250000 5.000000
v 6.050000 -2.450000 4.800000
v 6.050000 -2.450000 4.900000
v 6.050000 -2.550000 4.700000
v 6.050000 -2.550000 4.800000
v 6.050000 -2.750000 4.600000
v 6.050000 -2.750000 4.700000
v 6.050000 -2.950000 4.500000
v 6.050000 -2.950000 4.600000
v 6.050000 -3.150000 4.400000
v 6.050000 -3.150000 4.500000
v 6.050000 -3.250000 4.300000
v 6.050000 -3.250000 4.400000
v 6.050000 -3.450000 4.200000
v 6.050000 -3.450000 4.300000
v 6.050000 -3.650000 4.100000
v 6.050000 -3.650000 4.200000
v 6.050000 -1.850000 2.200000
v 6.050000 -3.750000 4.000000
v 6.050000 -3.750000 4.100000
v 6.050000 -3.950000 3.900000
v 6.050000 -3.950000 4.000000
v 6.050000 -4.150000 3.800000
v 6.050000 -4.150000 3.900000
v 6.050000 -4.350000 3.700000
v 6.050000 -4.350000 3.800000
v 6.050000 -4.450000 3.600000
v 6.050000 -4.450000 3.700000
v 6.050000 -4.650000 3.500000
v 6.050000 -4.650000 3.600000
v 6.050000 -4.750000 3.400000
v 6.050000 -4.750000 3.500000
v 6.050000 -3.750000 2.200000
v 6.050000 -5.050000 3.300000
v 6.050000 -5.050000 3.400000
v -4.150000 -5.050000 2.300000
v -4.150000 -5.050000 1.200000
v -2.350000 -5.050000 1.200000
v -2.350000 -5.050000 2.300000
v 2.250000 -5.050000 1.100000
v 2.250000 -5.050000 2.200000
v 4.150000 -5.050000 1.100000
v 4.150000 -5.050000 2.200000
v 2.250000 -4.950000 2.200000
v 2.250000 -4.950000 1.100000
v 4.150000 -4.950000 1.100000
v 4.150000 -4.950000 2.200000
v -4.150000 -4.950000 2.300000
v -4.150000 -4.950000 1.200000
v -2.350000 -4.950000 1.200000
v -2.350000 -4.950000 2.300000
v -4.950000 5.050000 2.200000
v -4.950000 5.050000 1.100000
v -3.050000 5.050000 2.200000
v -3.050000 5.050000 1.100000
v -1.350000 5.050000 2.200000
v -1.350000 5.050000 1.100000
v 2.850000 5.050000 2.200000
v 0.550000 5.050000 2.200000
v 0.550000 5.050000 1.100000
v 2.850000 5.050000 1.100000
v 4.750000 5.050000 2.200000
v 4.750000 5.050000 1.100000
v -1.350000 4.850000 1.100000
v -1.350000 4.850000 2.200000
v 0.550000 4.850000 1.100000
v 0.550000 4.850000 2.200000
v 2.850000 4.850000 1.100000
v 2.850000 4.850000 2.200000
v 4.750000 4.850000 1.100000
v 4.750000 4.850000 2.200000
v -4.950000 4.850000 1.100000
v -4.950000 4.850000 2.200000
v -3.050000 4.850000 1.100000
v -3.050000 4.850000 2.200000
v -5.950000 0.150000 3.800000
v -5.950000 -0.250000 3.800000
v -5.950000 0.250000 4.000000
v -5.950000 0.150000 3.900000
v -5.950000 0.250000 3.900000
v -5.950000 -0.250000 3.900000
v -5.950000 0.250000 4.500000
v -5.950000 0.350000 4.000000
v -5.950000 0.350000 4.500000
v -5.950000 -0.350000 4.000000
v -5.950000 -0.350000 3.900000
v -5.950000 -0.350000 4.400000
v -5.950000 -0.250000 4.500000
v -5.950000 -0.450000 4.400000
v -5.950000 -0.450000 4.000000
v -5.950000 -0.250000 4.600000
v -5.950000 0.250000 4.600000
v -5.950000 -0.350000 4.500000
v 5.950000 0.450000 4.300000
v 5.950000 0.350000 4.300000
v 5.950000 0.350000 4.200000
v 5.950000 0.450000 4.200000
v -6.150000 -0.050000 4.600000
v -6.150000 -0.150000 4.600000
v -6.150000 0.150000 4.600000
v -6.150000 0.050000 4.600000
v -6.150000 0.050000 4.800000
v -6.150000 0.150000 4.800000
v -6.150000 -0.150000 4.800000
v -6.150000 -0.050000 4.800000
v 5.950000 -0.050000 4.600000
v 5.950000 0.050000 4.600000
v 5.950000 -0.050000 4.700000
v 5.950000 0.050000 4.700000
f 1 2 3
f 1 3 4
f 5 3 2
f 5 2 6
f 7 8 9
f 7 9 10
f 11 9 8
f 11 8 12
f 13 14 15
f 16 15 17
f 16 18 19
f 20 16 19
f 20 15 16
f 21 22 23
f 21 23 13
f 24 20 25
f 26 27 21
f 26 21 13
f 28 24 29
f 30 13 15
f 30 26 13
f 31 28 32
f 31 33 28
f 34 30 15
f 34 15 20
f 34 20 24
f 34 24 28
f 34 28 33
f 35 36 26
f 35 26 30
f 37 34 33
f 38 30 34
f 23 39 40
f 23 40 22
f 41 42 43
f 44 45 42
f 44 42 41
f 46 47 44
f 48 41 49
f 48 44 41
f 48 46 44
f 50 51 46
f 52 48 53
f 52 50 46
f 52 46 48
f 54 52 55
f 56 57 50
f 56 50 52
f 56 52 54
f 58 59 60
f 58 60 56
f 61 54 62
f 61 56 54
f 61 58 56
f 63 64 58
f 65 58 61
f 65 61 66
f 65 63 58
f 67 68 63
f 69 63 65
f 69 65 70
f 69 67 63
f 71 72 67
f 73 71 67
f 73 67 69
f 73 69 74
f 75 76 71
f 77 75 71
f 77 71 73
f 77 73 78
f 79 80 75
f 81 75 77
f 81 79 75
f 81 77 82
f 83 84 79
f 85 79 81
f 85 83 79
f 85 81 86
f 87 85 88
f 89 90 83
f 89 83 85
f 89 85 87
f 91 87 92
f 91 89 87
f 93 94 89
f 93 89 91
f 95 96 93
f 95 93 91
f 97 91 98
f 97 95 91
f 99 97 100
f 99 95 97
f 101 95 99
f 101 102 95
f 103 99 104
f 103 101 99
f 105 101 103
f 105 106 101
f 107 108 105
f 109 103 110
f 109 105 103
f 109 107 105
f 111 112 107
f 111 107 109
f 113 109 114
f 113 111 109
f 115 111 113
f 115 116 111
f 117 115 113
f 117 113 118
f 119 120 115
f 121 119 115
f 121 117 122
f 121 115 117
f 123 124 119
f 125 119 121
f 125 121 126
f 125 123 119
f 127 128 123
f 129 123 125
f 129 127 123
f 129 125 130
f 131 127 129
f 131 132 127
f 133 131 129
f 133 129 134
f 135 136 131
f 137 135 131
f 137 131 133
f 137 133 138
f 139 140 135
f 141 135 137
f 141 139 135
f 141 137 142
f 143 144 139
f 145 139 141
f 145 143 139
f 145 141 146
f 147 148 143
f 149 143 145
f 149 147 143
f 149 145 150
f 151 152 147
f 153 147 149
f 153 151 147
f 153 149 154
f 155 156 151
f 157 151 153
f 157 153 158
f 157 155 151
f 159 160 155
f 161 157 162
f 161 155 157
f 161 159 155
f 163 164 159
f 165 163 159
f 165 161 166
f 165 159 161
f 167 163 165
f 167 165 168
f 169 170 171
f 172 173 174
f 172 175 169
f 176 177 173
f 178 163 167
f 178 171 163
f 178 167 179
f 180 178 179
f 181 182 176
f 183 184 181
f 185 171 178
f 186 171 185
f 186 169 171
f 187 186 185
f 188 185 178
f 189 172 169
f 189 169 186
f 189 173 172
f 190 191 183
f 192 193 190
f 194 189 186
f 195 176 173
f 195 173 189
f 196 181 176
f 196 183 181
f 197 198 199
f 197 200 192
f 201 195 189
f 202 176 195
f 202 196 176
f 203 204 198
f 205 202 195
f 206 196 202
f 207 190 183
f 207 183 196
f 208 209 203
f 210 207 196
f 211 192 190
f 211 212 192
f 211 190 207
f 213 197 192
f 213 192 212
f 214 215 216
f 214 217 208
f 218 211 207
f 219 212 211
f 220 221 215
f 222 213 212
f 223 197 213
f 223 198 197
f 223 203 198
f 224 225 220
f 226 223 213
f 227 203 223
f 228 203 227
f 228 208 203
f 229 227 223
f 230 228 227
f 231 232 233
f 231 234 224
f 235 208 228
f 235 214 208
f 236 237 232
f 238 214 235
f 238 215 214
f 238 220 215
f 239 235 228
f 240 238 235
f 241 242 243
f 241 244 236
f 245 220 238
f 245 224 220
f 246 224 245
f 247 248 242
f 249 245 238
f 250 246 245
f 251 231 224
f 251 224 246
f 252 253 247
f 254 251 246
f 255 232 231
f 255 236 232
f 255 231 251
f 256 257 252
f 258 255 251
f 259 236 255
f 260 241 236
f 260 236 259
f 261 262 256
f 263 264 265
f 263 266 261
f 267 259 255
f 268 260 259
f 269 241 260
f 269 242 241
f 269 247 242
f 270 247 269
f 271 247 270
f 271 252 247
f 271 256 252
f 272 269 260
f 273 271 270
f 274 275 276
f 277 278 274
f 279 270 269
f 280 256 271
f 281 280 271
f 282 263 261
f 282 256 280
f 282 261 256
f 283 284 277
f 285 282 280
f 286 287 283
f 288 264 263
f 288 276 264
f 288 263 282
f 289 276 288
f 290 274 276
f 290 277 274
f 290 276 289
f 291 288 282
f 292 289 288
f 293 283 277
f 293 277 290
f 294 290 289
f 295 293 290
f 296 286 283
f 296 283 293
f 276 275 297
f 276 297 264
f 60 298 57
f 60 57 56
f 171 170 164
f 171 164 163
f 43 299 300
f 43 300 41
f 301 302 300
f 303 300 299
f 304 305 301
f 306 307 304
f 308 309 306
f 310 311 308
f 312 300 303
f 312 301 300
f 312 313 301
f 314 304 301
f 314 301 313
f 315 316 310
f 317 312 303
f 318 319 315
f 320 313 312
f 321 308 306
f 321 306 304
f 321 304 314
f 322 323 318
f 324 314 313
f 325 310 308
f 326 327 322
f 328 325 308
f 328 308 321
f 328 321 329
f 330 321 314
f 331 310 325
f 331 315 310
f 331 318 315
f 332 328 329
f 333 334 335
f 333 336 326
f 337 325 328
f 338 318 331
f 338 322 318
f 339 340 334
f 341 331 325
f 342 326 322
f 342 322 338
f 342 343 326
f 344 345 339
f 346 347 344
f 348 338 331
f 349 333 326
f 349 326 343
f 350 342 338
f 351 343 342
f 352 353 346
f 354 334 333
f 354 339 334
f 354 333 349
f 355 349 343
f 356 357 352
f 358 339 354
f 359 346 344
f 359 344 339
f 359 339 358
f 360 361 356
f 362 363 360
f 364 354 349
f 365 359 358
f 366 367 362
f 368 358 354
f 369 352 346
f 369 346 359
f 370 356 352
f 370 352 369
f 370 371 356
f 372 373 366
f 374 369 359
f 375 371 370
f 376 370 369
f 377 378 372
f 379 380 377
f 381 360 356
f 381 356 371
f 382 383 379
f 384 366 362
f 384 360 381
f 384 362 360
f 385 381 371
f 386 384 381
f 387 372 366
f 387 366 384
f 388 389 382
f 390 372 387
f 391 390 387
f 392 393 394
f 392 395 388
f 396 387 384
f 397 379 377
f 397 372 390
f 397 377 372
f 398 399 393
f 400 397 390
f 401 382 379
f 401 379 397
f 402 403 398
f 404 405 402
f 406 388 382
f 406 392 388
f 407 382 401
f 407 406 382
f 408 401 397
f 409 410 404
f 411 407 401
f 412 406 407
f 413 392 406
f 414 415 409
f 416 413 406
f 417 392 413
f 417 393 392
f 417 398 393
f 418 417 413
f 419 398 417
f 420 402 398
f 420 404 402
f 420 398 419
f 421 404 420
f 421 409 404
f 422 423 424
f 422 424 414
f 425 419 417
f 426 420 419
f 427 409 421
f 427 414 409
f 428 421 420
f 429 427 421
f 430 431 422
f 432 430 422
f 432 422 414
f 432 414 427
f 433 434 430
f 435 430 432
f 435 433 430
f 435 432 436
f 437 438 433
f 437 433 435
f 439 437 435
f 439 435 440
f 441 442 437
f 443 437 439
f 443 441 437
f 443 439 444
f 445 446 441
f 447 441 443
f 447 445 441
f 447 443 448
f 449 450 445
f 451 447 452
f 451 445 447
f 451 449 445
f 453 454 449
f 453 449 451
f 455 451 456
f 455 453 451
f 457 458 453
f 459 455 460
f 459 453 455
f 459 457 453
f 461 462 457
f 463 459 464
f 463 457 459
f 463 461 457
f 465 466 461
f 467 463 468
f 467 461 463
f 467 465 461
f 469 470 465
f 471 469 465
f 471 467 472
f 471 465 467
f 473 474 469
f 475 473 469
f 475 471 476
f 475 469 471
f 477 478 473
f 479 477 473
f 479 473 475
f 479 475 480
f 481 482 477
f 483 477 479
f 483 479 484
f 483 481 477
f 485 481 483
f 485 486 481
f 487 483 488
f 487 485 483
f 489 487 490
f 489 485 487
f 491 492 485
f 491 485 489
f 493 494 491
f 495 489 496
f 495 491 489
f 495 493 491
f 497 498 493
f 499 495 500
f 499 493 495
f 499 497 493
f 501 502 497
f 503 499 504
f 503 497 499
f 503 501 497
f 505 503 506
f 505 501 503
f 507 508 501
f 507 501 505
f 509 510 507
f 511 505 512
f 511 507 505
f 511 509 507
f 513 514 509
f 515 511 516
f 515 509 511
f 515 513 509
f 517 518 513
f 519 515 520
f 519 513 515
f 519 517 513
f 521 522 517
f 523 521 517
f 523 519 524
f 523 517 519
f 525 521 523
f 525 526 521
f 527 523 528
f 527 525 523
f 529 525 527
f 529 530 525
f 531 529 527
f 531 527 532
f 533 534 529
f 535 529 531
f 535 533 529
f 535 531 536
f 537 533 535
f 537 535 538
f 539 540 533
f 541 533 537
f 541 539 533
f 542 543 539
f 544 539 541
f 544 542 539
f 544 541 545
f 546 547 542
f 548 542 544
f 548 544 549
f 548 546 542
f 550 551 546
f 550 548 552
f 550 546 548
f 553 550 554
f 553 551 550
f 545 541 537
f 545 537 555
f 556 329 321
f 556 321 330
f 436 432 427
f 436 427 429
f 293 546 551
f 293 551 296
f 49 302 301
f 49 301 48
f 290 542 547
f 290 547 295
f 551 286 296
f 551 553 286
f 554 283 287
f 554 550 283
f 53 305 304
f 53 304 52
f 312 45 44
f 312 317 45
f 554 287 286
f 554 286 553
f 303 43 42
f 303 299 43
f 289 539 543
f 289 543 294
f 313 47 46
f 313 320 47
f 557 51 50
f 557 558 51
f 559 560 561
f 562 563 564
f 563 560 559
f 563 559 564
f 558 561 565
f 566 558 557
f 567 568 561
f 567 561 558
f 567 558 566
f 569 566 570
f 569 567 566
f 571 569 572
f 573 571 574
f 573 569 571
f 573 567 569
f 575 573 576
f 575 567 573
f 559 568 577
f 559 561 568
f 578 575 579
f 578 567 575
f 580 578 581
f 582 567 578
f 582 578 580
f 582 580 583
f 584 567 582
f 584 582 585
f 586 567 584
f 586 587 567
f 586 584 588
f 589 586 590
f 591 587 586
f 591 586 589
f 591 589 592
f 593 577 587
f 593 559 577
f 594 587 591
f 594 591 595
f 596 594 597
f 598 596 599
f 598 594 596
f 600 598 601
f 602 600 603
f 604 564 605
f 606 602 607
f 11 587 594
f 11 594 598
f 11 593 587
f 11 598 600
f 11 600 602
f 608 602 606
f 608 606 609
f 610 11 602
f 611 593 11
f 612 605 593
f 612 593 611
f 613 611 11
f 614 611 613
f 615 612 611
f 12 613 11
f 5 610 602
f 616 602 608
f 616 5 602
f 617 610 5
f 618 608 619
f 618 616 608
f 6 617 5
f 620 605 612
f 621 622 616
f 623 618 624
f 623 616 618
f 625 604 605
f 626 625 605
f 626 620 627
f 626 605 620
f 628 629 621
f 630 623 631
f 632 626 633
f 632 625 626
f 634 628 621
f 634 635 628
f 634 621 616
f 636 616 623
f 636 623 630
f 636 634 616
f 636 630 637
f 638 639 640
f 641 642 643
f 641 643 644
f 645 638 646
f 647 645 648
f 647 638 645
f 649 634 636
f 649 636 650
f 651 634 649
f 651 644 634
f 651 649 652
f 562 604 653
f 562 564 604
f 654 651 655
f 656 651 654
f 656 644 651
f 656 654 657
f 656 641 644
f 658 562 653
f 659 647 641
f 659 656 660
f 659 641 656
f 661 659 660
f 662 647 659
f 662 659 663
f 664 662 663
f 665 663 659
f 666 647 662
f 667 666 662
f 668 638 647
f 668 639 638
f 668 647 666
f 668 666 669
f 670 669 666
f 671 668 669
f 672 639 668
f 673 672 668
f 674 639 672
f 675 674 672
f 676 639 674
f 676 632 639
f 676 674 677
f 678 677 674
f 679 676 677
f 680 632 676
f 681 680 676
f 682 632 680
f 683 682 680
f 684 625 632
f 684 632 682
f 684 682 685
f 686 685 682
f 687 684 685
f 688 625 684
f 689 625 688
f 690 688 684
f 691 689 688
f 692 625 689
f 692 689 693
f 694 692 693
f 695 693 689
f 696 658 625
f 696 625 692
f 697 658 696
f 697 696 698
f 699 696 692
f 700 698 696
f 701 697 698
f 702 658 697
f 703 702 697
f 704 658 702
f 705 704 702
f 706 658 704
f 707 706 704
f 708 658 706
f 708 706 709
f 710 707 704
f 711 706 707
f 712 709 706
f 713 708 709
f 714 562 658
f 714 658 708
f 715 714 708
f 559 716 717
f 559 717 564
f 718 717 716
f 718 716 719
f 568 720 721
f 568 721 577
f 722 721 720
f 722 720 723
f 604 724 725
f 604 725 653
f 726 725 724
f 726 724 727
f 728 563 562
f 729 730 731
f 730 563 728
f 730 728 731
f 728 732 733
f 728 733 734
f 728 735 731
f 734 735 728
f 736 731 735
f 736 735 737
f 738 739 740
f 738 740 741
f 741 742 743
f 741 743 738
f 744 745 746
f 744 746 747
f 747 748 749
f 747 749 744
f 729 750 751
f 730 729 751
f 752 753 754
f 755 754 756
f 755 757 758
f 759 760 752
f 759 752 754
f 761 762 759
f 763 764 761
f 765 766 763
f 767 765 763
f 767 768 765
f 769 770 767
f 771 772 773
f 771 774 769
f 775 776 772
f 775 772 771
f 777 778 779
f 777 780 775
f 781 778 777
f 781 782 778
f 783 784 781
f 785 786 787
f 785 788 783
f 789 786 785
f 789 790 786
f 791 792 789
f 793 794 795
f 793 796 791
f 797 794 793
f 797 798 794
f 799 800 797
f 801 802 799
f 803 804 801
f 805 803 801
f 805 806 803
f 807 754 755
f 807 755 758
f 807 767 763
f 807 759 754
f 807 761 759
f 807 763 761
f 807 771 769
f 807 769 767
f 808 809 810
f 808 810 805
f 750 758 811
f 750 807 758
f 812 813 808
f 814 815 812
f 814 812 808
f 816 791 789
f 816 789 785
f 816 793 791
f 816 797 793
f 817 797 816
f 817 799 797
f 817 801 799
f 818 819 814
f 820 817 816
f 742 807 750
f 821 822 818
f 823 818 814
f 823 805 801
f 823 808 805
f 823 814 808
f 823 801 817
f 824 825 821
f 824 818 823
f 824 821 818
f 826 783 781
f 826 785 783
f 826 816 785
f 827 823 828
f 827 824 823
f 829 830 826
f 831 832 824
f 833 824 827
f 833 831 824
f 833 827 834
f 39 835 829
f 836 777 775
f 836 781 777
f 836 829 826
f 836 39 829
f 836 771 807
f 836 826 781
f 836 775 771
f 837 831 833
f 837 838 831
f 839 840 841
f 40 839 842
f 40 39 836
f 843 844 837
f 845 837 833
f 845 843 837
f 845 833 840
f 845 846 843
f 847 845 840
f 847 848 845
f 743 742 750
f 849 847 840
f 849 850 847
f 851 852 849
f 853 849 840
f 853 854 851
f 853 851 849
f 855 856 853
f 857 858 855
f 859 860 857
f 861 862 859
f 861 859 857
f 863 864 861
f 865 866 863
f 867 840 839
f 867 836 743
f 867 839 40
f 867 40 836
f 867 853 840
f 867 855 853
f 867 857 855
f 867 861 857
f 867 863 861
f 868 869 865
f 868 865 863
f 870 871 868
f 872 873 870
f 874 875 872
f 748 867 743
f 876 877 874
f 876 874 872
f 878 879 876
f 880 881 878
f 880 878 876
f 882 876 872
f 882 880 876
f 882 863 867
f 882 870 868
f 882 868 863
f 882 872 870
f 883 884 880
f 883 880 882
f 729 749 748
f 729 883 882
f 729 882 749
f 750 729 748
f 750 748 743
f 751 561 560
f 751 750 561
f 717 605 564
f 717 718 605
f 885 562 714
f 885 886 562
f 728 886 887
f 728 562 886
f 888 885 714
f 732 887 888
f 732 888 714
f 732 728 887
f 736 889 731
f 890 889 736
f 891 731 889
f 729 891 892
f 729 731 891
f 883 892 890
f 883 890 736
f 883 729 892
f 714 883 736
f 714 736 732
f 889 890 893
f 889 893 894
f 894 895 891
f 894 891 889
f 892 891 895
f 892 895 896
f 886 885 897
f 886 897 898
f 898 899 887
f 898 887 886
f 888 887 899
f 888 899 900
f 737 734 733
f 737 735 734
f 719 559 593
f 719 716 559
f 896 894 893
f 896 895 894
f 867 747 746
f 867 748 747
f 723 568 567
f 723 720 568
f 807 741 740
f 807 742 741
f 900 898 897
f 900 899 898
f 727 604 625
f 727 724 604
f 561 901 565
f 902 901 561
f 903 565 901
f 904 902 561
f 905 565 903
f 906 903 904
f 906 905 903
f 906 904 561
f 907 908 909
f 910 907 909
f 811 907 911
f 811 908 907
f 750 912 910
f 750 911 912
f 750 811 911
f 750 910 909
f 561 750 909
f 561 909 906
f 811 565 905
f 811 905 908
f 913 914 905
f 913 905 906
f 913 909 915
f 906 909 913
f 916 915 909
f 916 909 908
f 917 918 907
f 917 907 910
f 910 912 919
f 910 919 917
f 920 919 912
f 920 912 911
f 921 922 901
f 921 901 902
f 902 904 923
f 902 923 921
f 924 923 904
f 924 904 903
f 749 745 744
f 749 882 745
f 721 587 577
f 721 722 587
f 743 739 738
f 743 836 739
f 923 922 921
f 923 924 922
f 915 914 913
f 915 916 914
f 919 918 917
f 919 920 918
f 725 658 653
f 725 726 658
f 751 560 563
f 751 563 730
f 896 893 890
f 896 890 892
f 867 746 745
f 867 745 882
f 719 593 605
f 719 605 718
f 723 567 587
f 723 587 722
f 807 740 739
f 807 739 836
f 903 901 922
f 903 922 924
f 916 905 914
f 908 905 916
f 911 907 918
f 911 918 920
f 888 897 885
f 900 897 888
f 727 625 658
f 727 658 726
f 737 733 732
f 737 732 736
f 314 758 757
f 314 324 758
f 570 298 60
f 570 566 298
f 329 755 756
f 329 556 755
f 303 42 45
f 303 45 317
f 552 277 284
f 552 548 277
f 714 274 278
f 714 715 274
f 549 884 883
f 549 544 884
f 708 264 297
f 708 713 264
f 555 881 880
f 555 537 881
f 55 307 306
f 55 306 54
f 547 293 295
f 547 546 293
f 572 59 58
f 572 569 59
f 328 754 753
f 328 332 754
f 552 284 283
f 552 283 550
f 300 49 41
f 300 302 49
f 709 263 265
f 709 712 263
f 538 879 878
f 538 535 879
f 288 533 540
f 288 540 292
f 612 925 926
f 612 926 620
f 927 928 929
f 930 926 925
f 930 925 928
f 931 927 932
f 931 932 933
f 934 935 930
f 936 928 927
f 936 930 928
f 936 934 930
f 937 927 931
f 937 936 927
f 938 939 934
f 938 934 936
f 940 931 941
f 940 937 931
f 942 936 937
f 543 290 294
f 543 542 290
f 574 64 63
f 574 571 64
f 325 752 760
f 325 337 752
f 312 44 47
f 312 47 320
f 301 53 48
f 301 305 53
f 706 261 266
f 706 711 261
f 536 877 876
f 536 531 877
f 62 309 308
f 62 308 61
f 540 289 292
f 540 539 289
f 576 68 67
f 576 573 68
f 331 759 762
f 331 341 759
f 714 278 277
f 548 883 714
f 548 714 277
f 549 883 548
f 304 55 52
f 304 307 55
f 707 256 262
f 707 710 256
f 532 875 874
f 532 527 875
f 282 529 534
f 282 534 291
f 627 930 935
f 627 935 626
f 534 288 291
f 534 533 288
f 21 842 839
f 21 839 27
f 928 612 615
f 928 925 612
f 611 929 928
f 611 928 615
f 14 829 835
f 14 835 13
f 835 23 13
f 835 39 23
f 579 72 71
f 579 575 72
f 338 761 764
f 338 348 761
f 565 46 51
f 565 51 558
f 324 811 758
f 313 811 324
f 313 46 811
f 811 46 565
f 715 275 274
f 708 297 275
f 708 275 715
f 545 880 884
f 545 884 544
f 555 880 545
f 566 57 298
f 557 50 57
f 557 57 566
f 306 62 54
f 306 309 62
f 330 757 755
f 330 755 556
f 314 757 330
f 709 265 264
f 709 264 713
f 704 252 257
f 704 705 252
f 538 878 881
f 538 881 537
f 528 873 872
f 528 523 873
f 926 627 620
f 926 930 627
f 570 60 59
f 570 59 569
f 40 21 22
f 40 842 21
f 329 756 754
f 329 754 332
f 706 266 263
f 706 263 712
f 536 876 879
f 536 879 535
f 572 58 64
f 572 64 571
f 328 753 752
f 328 752 337
f 707 262 261
f 707 261 711
f 532 874 877
f 532 877 531
f 574 63 68
f 574 68 573
f 325 760 759
f 325 759 341
f 704 257 256
f 704 256 710
f 528 872 875
f 528 875 527
f 576 67 72
f 576 72 575
f 331 762 761
f 331 761 348
f 702 253 252
f 702 252 705
f 524 870 873
f 524 873 523
f 579 71 76
f 579 76 578
f 338 764 763
f 338 763 350
f 697 248 247
f 697 247 703
f 520 868 871
f 520 871 519
f 581 75 80
f 581 80 580
f 342 766 765
f 342 765 351
f 698 243 242
f 698 242 701
f 516 865 869
f 516 869 515
f 583 79 84
f 583 84 582
f 343 768 767
f 343 767 355
f 696 244 241
f 696 241 700
f 512 863 866
f 512 866 511
f 585 83 90
f 585 90 584
f 349 770 769
f 349 769 364
f 692 237 236
f 692 236 699
f 506 861 864
f 506 864 505
f 943 19 20
f 943 20 944
f 944 945 946
f 944 946 943
f 588 89 94
f 588 94 586
f 354 774 771
f 354 771 368
f 693 233 232
f 693 232 694
f 504 859 862
f 504 862 503
f 936 640 639
f 936 639 938
f 834 30 35
f 834 35 833
f 590 93 96
f 590 96 589
f 358 773 772
f 358 772 365
f 689 234 231
f 689 231 695
f 500 857 860
f 500 860 499
f 937 646 638
f 937 638 942
f 530 282 285
f 530 529 282
f 66 311 310
f 66 310 65
f 828 34 38
f 828 38 827
f 933 621 629
f 933 629 931
f 927 611 614
f 927 929 611
f 816 25 24
f 816 24 820
f 830 14 15
f 830 829 14
f 592 95 102
f 592 102 591
f 581 76 75
f 581 578 76
f 342 763 766
f 342 350 763
f 359 776 775
f 359 775 374
f 688 225 224
f 688 224 691
f 496 855 858
f 496 858 495
f 648 645 940
f 642 947 948
f 642 948 648
f 642 648 940
f 635 949 950
f 635 950 643
f 941 628 635
f 941 643 642
f 941 642 940
f 941 635 643
f 951 950 949
f 951 949 952
f 953 948 947
f 953 947 954
f 955 33 37
f 955 37 823
f 29 28 956
f 817 956 955
f 817 29 956
f 817 955 823
f 957 955 956
f 957 956 958
f 595 101 106
f 595 106 594
f 369 780 777
f 369 777 376
f 684 221 220
f 684 220 690
f 490 853 856
f 490 856 489
f 958 32 31
f 958 31 957
f 597 105 108
f 597 108 596
f 370 779 778
f 370 778 375
f 685 216 215
f 685 215 687
f 488 851 854
f 488 854 487
f 599 107 112
f 599 112 598
f 371 782 781
f 371 781 385
f 682 217 214
f 682 214 686
f 484 849 852
f 484 852 483
f 601 111 116
f 601 116 600
f 381 784 783
f 381 783 386
f 680 209 208
f 680 208 683
f 480 847 850
f 480 850 479
f 603 115 120
f 603 120 602
f 308 66 61
f 308 311 66
f 384 788 785
f 384 785 396
f 702 247 253
f 702 703 247
f 676 204 203
f 676 203 681
f 524 871 870
f 524 519 871
f 476 845 848
f 476 848 475
f 935 633 626
f 935 934 633
f 839 26 27
f 839 841 26
f 607 119 124
f 607 124 606
f 387 787 786
f 387 786 391
f 677 199 198
f 677 198 679
f 472 843 846
f 472 846 471
f 609 123 128
f 609 128 608
f 390 790 789
f 390 789 400
f 674 200 197
f 674 197 678
f 468 837 844
f 468 844 467
f 619 127 132
f 619 132 618
f 397 792 791
f 397 791 408
f 672 193 192
f 672 192 675
f 464 831 838
f 464 838 463
f 624 131 136
f 624 136 623
f 401 796 793
f 401 793 411
f 668 191 190
f 668 190 673
f 460 824 832
f 460 832 459
f 631 135 140
f 631 140 630
f 407 795 794
f 407 794 412
f 669 184 183
f 669 183 671
f 456 821 825
f 456 825 455
f 637 139 144
f 637 144 636
f 406 798 797
f 406 797 416
f 666 182 181
f 666 181 670
f 452 818 822
f 452 822 451
f 650 143 148
f 650 148 649
f 413 800 799
f 413 799 418
f 662 177 176
f 662 176 667
f 448 814 819
f 448 819 447
f 652 147 152
f 652 152 651
f 417 802 801
f 417 801 425
f 663 174 173
f 663 173 664
f 444 812 815
f 444 815 443
f 655 151 156
f 655 156 654
f 526 280 281
f 526 525 280
f 419 804 803
f 419 803 426
f 659 175 172
f 659 172 665
f 622 933 621
f 6 622 1
f 6 1 2
f 6 933 622
f 12 617 7
f 12 7 8
f 932 12 613
f 932 617 12
f 932 933 617
f 617 933 6
f 440 808 813
f 440 813 439
f 945 17 16
f 945 826 17
f 25 944 20
f 816 944 25
f 816 826 944
f 944 826 945
f 657 155 160
f 657 160 656
f 583 80 79
f 583 580 80
f 420 806 805
f 420 805 428
f 343 765 768
f 343 351 765
f 661 170 169
f 660 159 164
f 660 164 170
f 660 170 661
f 280 525 530
f 280 530 285
f 633 934 939
f 633 939 632
f 436 809 435
f 429 810 809
f 429 809 436
f 421 810 429
f 26 841 840
f 26 840 36
f 613 932 927
f 613 927 614
f 17 826 830
f 17 830 15
f 310 70 65
f 310 316 70
f 697 242 248
f 697 701 242
f 520 869 868
f 520 515 869
f 939 639 632
f 939 938 639
f 840 35 36
f 840 833 35
f 522 271 273
f 522 521 271
f 585 84 83
f 585 582 84
f 349 767 770
f 349 355 767
f 70 316 315
f 70 315 69
f 315 74 69
f 315 319 74
f 698 241 243
f 698 700 241
f 516 866 865
f 516 511 866
f 11 10 9
f 11 610 10
f 518 270 279
f 518 517 270
f 943 18 19
f 943 946 18
f 588 90 89
f 588 584 90
f 354 769 774
f 354 364 769
f 271 521 526
f 271 526 281
f 318 78 73
f 318 323 78
f 696 236 244
f 696 699 236
f 512 864 863
f 512 505 864
f 514 269 272
f 514 513 269
f 590 94 93
f 590 586 94
f 358 771 773
f 358 368 771
f 74 319 318
f 74 318 73
f 322 82 77
f 322 327 82
f 692 232 237
f 692 694 232
f 506 862 861
f 506 503 862
f 5 4 3
f 5 616 4
f 510 260 268
f 510 509 260
f 592 96 95
f 592 589 96
f 359 772 776
f 359 365 772
f 270 517 522
f 270 522 273
f 10 610 617
f 10 617 7
f 18 946 945
f 18 945 16
f 326 86 81
f 326 336 86
f 693 231 233
f 693 695 231
f 504 860 859
f 504 499 860
f 936 638 640
f 936 942 638
f 834 38 30
f 834 827 38
f 508 259 267
f 508 507 259
f 941 629 628
f 941 931 629
f 817 24 29
f 817 820 24
f 595 102 101
f 595 591 102
f 369 775 780
f 369 374 775
f 78 323 322
f 78 322 77
f 333 88 85
f 333 335 88
f 689 224 234
f 689 691 224
f 500 858 857
f 500 495 858
f 937 645 646
f 937 940 645
f 828 37 34
f 828 823 37
f 502 255 258
f 502 501 255
f 647 948 953
f 647 648 948
f 644 950 951
f 644 643 950
f 958 28 32
f 958 956 28
f 597 106 105
f 597 594 106
f 370 777 779
f 370 376 777
f 269 513 518
f 269 518 279
f 334 92 87
f 334 340 92
f 688 220 225
f 688 690 220
f 496 856 855
f 496 489 856
f 642 954 947
f 642 641 954
f 955 31 33
f 955 957 31
f 635 952 949
f 635 634 952
f 498 251 254
f 498 497 251
f 599 108 107
f 599 596 108
f 371 778 782
f 371 375 778
f 82 327 326
f 82 326 81
f 339 98 91
f 339 345 98
f 684 215 221
f 684 687 215
f 490 854 853
f 490 487 854
f 494 246 250
f 494 493 246
f 601 112 111
f 601 598 112
f 381 781 784
f 381 385 781
f 260 509 514
f 260 514 272
f 4 616 622
f 4 622 1
f 344 100 97
f 344 347 100
f 685 214 216
f 685 686 214
f 488 852 851
f 488 483 852
f 492 245 249
f 492 491 245
f 603 116 115
f 603 600 116
f 384 783 788
f 384 386 783
f 86 336 333
f 86 333 85
f 346 104 99
f 346 353 104
f 682 208 217
f 682 683 208
f 484 850 849
f 484 479 850
f 486 238 240
f 486 485 238
f 607 120 119
f 607 602 120
f 387 785 787
f 387 396 785
f 259 507 510
f 259 510 268
f 352 110 103
f 352 357 110
f 680 203 209
f 680 681 203
f 480 848 847
f 480 475 848
f 482 235 239
f 482 481 235
f 609 124 123
f 609 606 124
f 390 786 790
f 390 391 786
f 356 114 109
f 356 361 114
f 676 198 204
f 676 679 198
f 476 846 845
f 476 471 846
f 88 335 334
f 88 334 87
f 478 228 230
f 478 477 228
f 619 128 127
f 619 608 128
f 397 789 792
f 397 400 789
f 360 118 113
f 360 363 118
f 677 197 199
f 677 678 197
f 472 844 843
f 472 467 844
f 255 501 508
f 255 508 267
f 474 227 229
f 474 473 227
f 624 132 131
f 624 618 132
f 401 791 796
f 401 408 791
f 362 122 117
f 362 367 122
f 674 192 200
f 674 675 192
f 468 838 837
f 468 463 838
f 92 340 339
f 92 339 91
f 470 223 226
f 470 469 223
f 631 136 135
f 631 623 136
f 407 793 795
f 407 411 793
f 366 126 121
f 366 373 126
f 672 190 193
f 672 673 190
f 464 832 831
f 464 459 832
f 251 497 502
f 251 502 258
f 466 213 222
f 466 465 213
f 637 140 139
f 637 630 140
f 406 794 798
f 406 412 794
f 372 130 125
f 372 378 130
f 668 183 191
f 668 671 183
f 460 825 824
f 460 455 825
f 98 345 344
f 98 344 97
f 462 212 219
f 462 461 212
f 650 144 143
f 650 636 144
f 413 797 800
f 413 416 797
f 377 134 129
f 377 380 134
f 669 181 184
f 669 670 181
f 456 822 821
f 456 451 822
f 246 493 498
f 246 498 254
f 954 641 647
f 954 647 953
f 952 634 644
f 952 644 951
f 458 211 218
f 458 457 211
f 652 148 147
f 652 649 148
f 417 799 802
f 417 418 799
f 379 138 133
f 379 383 138
f 666 176 182
f 666 667 176
f 452 819 818
f 452 447 819
f 100 347 346
f 100 346 99
f 454 207 210
f 454 453 207
f 655 152 151
f 655 651 152
f 419 801 804
f 419 425 801
f 382 142 137
f 382 389 142
f 662 173 177
f 662 664 173
f 448 815 814
f 448 443 815
f 245 491 494
f 245 494 250
f 450 196 206
f 450 449 196
f 657 156 155
f 657 654 156
f 420 803 806
f 420 426 803
f 388 146 141
f 388 395 146
f 663 172 174
f 663 665 172
f 444 813 812
f 444 439 813
f 104 353 352
f 104 352 103
f 446 202 205
f 446 445 202
f 660 160 159
f 660 656 160
f 421 805 810
f 421 428 805
f 392 150 145
f 392 394 150
f 659 169 175
f 659 661 169
f 440 809 808
f 440 435 809
f 238 485 492
f 238 492 249
f 442 195 201
f 442 441 195
f 393 154 149
f 393 399 154
f 110 357 356
f 110 356 109
f 438 189 194
f 438 437 189
f 398 158 153
f 398 403 158
f 235 481 486
f 235 486 240
f 434 186 187
f 434 433 186
f 402 162 157
f 402 405 162
f 114 361 360
f 114 360 113
f 431 185 188
f 431 430 185
f 404 166 161
f 404 410 166
f 228 477 482
f 228 482 239
f 423 178 180
f 423 422 178
f 409 168 165
f 409 415 168
f 118 363 362
f 118 362 117
f 414 179 167
f 414 424 179
f 227 473 478
f 227 478 230
f 122 367 366
f 122 366 121
f 223 469 474
f 223 474 229
f 126 373 372
f 126 372 125
f 213 465 470
f 213 470 226
f 130 378 377
f 130 377 129
f 212 461 466
f 212 466 222
f 134 380 379
f 134 379 133
f 211 457 462
f 211 462 219
f 138 383 382
f 138 382 137
f 207 453 458
f 207 458 218
f 142 389 388
f 142 388 141
f 196 449 454
f 196 454 210
f 146 395 392
f 146 392 145
f 202 445 450
f 202 450 206
f 150 394 393
f 150 393 149
f 195 441 446
f 195 446 205
f 154 399 398
f 154 398 153
f 189 437 442
f 189 442 201
f 158 403 402
f 158 402 157
f 186 433 438
f 186 438 194
f 162 405 404
f 162 404 161
f 185 430 434
f 185 434 187
f 166 410 409
f 166 409 165
f 178 422 431
f 178 431 188
f 168 415 414
f 168 414 167
f 179 424 423
f 179 423 180
