v 6.500000 -5.500000 3.342260
v -6.500000 -5.500000 3.111320
v -6.500000 -5.500000 3.342260
v 6.500000 -5.500000 3.111320
v 4.210000 -4.880000 1.000000
v 2.210000 -4.880000 1.000000
v 2.210000 -4.880000 2.200000
v 4.210000 -4.880000 2.200000
v 4.795000 4.880000 1.000000
v 4.795000 4.880000 2.200000
v 2.795000 4.880000 2.200000
v 2.795000 4.880000 1.000000
v -2.210000 -4.880000 1.150000
v -4.210000 -4.880000 1.150000
v -4.210000 -4.880000 2.350000
v -2.210000 -4.880000 2.350000
v 6.000000 -4.809474 3.400000
v 6.000000 -4.809474 3.510000
v 6.000000 -5.000000 3.400000
v 6.000000 -0.040000 6.126750
v 6.000000 -0.040000 6.263660
v 6.000000 -4.729474 3.556190
v 6.000000 -3.795000 2.200000
v 6.000000 -4.729474 3.400000
v 6.000000 -5.000000 0.000000
v 6.000000 -0.370480 4.535780
v 6.000000 -0.353550 4.553550
v 6.000000 -0.335780 4.570480
v 6.000000 -0.386510 4.517200
v 6.000000 -0.317200 4.586510
v 6.000000 -0.297850 4.601600
v 6.000000 -0.401600 4.497850
v 6.000000 -0.415730 4.477790
v 6.000000 -0.277790 4.615730
v 6.000000 -0.428860 4.457050
v 6.000000 -0.257050 4.628860
v 6.000000 -0.440960 4.435700
v 6.000000 -0.235700 4.640960
v 6.000000 -0.213780 4.651990
v 6.000000 -0.451990 4.413780
v 6.000000 -0.461940 4.391340
v 6.000000 -0.191340 4.661940
v 6.000000 -0.168440 4.670770
v 6.000000 -0.470770 4.368440
v 6.000000 -0.145140 4.678470
v 6.000000 -0.478470 4.345140
v 6.000000 -0.121490 4.685020
v 6.000000 -0.485020 4.321490
v 6.000000 -3.795000 1.000000
v 6.000000 -0.097550 4.690390
v 6.000000 -0.490390 4.297550
v 6.000000 -0.494590 4.273370
v 6.000000 -0.073370 4.694590
v 6.000000 -0.497590 4.249010
v 6.000000 -0.049010 4.697590
v 6.000000 -0.499400 4.224530
v 6.000000 -0.024530 4.699400
v 6.000000 0.000000 4.700000
v 6.000000 0.040000 6.126750
v 6.000000 -0.500000 4.200000
v 6.000000 0.024530 4.699400
v 6.000000 0.049010 4.697590
v 6.000000 0.073370 4.694590
v 6.000000 0.097550 4.690390
v 6.000000 0.121490 4.685020
v 6.000000 0.145140 4.678470
v 6.000000 0.168440 4.670770
v 6.000000 0.191340 4.661940
v 6.000000 0.213780 4.651990
v 6.000000 0.235700 4.640960
v 6.000000 0.257050 4.628860
v 6.000000 0.277790 4.615730
v 6.000000 0.297850 4.601600
v 6.000000 0.317200 4.586510
v 6.000000 0.335780 4.570480
v 6.000000 0.353550 4.553550
v 6.000000 0.370480 4.535780
v 6.000000 0.386510 4.517200
v 6.000000 0.401600 4.497850
v 6.000000 0.415730 4.477790
v 6.000000 0.428860 4.457050
v 6.000000 -1.795000 2.200000
v 6.000000 -0.257050 3.771140
v 6.000000 -0.277790 3.784270
v 6.000000 -0.297850 3.798400
v 6.000000 -0.317200 3.813490
v 6.000000 -0.335780 3.829520
v 6.000000 -0.353550 3.846450
v 6.000000 -0.370480 3.864220
v 6.000000 -0.386510 3.882800
v 6.000000 -0.401600 3.902150
v 6.000000 -0.415730 3.922210
v 6.000000 -0.428860 3.942950
v 6.000000 -0.440960 3.964300
v 6.000000 -0.451990 3.986220
v 6.000000 -0.461940 4.008660
v 6.000000 -0.470770 4.031560
v 6.000000 -0.478470 4.054860
v 6.000000 -0.485020 4.078510
v 6.000000 -0.490390 4.102450
v 6.000000 -0.494590 4.126630
v 6.000000 -0.497590 4.150990
v 6.000000 -0.499400 4.175470
v 6.000000 -0.235700 3.759040
v 6.000000 -0.213780 3.748010
v 6.000000 -0.191340 3.738060
v 6.000000 -0.168440 3.729230
v 6.000000 -0.145140 3.721530
v 6.000000 -0.121490 3.714980
v 6.000000 -0.097550 3.709610
v 6.000000 -0.073370 3.705410
v 6.000000 -0.049010 3.702410
v 6.000000 -0.024530 3.700600
v 6.000000 -1.795000 1.000000
v 6.000000 1.502390 2.200000
v 6.000000 0.497590 4.150990
v 6.000000 0.494590 4.126630
v 6.000000 0.490390 4.102450
v 6.000000 0.485020 4.078510
v 6.000000 0.478470 4.054860
v 6.000000 0.470770 4.031560
v 6.000000 0.461940 4.008660
v 6.000000 0.451990 3.986220
v 6.000000 0.440960 3.964300
v 6.000000 0.428860 3.942950
v 6.000000 0.415730 3.922210
v 6.000000 0.401600 3.902150
v 6.000000 0.386510 3.882800
v 6.000000 0.370480 3.864220
v 6.000000 0.353550 3.846450
v 6.000000 0.335780 3.829520
v 6.000000 0.317200 3.813490
v 6.000000 0.297850 3.798400
v 6.000000 0.277790 3.784270
v 6.000000 0.257050 3.771140
v 6.000000 0.235700 3.759040
v 6.000000 0.213780 3.748010
v 6.000000 0.191340 3.738060
v 6.000000 0.168440 3.729230
v 6.000000 0.145140 3.721530
v 6.000000 0.121490 3.714980
v 6.000000 0.097550 3.709610
v 6.000000 0.073370 3.705410
v 6.000000 0.049010 3.702410
v 6.000000 0.024530 3.700600
v 6.000000 0.000000 3.700000
v 6.000000 1.502390 1.000000
v 6.000000 4.729470 3.556190
v 6.000000 0.040000 6.263660
v 6.000000 0.440960 4.435700
v 6.000000 0.451990 4.413780
v 6.000000 0.461940 4.391340
v 6.000000 0.470770 4.368440
v 6.000000 0.478470 4.345140
v 6.000000 0.485020 4.321490
v 6.000000 0.490390 4.297550
v 6.000000 0.494590 4.273370
v 6.000000 0.497590 4.249010
v 6.000000 0.499400 4.224530
v 6.000000 0.500000 4.200000
v 6.000000 3.502390 2.200000
v 6.000000 0.499400 4.175470
v 6.000000 4.729470 3.400000
v 6.000000 4.809470 3.400000
v 6.000000 5.000000 3.400000
v 6.000000 4.809470 3.510000
v 6.000000 5.000000 0.000000
v 6.000000 3.502390 1.000000
v -6.000000 -5.000000 3.400000
v -6.000000 -3.795000 1.150000
v -6.000000 -5.000000 0.000000
v -6.000000 -3.795000 2.350000
v -6.000000 -4.809474 3.400000
v -6.000000 -4.729474 3.400000
v -6.000000 -4.809474 3.510000
v -6.000000 -4.729474 3.556190
v -6.000000 -1.795000 1.150000
v -6.000000 -0.505000 0.200000
v -6.000000 -1.795000 2.350000
v -6.000000 -0.505000 2.210000
v -6.000000 0.505000 2.210000
v -6.000000 1.495000 1.000000
v -6.000000 0.505000 0.200000
v -6.000000 -0.353550 3.846450
v -6.000000 -0.370480 3.864220
v -6.000000 -0.335780 3.829520
v -6.000000 -0.317200 3.813490
v -6.000000 -0.386510 3.882800
v -6.000000 -0.297850 3.798400
v -6.000000 -0.401600 3.902150
v -6.000000 -0.277790 3.784270
v -6.000000 -0.415730 3.922210
v -6.000000 -0.257050 3.771140
v -6.000000 -0.428860 3.942950
v -6.000000 -0.235700 3.759040
v -6.000000 -0.440960 3.964300
v -6.000000 -0.451990 3.986220
v -6.000000 -0.213780 3.748010
v -6.000000 -0.461940 4.008660
v -6.000000 -0.191340 3.738060
v -6.000000 -0.470770 4.031560
v -6.000000 -0.168440 3.729230
v -6.000000 -0.145140 3.721530
v -6.000000 -0.478470 4.054860
v -6.000000 -0.121490 3.714980
v -6.000000 -0.485020 4.078510
v -6.000000 -0.490390 4.102450
v -6.000000 -0.097550 3.709610
v -6.000000 -0.073370 3.705410
v -6.000000 -0.494590 4.126630
v -6.000000 -0.497590 4.150990
v -6.000000 -0.049010 3.702410
v -6.000000 -0.499400 4.175470
v -6.000000 -0.024530 3.700600
v -6.000000 1.495000 2.200000
v -6.000000 -0.500000 4.200000
v -6.000000 0.000000 3.700000
v -6.000000 -0.499400 4.224530
v -6.000000 0.024530 3.700600
v -6.000000 0.049010 3.702410
v -6.000000 -0.497590 4.249010
v -6.000000 0.073370 3.705410
v -6.000000 -0.494590 4.273370
v -6.000000 -0.490390 4.297550
v -6.000000 0.097550 3.709610
v -6.000000 0.121490 3.714980
v -6.000000 -0.485020 4.321490
v -6.000000 0.145140 3.721530
v -6.000000 -0.478470 4.345140
v -6.000000 -0.470770 4.368440
v -6.000000 0.168440 3.729230
v -6.000000 -0.461940 4.391340
v -6.000000 0.191340 3.738060
v -6.000000 -0.451990 4.413780
v -6.000000 0.213780 3.748010
v -6.000000 0.235700 3.759040
v -6.000000 -0.440960 4.435700
v -6.000000 0.257050 3.771140
v -6.000000 -0.428860 4.457050
v -6.000000 0.277790 3.784270
v -6.000000 0.297850 3.798400
v -6.000000 0.317200 3.813490
v -6.000000 0.335780 3.829520
v -6.000000 0.353550 3.846450
v -6.000000 0.370480 3.864220
v -6.000000 0.386510 3.882800
v -6.000000 0.401600 3.902150
v -6.000000 0.415730 3.922210
v -6.000000 0.428860 3.942950
v -6.000000 0.440960 3.964300
v -6.000000 0.451990 3.986220
v -6.000000 0.461940 4.008660
v -6.000000 3.495000 1.000000
v -6.000000 0.470770 4.031560
v -6.000000 0.478470 4.054860
v -6.000000 0.485020 4.078510
v -6.000000 0.490390 4.102450
v -6.000000 0.494590 4.126630
v -6.000000 0.497590 4.150990
v -6.000000 5.000000 0.000000
v -6.000000 3.495000 2.200000
v -6.000000 0.499400 4.175470
v -6.000000 0.500000 4.200000
v -6.000000 -0.040000 6.126750
v -6.000000 0.000000 4.700000
v -6.000000 -0.024530 4.699400
v -6.000000 -0.049010 4.697590
v -6.000000 -0.073370 4.694590
v -6.000000 -0.097550 4.690390
v -6.000000 -0.121490 4.685020
v -6.000000 -0.145140 4.678470
v -6.000000 -0.168440 4.670770
v -6.000000 -0.191340 4.661940
v -6.000000 -0.213780 4.651990
v -6.000000 -0.235700 4.640960
v -6.000000 -0.257050 4.628860
v -6.000000 -0.277790 4.615730
v -6.000000 -0.297850 4.601600
v -6.000000 -0.317200 4.586510
v -6.000000 -0.335780 4.570480
v -6.000000 -0.353550 4.553550
v -6.000000 -0.370480 4.535780
v -6.000000 -0.386510 4.517200
v -6.000000 -0.401600 4.497850
v -6.000000 -0.415730 4.477790
v -6.000000 0.040000 6.126750
v -6.000000 0.428860 4.457050
v -6.000000 0.415730 4.477790
v -6.000000 0.401600 4.497850
v -6.000000 0.386510 4.517200
v -6.000000 0.370480 4.535780
v -6.000000 0.353550 4.553550
v -6.000000 0.335780 4.570480
v -6.000000 0.317200 4.586510
v -6.000000 0.297850 4.601600
v -6.000000 0.277790 4.615730
v -6.000000 0.257050 4.628860
v -6.000000 0.235700 4.640960
v -6.000000 0.213780 4.651990
v -6.000000 0.191340 4.661940
v -6.000000 0.168440 4.670770
v -6.000000 0.145140 4.678470
v -6.000000 0.121490 4.685020
v -6.000000 0.097550 4.690390
v -6.000000 0.073370 4.694590
v -6.000000 0.049010 4.697590
v -6.000000 0.024530 4.699400
v -6.000000 -0.040000 6.263660
v -6.000000 4.809470 3.400000
v -6.000000 4.729470 3.400000
v -6.000000 4.729470 3.556190
v -6.000000 0.461940 4.391340
v -6.000000 0.451990 4.413780
v -6.000000 0.440960 4.435700
v -6.000000 0.040000 6.263660
v -6.000000 0.499400 4.224530
v -6.000000 0.497590 4.249010
v -6.000000 0.494590 4.273370
v -6.000000 0.490390 4.297550
v -6.000000 0.485020 4.321490
v -6.000000 0.478470 4.345140
v -6.000000 0.470770 4.368440
v -6.000000 5.000000 3.400000
v -6.000000 4.809470 3.510000
v -5.840000 0.505000 2.210000
v -5.840000 -0.505000 2.210000
v -5.840000 -0.505000 0.200000
v -5.840000 0.505000 0.200000
v 5.700000 -0.024530 4.699400
v 5.700000 -0.049010 4.697590
v 5.880000 1.502390 2.200000
v 5.880000 3.502390 2.200000
v 5.880000 3.502390 1.000000
v 5.880000 1.502390 1.000000
v 6.500000 -4.809474 3.510000
v 6.500000 -4.729474 3.400000
v 6.500000 -4.809474 3.400000
v 6.500000 -4.729474 3.556190
v 6.500000 -0.040000 6.263660
v 6.500000 0.040000 6.126750
v 6.500000 -0.040000 6.126750
v 6.500000 0.040000 6.263660
v 6.500000 0.000000 6.517690
v 6.500000 4.729470 3.556190
v 6.500000 4.809470 3.510000
v 6.500000 4.729470 3.400000
v 6.500000 4.809470 3.400000
v 6.500000 5.500000 3.342260
v 6.500000 5.500000 3.111320
v 5.700000 -0.499400 4.175470
v 5.700000 -0.500000 4.200000
v -6.500000 -4.729474 3.556190
v -6.500000 -4.809474 3.510000
v -6.500000 -4.729474 3.400000
v -6.500000 -4.809474 3.400000
v -6.500000 -0.040000 6.263660
v -6.500000 0.000000 6.517690
v -6.500000 0.040000 6.263660
v -6.500000 0.040000 6.126750
v -6.500000 -0.040000 6.126750
v -6.500000 4.729470 3.556190
v -6.500000 4.729470 3.400000
v -6.500000 4.809470 3.510000
v -6.500000 4.809470 3.400000
v -6.500000 5.500000 3.342260
v -6.500000 5.500000 3.111320
v -2.950000 4.880000 1.000000
v -2.950000 4.880000 2.200000
v -4.950000 4.880000 2.200000
v -4.950000 4.880000 1.000000
v 5.700000 0.500000 4.200000
v 5.700000 0.499400 4.224530
v 4.795000 5.000000 2.200000
v 4.795000 5.000000 1.000000
v 2.795000 5.000000 2.200000
v 2.795000 5.000000 1.000000
v 0.660000 5.000000 2.200000
v 0.660000 5.000000 1.000000
v -2.950000 5.000000 1.000000
v -1.340000 5.000000 2.200000
v -1.340000 5.000000 1.000000
v -2.950000 5.000000 2.200000
v -4.950000 5.000000 2.200000
v -4.950000 5.000000 1.000000
v 0.660000 4.880000 1.000000
v 0.660000 4.880000 2.200000
v -1.340000 4.880000 2.200000
v -1.340000 4.880000 1.000000
v 5.700000 -0.497590 4.150990
v 1.005000 -4.880000 0.200000
v -1.005000 -4.880000 0.200000
v -1.005000 -4.880000 2.575000
v 1.005000 -4.880000 2.575000
v 5.880000 -3.795000 1.000000
v 5.880000 -3.795000 2.200000
v 5.880000 -1.795000 2.200000
v 5.880000 -1.795000 1.000000
v -5.815000 -0.497590 4.249010
v -5.815000 -0.499400 4.224530
v -5.815000 -0.024530 3.700600
v -5.815000 0.000000 3.700000
v 5.885000 -0.461940 4.391340
v 5.885000 -0.451990 4.413780
v 4.210000 -5.000000 2.200000
v 4.210000 -5.000000 1.000000
v 1.005000 -5.000000 0.200000
v 2.210000 -5.000000 1.000000
v 2.210000 -5.000000 2.200000
v 1.005000 -5.000000 2.575000
v -1.005000 -5.000000 2.575000
v -2.210000 -5.000000 1.150000
v -1.005000 -5.000000 0.200000
v -2.210000 -5.000000 2.350000
v -4.210000 -5.000000 1.150000
v -4.210000 -5.000000 2.350000
v 5.885000 -0.470770 4.031560
v 5.885000 -0.478470 4.054860
v 5.885000 0.478470 4.345140
v 5.885000 0.485020 4.321490
v 5.885000 -0.121490 3.714980
v 5.885000 -0.145140 3.721530
v 5.885000 0.235700 3.759040
v 5.885000 0.213780 3.748010
v 5.885000 -0.317200 4.586510
v 5.885000 -0.297850 4.601600
v 5.885000 -0.401600 4.497850
v 5.885000 -0.386510 4.517200
v 5.885000 0.428860 4.457050
v 5.885000 0.440960 4.435700
v 5.885000 -0.097550 4.690390
v 5.885000 -0.073370 4.694590
v 5.885000 0.145140 4.678470
v 5.885000 0.168440 4.670770
v 5.885000 -0.494590 4.273370
v 5.885000 -0.490390 4.297550
v 5.885000 -0.415730 3.922210
v 5.885000 -0.428860 3.942950
v 5.885000 0.257050 4.628860
v 5.885000 0.277790 4.615730
v 5.885000 0.121490 3.714980
v 5.885000 0.097550 3.709610
v 5.885000 0.335780 3.829520
v 5.885000 0.317200 3.813490
v 5.885000 0.415730 3.922210
v 5.885000 0.401600 3.902150
v 5.885000 0.353550 4.553550
v 5.885000 0.370480 4.535780
v 5.885000 0.000000 3.700000
v 5.885000 -0.024530 3.700600
v 5.885000 -0.213780 4.651990
v 5.885000 -0.191340 4.661940
v 5.885000 -0.235700 3.759040
v 5.885000 -0.257050 3.771140
v 5.885000 0.024530 4.699400
v 5.885000 0.049010 4.697590
v 5.885000 -0.335780 3.829520
v 5.885000 -0.353550 3.846450
v 5.700000 0.497590 4.249010
v 5.885000 -0.494590 4.126630
v 5.885000 -0.497590 4.150990
v -5.815000 -0.049010 3.702410
v -5.815000 0.024530 4.699400
v -5.815000 0.000000 4.700000
v -5.880000 3.495000 2.200000
v -5.880000 1.495000 2.200000
v -5.880000 1.495000 1.000000
v -5.880000 3.495000 1.000000
v 5.885000 -0.470770 4.368440
v 5.885000 -0.461940 4.008660
v 5.885000 -0.335780 4.570480
v 5.885000 0.470770 4.368440
v 5.885000 0.257050 3.771140
v 5.885000 -0.415730 4.477790
v 5.885000 -0.497590 4.249010
v 5.885000 0.353550 3.846450
v 5.885000 -0.401600 3.902150
v 5.885000 0.428860 3.942950
v 5.885000 0.415730 4.477790
v 5.885000 -0.097550 3.709610
v 5.885000 -0.121490 4.685020
v 5.885000 0.145140 3.721530
v 5.700000 0.000000 3.700000
v 5.700000 0.024530 3.700600
v 5.885000 0.235700 4.640960
v 5.885000 -0.213780 3.748010
v 5.885000 -0.235700 4.640960
v 5.885000 0.000000 4.700000
v 5.885000 0.121490 4.685020
v 5.885000 0.335780 4.570480
v 5.885000 -0.317200 3.813490
v 5.885000 0.494590 4.273370
v 5.885000 0.497590 4.249010
v -5.880000 -1.795000 2.350000
v -5.880000 -3.795000 2.350000
v -5.880000 -3.795000 1.150000
v -5.880000 -1.795000 1.150000
v 5.885000 -0.490390 4.102450
v 5.885000 -0.451990 3.986220
v 5.700000 0.049010 3.702410
v 5.885000 -0.478470 4.345140
v -5.815000 0.049010 4.697590
v 5.885000 -0.386510 3.882800
v 5.885000 0.277790 3.784270
v 5.885000 -0.353550 4.553550
v 5.885000 -0.428860 4.457050
v 5.885000 0.461940 4.391340
v 5.885000 -0.499400 4.224530
v 5.885000 0.370480 3.864220
v 5.885000 0.440960 3.964300
v 5.885000 0.168440 3.729230
v 5.885000 -0.073370 3.705410
v 5.885000 -0.145140 4.678470
v 5.885000 0.401600 4.497850
v 5.885000 -0.257050 4.628860
v 5.885000 0.317200 4.586510
v 5.885000 0.213780 4.651990
v 5.885000 -0.191340 3.738060
v 5.885000 -0.297850 3.798400
v 5.885000 0.097550 4.690390
v 5.885000 0.490390 4.297550
v 5.700000 0.000000 4.700000
v 5.885000 -0.485020 4.078510
v 5.885000 -0.440960 3.964300
v -5.815000 0.499400 4.175470
v -5.815000 0.500000 4.200000
v 5.885000 -0.485020 4.321490
v 5.885000 -0.370480 3.864220
v 5.885000 0.297850 3.798400
v 5.885000 0.386510 3.882800
v 5.885000 0.191340 3.738060
v 5.885000 -0.440960 4.435700
v 5.885000 0.451990 4.413780
v 5.885000 -0.370480 4.535780
v 5.885000 0.451990 3.986220
v 5.885000 -0.500000 4.200000
v 5.885000 -0.049010 3.702410
v 5.885000 -0.168440 4.670770
v 5.885000 0.386510 4.517200
v 5.885000 -0.277790 3.784270
v 5.885000 -0.277790 4.615730
v 5.885000 -0.168440 3.729230
v 5.885000 0.191340 4.661940
v 5.885000 0.297850 4.601600
v 5.885000 0.073370 3.705410
v 5.885000 0.049010 3.702410
v 5.885000 0.073370 4.694590
v -5.815000 0.497590 4.150990
v 5.885000 0.461940 4.008660
v 5.885000 0.470770 4.031560
v 5.885000 -0.049010 4.697590
v 5.885000 0.478470 4.054860
v 5.885000 0.485020 4.078510
v 5.885000 0.490390 4.102450
v 5.885000 0.494590 4.126630
v 5.885000 0.497590 4.150990
v 5.885000 0.499400 4.175470
v 5.885000 0.500000 4.200000
v -5.815000 -0.500000 4.200000
v -5.905000 0.213780 3.748010
v -5.905000 0.235700 3.759040
v -5.905000 0.497590 4.249010
v -5.905000 0.494590 4.273370
v -5.905000 0.000000 4.700000
v -5.905000 -0.024530 4.699400
v -5.905000 -0.478470 4.054860
v -5.905000 -0.470770 4.031560
v -5.905000 -0.145140 3.721530
v -5.905000 -0.121490 3.714980
v -5.905000 -0.415730 4.477790
v -5.905000 -0.428860 4.457050
v -5.905000 -0.335780 4.570480
v -5.905000 -0.353550 4.553550
v -5.905000 -0.121490 4.685020
v -5.905000 -0.145140 4.678470
v -5.905000 0.317200 3.813490
v -5.905000 0.335780 3.829520
v -5.905000 0.494590 4.126630
v -5.905000 0.497590 4.150990
v -5.905000 0.097550 3.709610
v -5.905000 0.121490 3.714980
v -5.905000 0.470770 4.368440
v -5.905000 0.461940 4.391340
v -5.905000 -0.257050 3.771140
v -5.905000 -0.235700 3.759040
v -5.905000 0.335780 4.570480
v -5.905000 0.317200 4.586510
v -5.905000 -0.499400 4.175470
v -5.905000 -0.497590 4.150990
v -5.905000 -0.428860 3.942950
v -5.905000 -0.415730 3.922210
v -5.905000 -0.470770 4.368440
v -5.905000 -0.478470 4.345140
v -5.905000 0.401600 3.902150
v -5.905000 0.415730 3.922210
v -5.905000 -0.235700 4.640960
v -5.905000 -0.257050 4.628860
v -5.905000 0.235700 4.640960
v -5.905000 0.213780 4.651990
v -5.905000 0.461940 4.008660
v -5.905000 0.470770 4.031560
v -5.905000 -0.353550 3.846450
v -5.905000 -0.335780 3.829520
v -5.905000 0.121490 4.685020
v -5.905000 0.097550 4.690390
v -5.905000 0.415730 4.477790
v -5.905000 0.401600 4.497850
v -5.905000 0.191340 3.738060
v -5.905000 -0.168440 3.729230
v -5.905000 -0.485020 4.078510
v -5.905000 0.490390 4.102450
v -5.905000 -0.401600 4.497850
v -5.905000 0.499400 4.224530
v -5.905000 0.297850 3.798400
v -5.905000 0.073370 3.705410
v -5.905000 0.478470 4.345140
v -5.905000 -0.277790 3.784270
v -5.815000 -0.097550 4.690390
v -5.815000 -0.121490 4.685020
v -5.905000 -0.317200 4.586510
v -5.905000 0.451990 3.986220
v -5.905000 -0.500000 4.200000
v -5.905000 -0.440960 3.964300
v -5.905000 -0.494590 4.273370
v -5.905000 -0.497590 4.249010
v -5.905000 -0.213780 4.651990
v -5.905000 0.145140 4.678470
v -5.905000 0.353550 4.553550
v -5.905000 -0.461940 4.391340
v -5.905000 -0.370480 3.864220
v -5.905000 0.386510 3.882800
v -5.905000 0.428860 4.457050
v -5.905000 0.257050 4.628860
v -5.905000 0.168440 3.729230
v -5.905000 -0.191340 3.738060
v -5.905000 -0.490390 4.102450
v -5.905000 0.485020 4.078510
v -5.905000 0.500000 4.200000
v -5.905000 0.277790 3.784270
v -5.905000 -0.386510 4.517200
v -5.905000 -0.073370 3.705410
v -5.905000 -0.049010 3.702410
v -5.905000 0.049010 3.702410
v -5.905000 -0.297850 3.798400
v -5.905000 -0.073370 4.694590
v -5.905000 -0.097550 4.690390
v -5.905000 -0.451990 3.986220
v -5.905000 0.485020 4.321490
v -5.905000 -0.191340 4.661940
v -5.905000 -0.386510 3.882800
v -5.905000 0.168440 4.670770
v -5.905000 -0.297850 4.601600
v -5.905000 0.370480 3.864220
v -5.905000 0.440960 3.964300
v -5.905000 -0.490390 4.297550
v -5.905000 0.277790 4.615730
v -5.905000 0.440960 4.435700
v -5.905000 0.370480 4.535780
v -5.905000 -0.451990 4.413780
v -5.905000 0.145140 3.721530
v -5.905000 -0.213780 3.748010
v -5.905000 -0.494590 4.126630
v -5.905000 0.478470 4.054860
v -5.905000 0.257050 3.771140
v -5.905000 -0.097550 3.709610
v -5.905000 -0.461940 4.008660
v -5.905000 -0.317200 3.813490
v -5.905000 0.073370 4.694590
v -5.905000 0.049010 4.697590
v -5.905000 0.024530 3.700600
v -5.905000 -0.370480 4.535780
v -5.905000 0.490390 4.297550
v -5.905000 -0.401600 3.902150
v -5.905000 -0.049010 4.697590
v -5.905000 0.191340 4.661940
v -5.905000 -0.168440 4.670770
v -5.905000 -0.277790 4.615730
v -5.905000 0.297850 4.601600
v -5.905000 0.428860 3.942950
v -5.905000 0.353550 3.846450
v -5.905000 0.451990 4.413780
v -5.905000 -0.485020 4.321490
v -5.905000 -0.440960 4.435700
v -5.905000 0.386510 4.517200
v -5.905000 0.000000 3.700000
f 1 2 3
f 1 4 2
f 5 6 7
f 5 7 8
f 9 10 11
f 9 11 12
f 13 14 15
f 13 15 16
f 17 18 19
f 20 21 22
f 23 22 24
f 23 24 17
f 23 17 19
f 25 23 19
f 26 27 20
f 28 20 27
f 29 26 20
f 30 20 28
f 31 20 30
f 32 29 20
f 33 32 20
f 34 20 31
f 35 20 22
f 35 33 20
f 36 20 34
f 37 35 22
f 38 20 36
f 39 20 38
f 40 37 22
f 41 40 22
f 42 20 39
f 43 20 42
f 44 41 22
f 45 20 43
f 46 44 22
f 47 20 45
f 48 46 22
f 49 23 25
f 50 20 47
f 51 48 22
f 52 51 22
f 53 20 50
f 54 52 22
f 55 20 53
f 56 54 22
f 57 20 55
f 58 59 20
f 58 20 57
f 60 56 22
f 61 59 58
f 62 59 61
f 63 59 62
f 64 59 63
f 65 59 64
f 66 59 65
f 67 59 66
f 68 59 67
f 69 59 68
f 70 59 69
f 71 59 70
f 72 59 71
f 73 59 72
f 74 59 73
f 75 59 74
f 76 59 75
f 77 59 76
f 78 59 77
f 79 59 78
f 80 59 79
f 81 59 80
f 82 60 22
f 82 22 23
f 82 83 84
f 82 84 85
f 82 85 86
f 82 86 87
f 82 87 88
f 82 88 89
f 82 89 90
f 82 90 91
f 82 91 92
f 82 92 93
f 82 93 94
f 82 94 95
f 82 95 96
f 82 96 97
f 82 97 98
f 82 98 99
f 82 99 100
f 82 100 101
f 82 101 102
f 82 102 103
f 82 103 60
f 104 83 82
f 105 104 82
f 106 105 82
f 107 106 82
f 108 107 82
f 109 108 82
f 110 109 82
f 111 110 82
f 112 111 82
f 113 112 82
f 114 49 25
f 115 116 117
f 115 117 118
f 115 118 119
f 115 119 120
f 115 120 121
f 115 121 122
f 115 122 123
f 115 123 124
f 115 124 125
f 115 125 126
f 115 126 127
f 115 127 128
f 115 128 129
f 115 129 130
f 115 130 131
f 115 131 132
f 115 132 133
f 115 133 134
f 115 134 135
f 115 135 136
f 115 136 137
f 115 137 138
f 115 138 139
f 115 139 140
f 115 140 141
f 115 141 142
f 115 142 143
f 115 143 144
f 115 144 145
f 115 145 146
f 115 146 113
f 115 113 82
f 147 114 25
f 147 82 114
f 147 115 82
f 148 149 59
f 148 59 81
f 148 81 150
f 148 150 151
f 148 151 152
f 148 152 153
f 148 153 154
f 148 154 155
f 148 155 156
f 148 156 157
f 148 157 158
f 148 158 159
f 148 159 160
f 161 116 115
f 161 148 160
f 161 160 162
f 161 162 116
f 163 148 161
f 164 163 161
f 165 166 164
f 165 164 161
f 167 147 25
f 167 161 168
f 167 168 147
f 167 165 161
f 169 170 171
f 172 170 169
f 173 172 169
f 174 172 173
f 175 173 169
f 176 172 174
f 177 171 170
f 178 171 177
f 179 172 176
f 180 177 179
f 180 178 177
f 181 182 183
f 184 180 179
f 185 184 179
f 186 180 184
f 187 180 186
f 188 185 179
f 189 180 187
f 190 188 179
f 191 180 189
f 192 190 179
f 193 180 191
f 194 192 179
f 195 180 193
f 196 194 179
f 197 196 179
f 198 180 195
f 199 197 179
f 200 180 198
f 201 199 179
f 202 180 200
f 203 180 202
f 204 201 179
f 205 180 203
f 206 204 179
f 207 206 179
f 208 180 205
f 209 180 208
f 210 207 179
f 211 210 179
f 212 180 209
f 213 211 179
f 214 180 212
f 215 182 181
f 216 213 179
f 217 181 180
f 217 180 214
f 218 216 179
f 218 179 176
f 219 181 217
f 220 181 219
f 221 218 176
f 222 181 220
f 223 221 176
f 224 223 176
f 225 181 222
f 226 181 225
f 227 224 176
f 228 181 226
f 229 227 176
f 230 229 176
f 231 181 228
f 232 230 176
f 233 181 231
f 234 232 176
f 235 181 233
f 236 181 235
f 237 234 176
f 238 181 236
f 239 237 176
f 240 181 238
f 241 181 240
f 242 181 241
f 243 181 242
f 243 215 181
f 244 215 243
f 245 215 244
f 246 215 245
f 247 215 246
f 248 215 247
f 249 215 248
f 250 215 249
f 251 215 250
f 252 215 251
f 253 183 182
f 254 215 252
f 255 215 254
f 256 215 255
f 257 215 256
f 258 215 257
f 259 215 258
f 260 183 253
f 261 260 253
f 261 215 259
f 261 259 262
f 261 262 263
f 264 239 176
f 264 265 266
f 264 266 267
f 264 267 268
f 264 268 269
f 264 269 270
f 264 270 271
f 264 271 272
f 264 272 273
f 264 273 274
f 264 274 275
f 264 275 276
f 264 276 277
f 264 277 278
f 264 278 279
f 264 279 280
f 264 280 281
f 264 281 282
f 264 282 283
f 264 283 284
f 264 284 285
f 264 285 239
f 286 287 288
f 286 288 289
f 286 289 290
f 286 290 291
f 286 291 292
f 286 292 293
f 286 293 294
f 286 294 295
f 286 295 296
f 286 296 297
f 286 297 298
f 286 298 299
f 286 299 300
f 286 300 301
f 286 301 302
f 286 302 303
f 286 303 304
f 286 304 305
f 286 305 306
f 286 306 307
f 286 307 265
f 286 265 264
f 308 264 176
f 309 261 310
f 311 312 313
f 311 313 314
f 311 314 287
f 311 310 261
f 311 286 315
f 311 287 286
f 311 261 263
f 311 263 316
f 311 316 317
f 311 317 318
f 311 318 319
f 311 319 320
f 311 320 321
f 311 321 322
f 311 322 312
f 323 260 261
f 323 309 324
f 323 261 309
f 260 171 178
f 260 178 183
f 325 326 327
f 325 327 328
f 329 55 330
f 329 57 55
f 167 260 171
f 167 171 25
f 331 332 333
f 331 333 334
f 335 336 337
f 338 336 335
f 338 335 1
f 339 340 341
f 342 340 339
f 343 339 338
f 343 342 339
f 344 342 343
f 345 346 344
f 345 347 346
f 348 344 343
f 348 345 344
f 335 4 1
f 1 343 338
f 349 345 348
f 350 351 60
f 350 60 103
f 352 3 353
f 354 353 355
f 354 352 353
f 356 357 352
f 358 357 356
f 359 356 360
f 359 358 356
f 361 357 358
f 362 363 361
f 364 363 362
f 365 357 361
f 365 361 363
f 363 366 365
f 357 3 352
f 2 353 3
f 367 368 369
f 367 369 370
f 371 159 372
f 371 160 159
f 349 348 365
f 349 365 366
f 167 373 165
f 374 373 167
f 375 165 373
f 376 374 167
f 377 165 375
f 378 375 376
f 378 377 375
f 378 376 167
f 379 380 381
f 379 382 380
f 323 380 382
f 383 323 382
f 260 383 384
f 260 384 379
f 260 379 381
f 260 323 383
f 167 260 378
f 378 260 381
f 323 165 377
f 323 377 380
f 385 386 387
f 385 387 388
f 350 103 102
f 389 350 102
f 390 391 392
f 390 392 393
f 394 395 396
f 394 396 397
f 398 399 218
f 398 218 221
f 217 400 401
f 217 214 400
f 40 402 403
f 40 41 402
f 404 25 19
f 404 405 25
f 406 405 407
f 406 25 405
f 408 404 19
f 409 407 408
f 409 408 19
f 409 406 407
f 410 411 412
f 413 411 410
f 414 412 411
f 171 412 414
f 169 414 415
f 169 415 413
f 169 413 410
f 169 171 414
f 171 25 406
f 171 406 412
f 19 169 410
f 19 410 409
f 98 416 417
f 98 97 416
f 155 418 419
f 155 154 418
f 420 421 108
f 420 108 109
f 422 423 137
f 422 137 136
f 424 425 31
f 424 31 30
f 29 426 427
f 29 32 426
f 150 428 429
f 150 81 428
f 430 431 53
f 430 53 50
f 432 433 67
f 432 67 66
f 51 434 435
f 51 52 434
f 93 436 437
f 93 92 436
f 438 439 72
f 438 72 71
f 440 441 142
f 440 142 141
f 442 443 132
f 442 132 131
f 127 444 445
f 127 126 444
f 77 446 447
f 77 76 446
f 448 449 113
f 448 113 146
f 450 451 42
f 450 42 39
f 452 453 83
f 452 83 104
f 454 455 62
f 454 62 61
f 456 457 88
f 456 88 87
f 158 458 372
f 158 372 159
f 102 459 460
f 102 101 459
f 214 461 400
f 214 212 461
f 265 462 463
f 265 307 462
f 464 465 466
f 464 466 467
f 41 468 402
f 41 44 468
f 97 469 416
f 97 96 469
f 470 424 30
f 470 30 28
f 154 471 418
f 154 153 471
f 472 422 136
f 472 136 135
f 32 473 426
f 32 33 473
f 52 474 434
f 52 54 474
f 475 442 131
f 475 131 130
f 92 476 436
f 92 91 476
f 126 477 444
f 126 125 477
f 81 478 428
f 81 80 478
f 479 420 109
f 479 109 110
f 480 430 50
f 480 50 47
f 481 440 141
f 481 141 140
f 482 146 145
f 483 482 145
f 484 438 71
f 484 71 70
f 485 452 104
f 485 104 105
f 486 450 39
f 486 39 38
f 487 454 61
f 487 61 58
f 488 432 66
f 488 66 65
f 489 446 76
f 489 76 75
f 490 456 87
f 490 87 86
f 158 491 492
f 158 157 491
f 493 494 495
f 493 495 496
f 101 497 459
f 101 100 497
f 96 498 469
f 96 95 498
f 499 483 145
f 499 145 144
f 44 500 468
f 44 46 500
f 307 501 462
f 307 306 501
f 91 502 476
f 91 90 502
f 503 472 135
f 503 135 134
f 504 470 28
f 504 28 27
f 33 505 473
f 33 35 505
f 153 506 471
f 153 152 506
f 54 507 474
f 54 56 507
f 130 508 475
f 130 129 508
f 125 509 477
f 125 124 509
f 510 481 140
f 510 140 139
f 511 479 110
f 511 110 111
f 512 480 47
f 512 47 45
f 80 513 478
f 80 79 513
f 514 486 38
f 514 38 36
f 515 489 75
f 515 75 74
f 516 484 70
f 516 70 69
f 517 485 105
f 517 105 106
f 518 490 86
f 518 86 85
f 519 488 65
f 519 65 64
f 157 520 491
f 157 156 520
f 329 521 58
f 329 58 57
f 100 522 497
f 100 99 522
f 95 523 498
f 95 94 523
f 524 525 263
f 524 263 262
f 46 526 500
f 46 48 526
f 90 527 502
f 90 89 527
f 528 503 134
f 528 134 133
f 129 529 508
f 129 128 529
f 530 510 139
f 530 139 138
f 35 531 505
f 35 37 531
f 152 532 506
f 152 151 532
f 27 533 504
f 27 26 533
f 124 534 509
f 124 123 534
f 56 535 507
f 56 60 535
f 536 511 111
f 536 111 112
f 537 512 45
f 537 45 43
f 79 538 513
f 79 78 538
f 539 518 85
f 539 85 84
f 540 514 36
f 540 36 34
f 541 517 106
f 541 106 107
f 542 516 69
f 542 69 68
f 156 419 520
f 156 155 419
f 543 515 74
f 543 74 73
f 544 545 144
f 544 144 143
f 546 519 64
f 546 64 63
f 94 437 523
f 94 93 437
f 547 524 262
f 547 262 259
f 99 417 522
f 99 98 417
f 89 457 527
f 89 88 457
f 48 435 526
f 48 51 435
f 423 530 138
f 423 138 137
f 128 445 529
f 128 127 445
f 123 548 534
f 123 122 548
f 443 528 133
f 443 133 132
f 37 403 531
f 37 40 403
f 151 429 532
f 151 150 429
f 26 427 533
f 26 29 427
f 449 536 112
f 449 112 113
f 451 537 43
f 451 43 42
f 421 541 107
f 421 107 108
f 78 447 538
f 78 77 447
f 453 539 84
f 453 84 83
f 425 540 34
f 425 34 31
f 433 542 68
f 433 68 67
f 441 544 143
f 441 143 142
f 439 543 73
f 439 73 72
f 455 546 63
f 455 63 62
f 122 549 548
f 122 121 549
f 431 550 55
f 431 55 53
f 121 551 549
f 121 120 551
f 120 552 551
f 120 119 552
f 119 553 552
f 119 118 553
f 118 554 553
f 118 117 554
f 117 555 554
f 117 116 555
f 3 1 343
f 357 3 343
f 116 556 555
f 116 162 556
f 162 557 556
f 162 160 557
f 365 357 343
f 365 343 348
f 399 558 216
f 399 216 218
f 6 5 405
f 6 405 407
f 382 383 369
f 382 369 368
f 464 467 253
f 464 253 261
f 82 396 395
f 82 395 23
f 412 392 391
f 412 410 392
f 376 374 9
f 376 9 12
f 386 385 378
f 386 378 377
f 409 390 393
f 409 406 390
f 413 411 13
f 413 13 16
f 177 496 495
f 177 495 170
f 414 415 15
f 414 15 14
f 382 368 367
f 382 367 379
f 49 23 395
f 49 395 394
f 381 378 385
f 381 385 388
f 12 11 375
f 12 375 376
f 8 7 408
f 8 408 404
f 325 181 180
f 325 180 326
f 495 494 172
f 495 172 170
f 253 467 466
f 253 466 182
f 404 405 5
f 404 5 8
f 397 49 394
f 397 114 49
f 384 379 367
f 384 367 370
f 388 387 380
f 388 380 381
f 407 408 7
f 407 7 6
f 114 397 396
f 114 396 82
f 14 13 411
f 14 411 414
f 370 369 383
f 370 383 384
f 373 375 11
f 373 11 10
f 327 326 180
f 327 180 178
f 161 332 331
f 161 331 115
f 236 235 559
f 236 559 560
f 466 465 215
f 466 215 182
f 377 380 387
f 377 387 386
f 10 9 374
f 10 374 373
f 561 562 318
f 561 318 317
f 147 115 331
f 147 331 334
f 266 265 563
f 266 563 564
f 565 566 201
f 565 201 204
f 205 203 567
f 205 567 568
f 569 570 239
f 569 239 285
f 281 280 571
f 281 571 572
f 271 270 573
f 271 573 574
f 243 242 575
f 243 575 576
f 577 578 259
f 577 259 258
f 226 225 579
f 226 579 580
f 581 582 312
f 581 312 322
f 195 193 583
f 195 583 584
f 294 293 585
f 294 585 586
f 587 588 211
f 587 211 213
f 589 590 192
f 589 192 194
f 591 592 229
f 591 229 230
f 593 594 248
f 593 248 247
f 276 275 595
f 276 595 596
f 299 298 597
f 299 597 598
f 599 600 254
f 599 254 252
f 184 601 602
f 186 184 602
f 304 303 603
f 304 603 604
f 605 606 289
f 605 289 288
f 333 147 334
f 333 168 147
f 174 352 354
f 174 176 352
f 336 22 24
f 336 338 22
f 339 341 20
f 339 20 21
f 308 264 360
f 308 360 356
f 173 353 355
f 173 175 353
f 337 18 17
f 337 335 18
f 161 168 333
f 161 333 332
f 493 172 494
f 493 179 172
f 235 233 607
f 235 607 559
f 174 354 355
f 174 355 173
f 336 24 17
f 336 17 337
f 203 202 608
f 203 608 567
f 345 347 164
f 345 164 166
f 324 309 364
f 324 364 363
f 609 565 204
f 609 204 206
f 610 577 258
f 610 258 257
f 393 392 410
f 393 410 409
f 611 569 285
f 611 285 284
f 612 561 317
f 612 317 316
f 464 215 465
f 464 261 215
f 242 241 613
f 242 613 575
f 225 222 614
f 225 614 579
f 340 20 341
f 340 59 20
f 286 360 264
f 286 359 360
f 615 581 322
f 615 322 321
f 193 191 616
f 193 616 583
f 270 617 618
f 270 269 617
f 328 183 178
f 328 178 327
f 390 412 406
f 390 391 412
f 280 279 619
f 280 619 571
f 620 599 252
f 620 252 251
f 621 587 213
f 621 213 216
f 622 589 194
f 622 194 196
f 623 624 221
f 623 221 223
f 275 274 625
f 275 625 595
f 303 302 626
f 303 626 603
f 293 292 627
f 293 627 585
f 325 328 183
f 325 183 181
f 16 15 415
f 16 415 413
f 628 591 230
f 628 230 232
f 629 601 184
f 629 184 185
f 630 593 247
f 630 247 246
f 631 605 288
f 631 288 287
f 298 297 632
f 298 632 597
f 347 163 346
f 347 164 163
f 309 362 310
f 309 364 362
f 233 231 633
f 233 633 607
f 202 200 634
f 202 634 608
f 635 609 206
f 635 206 207
f 636 610 257
f 636 257 256
f 637 612 316
f 637 316 263
f 241 240 638
f 241 638 613
f 639 611 284
f 639 284 283
f 212 209 640
f 212 640 641
f 222 220 642
f 222 642 614
f 191 189 643
f 191 643 616
f 269 268 644
f 269 644 645
f 646 622 196
f 646 196 197
f 647 615 321
f 647 321 320
f 274 273 648
f 274 648 625
f 649 629 185
f 649 185 188
f 302 301 650
f 302 650 626
f 279 278 651
f 279 651 619
f 652 630 246
f 652 246 245
f 653 620 251
f 653 251 250
f 654 623 223
f 654 223 224
f 297 296 655
f 297 655 632
f 656 631 287
f 656 287 314
f 657 627 292
f 657 292 291
f 658 628 232
f 658 232 234
f 342 340 59
f 342 59 149
f 315 286 359
f 315 359 358
f 231 228 659
f 231 659 633
f 200 198 660
f 200 660 634
f 661 635 207
f 661 207 210
f 662 636 256
f 662 256 255
f 240 238 663
f 240 663 638
f 209 208 664
f 209 664 640
f 665 646 197
f 665 197 199
f 189 187 666
f 189 666 643
f 306 305 667
f 306 667 668
f 220 219 669
f 220 669 642
f 670 639 283
f 670 283 282
f 344 346 163
f 344 163 148
f 311 310 362
f 311 362 361
f 671 647 320
f 671 320 319
f 672 649 188
f 672 188 190
f 268 267 673
f 268 673 644
f 301 300 674
f 301 674 650
f 273 272 675
f 273 675 648
f 278 277 676
f 278 676 651
f 296 295 677
f 296 677 655
f 678 653 250
f 678 250 249
f 228 226 580
f 228 580 659
f 679 652 245
f 679 245 244
f 680 656 314
f 680 314 313
f 681 654 224
f 681 224 227
f 682 658 234
f 682 234 237
f 683 657 291
f 683 291 290
f 198 195 584
f 198 584 660
f 588 661 210
f 588 210 211
f 600 662 255
f 600 255 254
f 238 236 560
f 238 560 663
f 187 186 602
f 187 602 666
f 515 489 446
f 538 446 447
f 543 515 446
f 513 446 538
f 513 543 446
f 484 438 439
f 484 439 543
f 429 513 478
f 429 478 428
f 432 484 543
f 432 433 542
f 432 542 516
f 432 516 484
f 418 513 429
f 418 429 532
f 418 532 506
f 418 506 471
f 491 513 418
f 491 418 419
f 491 419 520
f 546 432 543
f 546 519 488
f 546 488 432
f 487 454 455
f 487 455 546
f 557 491 492
f 555 557 556
f 431 550 487
f 431 487 546
f 554 491 557
f 554 557 555
f 480 430 431
f 552 554 553
f 512 480 431
f 551 554 552
f 548 551 549
f 451 537 512
f 450 451 512
f 534 551 548
f 486 450 512
f 509 551 534
f 540 514 486
f 444 509 477
f 425 512 431
f 425 540 486
f 425 486 512
f 425 546 543
f 425 431 546
f 445 551 509
f 445 554 551
f 445 509 444
f 445 513 491
f 445 491 554
f 475 445 529
f 475 529 508
f 504 470 424
f 504 424 425
f 427 533 504
f 443 475 442
f 426 543 513
f 426 504 425
f 426 427 504
f 426 425 543
f 528 475 443
f 472 528 503
f 531 505 473
f 531 473 426
f 422 528 472
f 423 475 528
f 423 528 422
f 510 423 530
f 500 468 402
f 500 402 403
f 500 403 531
f 500 531 426
f 481 475 423
f 481 423 510
f 441 481 440
f 434 435 526
f 434 526 500
f 434 500 426
f 544 481 441
f 535 507 474
f 535 474 434
f 448 544 545
f 448 481 544
f 459 535 434
f 459 460 535
f 522 497 459
f 417 522 459
f 421 448 449
f 421 449 536
f 421 536 511
f 421 511 479
f 421 479 420
f 421 481 448
f 469 416 417
f 485 421 541
f 485 541 517
f 498 469 417
f 523 498 417
f 436 437 523
f 476 459 434
f 476 417 459
f 476 513 445
f 476 523 417
f 476 436 523
f 476 426 513
f 476 434 426
f 518 485 452
f 518 452 453
f 518 453 539
f 457 481 421
f 457 518 490
f 457 490 456
f 457 527 502
f 457 476 445
f 457 502 476
f 457 421 485
f 457 445 475
f 457 485 518
f 457 475 481
f 566 665 199
f 566 199 201
f 208 205 568
f 208 568 664
f 590 672 190
f 590 190 192
f 305 304 604
f 305 604 667
f 219 217 684
f 219 684 669
f 572 670 282
f 572 282 281
f 562 671 319
f 562 319 318
f 272 271 574
f 272 574 675
f 295 294 586
f 295 586 677
f 300 299 598
f 300 598 674
f 277 276 596
f 277 596 676
f 267 266 564
f 267 564 673
f 594 678 249
f 594 249 248
f 244 243 576
f 244 576 679
f 582 680 313
f 582 313 312
f 493 496 177
f 493 177 179
f 592 681 227
f 592 227 229
f 570 682 237
f 570 237 239
f 606 683 290
f 606 290 289
f 666 601 602
f 649 629 601
f 643 601 666
f 672 649 601
f 583 643 616
f 584 643 583
f 622 589 590
f 622 590 672
f 660 601 643
f 660 643 584
f 608 660 634
f 567 660 608
f 567 601 660
f 565 566 665
f 565 665 646
f 565 646 622
f 565 622 672
f 664 567 568
f 640 567 664
f 661 609 565
f 661 565 672
f 661 635 609
f 621 587 588
f 621 588 661
f 684 640 641
f 684 567 640
f 623 661 672
f 623 621 661
f 623 624 621
f 681 654 623
f 659 684 669
f 659 669 642
f 659 642 614
f 659 614 579
f 659 579 580
f 659 601 567
f 659 567 684
f 592 681 623
f 628 591 592
f 658 628 592
f 559 659 633
f 559 633 607
f 682 658 592
f 569 570 682
f 613 559 560
f 613 560 663
f 613 663 638
f 611 592 623
f 611 569 682
f 611 682 592
f 611 623 672
f 572 670 639
f 572 639 611
f 679 601 659
f 679 613 575
f 679 575 576
f 679 559 613
f 679 659 559
f 630 679 652
f 619 571 572
f 593 672 601
f 593 601 679
f 593 679 630
f 651 572 611
f 651 611 672
f 651 619 572
f 595 596 676
f 595 676 651
f 653 593 594
f 653 594 678
f 662 653 620
f 662 620 599
f 662 599 600
f 662 593 653
f 574 675 648
f 574 595 651
f 574 648 625
f 574 625 595
f 577 662 636
f 577 636 610
f 577 593 662
f 644 645 573
f 644 573 574
f 644 574 651
f 637 577 578
f 563 564 673
f 563 673 644
f 561 637 612
f 667 644 651
f 667 563 644
f 667 668 563
f 562 637 561
f 562 577 637
f 562 593 577
f 647 562 671
f 603 604 667
f 626 603 667
f 615 562 647
f 582 615 581
f 674 650 626
f 598 674 626
f 680 615 582
f 656 615 680
f 597 598 626
f 655 632 597
f 605 656 631
f 677 667 651
f 677 626 667
f 677 597 626
f 677 655 597
f 606 593 562
f 606 562 615
f 606 615 656
f 606 656 605
f 627 606 683
f 627 683 657
f 627 672 593
f 627 585 586
f 627 651 672
f 627 586 677
f 627 677 651
f 627 593 606
f 356 352 176
f 356 176 308
f 19 4 335
f 18 19 335
f 2 4 19
f 169 2 19
f 353 169 175
f 353 2 169
f 21 22 338
f 21 338 339
f 361 358 315
f 361 315 311
f 148 149 342
f 148 342 344
f 165 166 345
f 349 165 345
f 363 324 323
f 366 323 165
f 366 363 323
f 366 165 349
