v -7.000000 -2.000000 1.000000
v -7.000000 -1.000000 0.000000
v -7.000000 -1.000000 1.000000
v -7.000000 -5.000000 1.000000
v -7.000000 -6.000000 0.000000
v -7.000000 -6.000000 1.000000
v -7.000000 1.000000 0.000000
v -7.000000 1.000000 1.000000
v -7.000000 0.000000 3.000000
v -7.000000 1.000000 3.000000
v -7.000000 -1.000000 2.000000
v -7.000000 -1.000000 3.000000
v -7.000000 4.000000 1.000000
v -7.000000 5.000000 0.000000
v -7.000000 5.000000 1.000000
v -7.000000 -6.000000 2.000000
v -7.000000 -5.000000 2.000000
v -7.000000 -2.000000 2.000000
v -7.000000 -4.000000 3.000000
v -7.000000 -2.000000 3.000000
v -7.000000 -5.000000 3.000000
v -5.000000 -6.000000 1.000000
v -2.000000 -6.000000 0.000000
v -2.000000 -6.000000 1.000000
v -7.000000 4.000000 2.000000
v -7.000000 3.000000 3.000000
v -7.000000 4.000000 3.000000
v -6.000000 5.000000 1.000000
v -3.000000 5.000000 1.000000
v 6.000000 5.000000 0.000000
v 6.000000 5.000000 1.000000
v 5.000000 5.000000 1.000000
v 2.000000 5.000000 1.000000
v 1.000000 5.000000 1.000000
v -2.000000 5.000000 1.000000
v 6.000000 4.000000 1.000000
v 6.000000 1.000000 1.000000
v 6.000000 -6.000000 0.000000
v 6.000000 -6.000000 1.000000
v 6.000000 -5.000000 1.000000
v 6.000000 -2.000000 1.000000
v 6.000000 -6.000000 2.000000
v 6.000000 -5.000000 2.000000
v 6.000000 -4.000000 3.000000
v 6.000000 -2.000000 3.000000
v 6.000000 -2.000000 2.000000
v 6.000000 -5.000000 3.000000
v 6.000000 1.000000 2.000000
v 6.000000 4.000000 2.000000
v 6.000000 3.000000 3.000000
v 6.000000 4.000000 3.000000
v 6.000000 1.000000 3.000000
v 6.000000 5.000000 2.000000
v 6.000000 -6.000000 3.000000
v 6.000000 -1.000000 3.000000
v 6.000000 5.000000 3.000000
v -7.000000 5.000000 2.000000
v 1.000000 -6.000000 1.000000
v 1.000000 -6.000000 0.000000
v 1.000000 -6.000000 3.000000
v -2.000000 -6.000000 3.000000
v -6.000000 5.000000 2.000000
v 4.000000 -6.000000 1.000000
v -5.000000 -6.000000 2.000000
v -5.000000 -6.000000 3.000000
v -3.000000 5.000000 2.000000
v -6.000000 5.000000 3.000000
v -3.000000 5.000000 3.000000
v -2.000000 5.000000 2.000000
v 4.000000 -6.000000 2.000000
v 4.000000 -6.000000 3.000000
v 1.000000 5.000000 2.000000
v -2.000000 5.000000 3.000000
v 1.000000 5.000000 3.000000
v 6.000000 -2.000000 4.000000
v 6.000000 -1.000000 4.000000
v 6.000000 -4.000000 4.000000
v -7.000000 6.000000 4.000000
v -7.000000 5.000000 3.000000
v -7.000000 6.000000 3.000000
v -7.000000 4.000000 4.000000
v -7.000000 3.000000 4.000000
v -7.000000 3.000000 5.000000
v -7.000000 4.000000 5.000000
v -7.000000 1.000000 5.000000
v -7.000000 1.000000 4.000000
v -7.000000 1.000000 6.000000
v -7.000000 3.000000 6.000000
v -7.000000 0.000000 6.000000
v -7.000000 0.000000 5.000000
v -7.000000 1.000000 7.000000
v -7.000000 -4.000000 4.000000
v -7.000000 -2.000000 4.000000
v -7.000000 -2.000000 5.000000
v -7.000000 -2.000000 6.000000
v -7.000000 -1.000000 5.000000
v -7.000000 -1.000000 6.000000
v -7.000000 -4.000000 5.000000
v -7.000000 -5.000000 4.000000
v -7.000000 -2.000000 7.000000
v -7.000000 -5.000000 5.000000
v -7.000000 -6.000000 4.000000
v -7.000000 -4.000000 6.000000
v 7.000000 -5.000000 4.000000
v 7.000000 -6.000000 4.000000
v 7.000000 4.000000 4.000000
v 7.000000 6.000000 4.000000
v 7.000000 6.000000 3.000000
v 7.000000 3.000000 4.000000
v 7.000000 3.000000 5.000000
v 7.000000 4.000000 5.000000
v 7.000000 0.000000 6.000000
v 7.000000 1.000000 7.000000
v 7.000000 1.000000 6.000000
v 7.000000 1.000000 5.000000
v 7.000000 3.000000 6.000000
v 7.000000 3.000000 3.000000
v 7.000000 -2.000000 7.000000
v 7.000000 -1.000000 6.000000
v 7.000000 1.000000 4.000000
v 7.000000 0.000000 5.000000
v 7.000000 -2.000000 6.000000
v 7.000000 -1.000000 5.000000
v 7.000000 -2.000000 5.000000
v 7.000000 -4.000000 5.000000
v 7.000000 -4.000000 6.000000
v 7.000000 -2.000000 4.000000
v 7.000000 -4.000000 4.000000
v 7.000000 -5.000000 5.000000
v 7.000000 -4.000000 3.000000
v 7.000000 -6.000000 3.000000
v 2.000000 5.000000 2.000000
v 6.000000 1.000000 4.000000
v 6.000000 0.000000 5.000000
v 6.000000 1.000000 5.000000
v 6.000000 -1.000000 5.000000
v 6.000000 -2.000000 5.000000
v 5.000000 5.000000 2.000000
v 2.000000 5.000000 3.000000
v 5.000000 5.000000 3.000000
v 6.000000 3.000000 4.000000
v 6.000000 -1.000000 6.000000
v 6.000000 0.000000 6.000000
v -7.000000 0.000000 4.000000
v -6.000000 -1.000000 0.000000
v -2.000000 -5.000000 0.000000
v -5.000000 0.000000 0.000000
v -6.000000 1.000000 0.000000
v -5.000000 1.000000 0.000000
v -3.000000 0.000000 0.000000
v 1.000000 -5.000000 0.000000
v -3.000000 1.000000 0.000000
f 1 2 3
f 4 5 2
f 4 2 1
f 6 5 4
f 3 2 7
f 3 7 8
f 9 8 10
f 11 3 8
f 11 8 9
f 12 11 9
f 13 14 15
f 7 14 13
f 8 7 13
f 16 6 4
f 16 4 17
f 17 4 1
f 17 1 18
f 19 18 20
f 19 17 18
f 21 17 19
f 18 1 3
f 18 3 11
f 22 5 6
f 23 5 22
f 24 23 22
f 8 13 25
f 26 25 27
f 26 8 25
f 10 8 26
f 14 28 15
f 29 28 14
f 30 31 32
f 30 32 33
f 30 33 34
f 14 30 34
f 14 34 35
f 14 35 29
f 30 36 31
f 37 36 30
f 38 39 40
f 38 40 41
f 30 38 41
f 30 41 37
f 39 42 43
f 39 43 40
f 44 45 46
f 43 47 44
f 43 44 46
f 40 46 41
f 40 43 46
f 41 46 48
f 41 48 37
f 49 50 51
f 48 52 50
f 48 50 49
f 37 49 36
f 37 48 49
f 36 49 53
f 36 53 31
f 42 54 47
f 42 47 43
f 55 52 48
f 46 45 55
f 46 55 48
f 49 51 56
f 49 56 53
f 25 13 15
f 25 15 57
f 58 23 24
f 58 59 23
f 60 24 61
f 60 58 24
f 28 57 15
f 28 62 57
f 63 59 58
f 38 59 63
f 39 38 63
f 64 6 16
f 64 22 6
f 24 22 64
f 61 64 65
f 61 24 64
f 66 67 62
f 66 68 67
f 29 62 28
f 29 66 62
f 35 66 29
f 35 69 66
f 70 58 60
f 70 63 58
f 71 70 60
f 72 73 69
f 72 74 73
f 34 69 35
f 34 72 69
f 42 63 70
f 42 39 63
f 45 75 76
f 45 76 55
f 44 77 75
f 44 75 45
f 78 79 80
f 27 25 57
f 27 57 79
f 81 79 78
f 81 27 79
f 82 26 27
f 82 27 81
f 83 81 84
f 83 82 81
f 85 86 82
f 85 82 83
f 87 83 88
f 87 85 83
f 89 90 85
f 89 85 87
f 91 89 87
f 21 16 17
f 92 93 94
f 95 94 96
f 95 96 97
f 98 92 94
f 99 21 19
f 99 19 92
f 100 97 89
f 100 95 97
f 100 89 91
f 101 99 92
f 101 92 98
f 102 16 21
f 102 21 99
f 103 94 95
f 103 98 94
f 99 104 105
f 99 105 102
f 106 107 108
f 109 110 111
f 109 111 106
f 112 113 114
f 115 114 116
f 115 116 110
f 117 109 106
f 117 106 108
f 118 113 112
f 119 118 112
f 120 110 109
f 120 115 110
f 121 112 114
f 121 114 115
f 122 118 119
f 123 122 119
f 124 122 123
f 125 126 122
f 125 124 127
f 125 122 124
f 128 125 127
f 104 129 125
f 104 125 128
f 130 104 128
f 131 105 104
f 131 104 130
f 78 107 106
f 78 106 81
f 98 125 129
f 98 129 101
f 33 72 34
f 33 132 72
f 76 55 52
f 76 52 133
f 134 133 135
f 134 76 133
f 136 76 134
f 137 75 76
f 137 76 136
f 20 18 11
f 20 11 12
f 138 139 132
f 138 140 139
f 32 132 33
f 32 138 132
f 52 133 141
f 52 141 50
f 31 138 32
f 31 53 138
f 92 19 20
f 92 20 93
f 136 142 143
f 136 143 134
f 84 111 110
f 84 110 83
f 62 79 57
f 62 67 79
f 65 16 102
f 65 64 16
f 61 65 102
f 54 42 70
f 54 70 71
f 105 131 54
f 105 71 60
f 105 54 71
f 102 105 60
f 102 60 61
f 69 68 66
f 69 73 68
f 144 12 9
f 90 144 86
f 90 86 85
f 93 20 12
f 93 12 144
f 96 144 90
f 96 93 144
f 94 93 96
f 109 50 141
f 109 117 50
f 132 74 72
f 132 139 74
f 53 140 138
f 53 56 140
f 86 10 26
f 86 26 82
f 144 9 10
f 144 10 86
f 145 2 5
f 146 5 23
f 146 145 5
f 147 148 145
f 149 148 147
f 150 146 151
f 150 145 146
f 150 147 145
f 14 7 148
f 14 148 149
f 152 14 149
f 38 151 59
f 30 152 150
f 30 14 152
f 30 150 151
f 30 151 38
f 130 77 44
f 130 128 77
f 97 96 90
f 97 90 89
f 95 122 126
f 95 126 103
f 129 99 101
f 129 104 99
f 151 146 23
f 151 23 59
f 115 133 135
f 115 120 133
f 148 7 2
f 148 2 145
f 108 78 80
f 108 107 78
f 127 137 75
f 127 124 137
f 88 116 114
f 88 114 87
f 152 149 147
f 152 147 150
f 126 98 103
f 126 125 98
f 106 84 81
f 106 111 84
f 112 134 143
f 112 121 134
f 47 54 131
f 130 44 47
f 130 47 131
f 123 142 136
f 123 119 142
f 91 113 118
f 91 118 100
f 118 95 100
f 118 122 95
f 110 88 83
f 110 116 88
f 80 79 67
f 68 80 67
f 51 50 117
f 108 56 51
f 108 139 140
f 108 140 56
f 108 51 117
f 108 80 68
f 108 68 73
f 108 73 74
f 108 74 139
f 127 75 77
f 127 77 128
f 109 141 133
f 109 133 120
f 114 91 87
f 114 113 91
f 123 136 137
f 123 137 124
f 115 135 134
f 115 134 121
f 112 143 142
f 112 142 119
