v 5.875000 -0.375000 4.000000
v 5.875000 -0.375000 4.500000
v 5.875000 0.125000 4.500000
v 5.875000 0.125000 4.000000
v 6.125000 0.125000 4.000000
v 6.125000 -0.375000 4.000000
v -6.125000 -5.125000 0.250000
v -6.125000 -5.125000 0.000000
v -6.125000 -0.625000 0.000000
v -6.125000 -0.625000 0.250000
v -6.125000 0.625000 0.000000
v -6.125000 0.625000 0.250000
v -6.125000 -0.625000 2.250000
v -6.125000 0.625000 2.250000
v -6.125000 5.125000 0.000000
v -6.125000 5.125000 0.250000
v -1.125000 -5.125000 0.250000
v -1.125000 -5.125000 0.000000
v 1.125000 -5.125000 0.250000
v 1.125000 -5.125000 0.000000
v 1.125000 -5.125000 2.500000
v -1.125000 -5.125000 2.500000
v 1.125000 -5.125000 2.750000
v -1.125000 -5.125000 2.750000
v 6.125000 5.125000 0.000000
v 6.125000 5.125000 0.250000
v 6.125000 -5.125000 0.000000
v 6.125000 -5.125000 0.250000
v 6.125000 4.375000 3.250000
v 6.125000 4.125000 3.500000
v 6.125000 4.375000 3.500000
v 6.125000 5.125000 3.250000
v 6.125000 5.125000 3.000000
v 6.125000 3.625000 3.750000
v 6.125000 3.375000 4.000000
v 6.125000 3.625000 4.000000
v 6.125000 4.125000 3.750000
v 6.125000 2.875000 4.250000
v 6.125000 3.375000 4.250000
v 6.125000 2.375000 4.500000
v 6.125000 2.125000 4.750000
v 6.125000 2.375000 4.750000
v 6.125000 2.875000 4.500000
v 6.125000 1.625000 5.000000
v 6.125000 2.125000 5.000000
v 6.125000 1.125000 5.250000
v 6.125000 1.625000 5.250000
v 6.125000 0.625000 5.500000
v 6.125000 1.125000 5.500000
v 6.125000 0.375000 5.750000
v 6.125000 0.625000 5.750000
v 6.125000 3.375000 2.000000
v 6.125000 -0.625000 5.750000
v 6.125000 -0.625000 6.000000
v 6.125000 0.375000 6.000000
v 6.125000 3.375000 1.250000
v 6.125000 -0.875000 5.500000
v 6.125000 -0.875000 5.750000
v 6.125000 0.125000 4.500000
v 6.125000 -0.375000 4.500000
v 6.125000 -1.375000 5.250000
v 6.125000 -1.375000 5.500000
v 6.125000 1.625000 2.000000
v 6.125000 -1.875000 5.000000
v 6.125000 -1.875000 5.250000
v 6.125000 1.625000 1.250000
v 6.125000 -2.125000 4.750000
v 6.125000 -2.125000 5.000000
v 6.125000 -2.625000 4.500000
v 6.125000 -2.625000 4.750000
v 6.125000 -3.125000 4.250000
v 6.125000 -3.125000 4.500000
v 6.125000 -3.625000 4.000000
v 6.125000 -3.625000 4.250000
v 6.125000 -2.125000 2.000000
v 6.125000 -3.875000 3.750000
v 6.125000 -3.875000 4.000000
v 6.125000 -4.375000 3.500000
v 6.125000 -4.375000 3.750000
v 6.125000 -2.125000 1.250000
v 6.125000 -4.625000 3.250000
v 6.125000 -4.625000 3.500000
v 6.125000 -3.875000 2.000000
v 6.125000 -5.125000 3.250000
v 6.125000 -3.875000 1.250000
v 5.875000 -2.125000 1.250000
v 5.875000 -3.875000 1.250000
v 5.875000 3.375000 1.250000
v 5.875000 1.625000 1.250000
v 5.875000 -3.875000 2.000000
v 5.875000 -2.125000 2.000000
v 5.875000 1.625000 2.000000
v 5.875000 3.375000 2.000000
v -4.375000 -5.125000 1.000000
v -6.125000 -5.125000 2.500000
v -4.375000 -5.125000 2.500000
v -2.125000 -5.125000 1.000000
v -2.125000 -5.125000 2.500000
v -4.875000 5.125000 1.250000
v -6.125000 5.125000 3.000000
v -4.875000 5.125000 2.000000
v -3.125000 5.125000 2.000000
v -3.125000 5.125000 1.250000
v -1.375000 5.125000 2.000000
v -1.375000 5.125000 1.250000
v 2.875000 5.125000 1.250000
v 0.375000 5.125000 2.000000
v 0.375000 5.125000 1.250000
v 2.875000 5.125000 2.000000
v 4.625000 5.125000 2.000000
v 4.625000 5.125000 1.250000
v -3.125000 4.875000 1.250000
v -4.875000 4.875000 1.250000
v -4.875000 4.875000 2.000000
v 0.375000 4.875000 1.250000
v -1.375000 4.875000 1.250000
v -1.375000 4.875000 2.000000
v 4.625000 4.875000 1.250000
v 2.875000 4.875000 1.250000
v 2.875000 4.875000 2.000000
v -3.125000 4.875000 2.000000
v 0.375000 4.875000 2.000000
v 4.625000 4.875000 2.000000
v -5.625000 -0.625000 0.000000
v -1.125000 -4.625000 0.000000
v -4.625000 0.625000 0.000000
v -5.625000 0.625000 0.000000
v -4.625000 0.875000 0.000000
v -3.375000 0.625000 0.000000
v -3.375000 0.875000 0.000000
v -1.125000 0.625000 0.000000
v -1.125000 0.875000 0.000000
v 1.125000 -0.625000 0.000000
v 1.125000 -4.625000 0.000000
v 0.125000 0.625000 0.000000
v 0.125000 0.875000 0.000000
v 1.625000 -0.625000 0.000000
v 1.125000 0.375000 0.000000
v 1.625000 0.375000 0.000000
v -6.125000 4.875000 2.500000
v -6.125000 3.625000 1.000000
v -6.125000 4.875000 3.000000
v -6.125000 5.125000 3.250000
v -6.125000 3.625000 2.250000
v -6.125000 4.375000 3.250000
v -6.125000 4.125000 3.500000
v -6.125000 4.375000 3.500000
v -6.125000 1.375000 1.000000
v -6.125000 3.625000 3.750000
v -6.125000 4.125000 3.750000
v -6.125000 3.375000 4.000000
v -6.125000 3.625000 4.000000
v -6.125000 2.875000 4.250000
v -6.125000 3.375000 4.250000
v -6.125000 1.375000 2.250000
v -6.125000 2.375000 4.500000
v -6.125000 2.875000 4.500000
v -6.125000 2.125000 4.750000
v -6.125000 2.375000 4.750000
v -6.125000 -1.875000 1.000000
v -6.125000 0.625000 4.000000
v -6.125000 1.625000 5.000000
v -6.125000 2.125000 5.000000
v -6.125000 0.375000 4.000000
v -6.125000 0.375000 3.500000
v -6.125000 0.625000 4.750000
v -6.125000 1.125000 5.250000
v -6.125000 1.625000 5.250000
v -6.125000 -1.875000 2.500000
v -6.125000 0.625000 5.500000
v -6.125000 1.125000 5.500000
v -6.125000 -0.625000 4.750000
v -6.125000 -0.875000 4.250000
v -6.125000 -0.625000 4.250000
v -6.125000 0.375000 5.750000
v -6.125000 0.625000 5.750000
v -6.125000 -4.125000 1.000000
v -6.125000 -0.625000 5.750000
v -6.125000 -0.875000 5.500000
v -6.125000 -0.625000 6.000000
v -6.125000 0.375000 6.000000
v -6.125000 -0.875000 5.750000
v -6.125000 -1.375000 5.250000
v -6.125000 -1.375000 5.500000
v -6.125000 -1.875000 5.000000
v -6.125000 -2.125000 4.750000
v -6.125000 -0.875000 3.500000
v -6.125000 -1.875000 5.250000
v -6.125000 -2.125000 5.000000
v -6.125000 -2.625000 4.500000
v -6.125000 -2.625000 4.750000
v -6.125000 -4.125000 2.500000
v -6.125000 -3.125000 4.500000
v -6.125000 -3.125000 4.250000
v -6.125000 -3.625000 4.250000
v -6.125000 -3.625000 4.000000
v -6.125000 -3.875000 4.000000
v -6.125000 -3.875000 3.750000
v -6.125000 -4.375000 3.750000
v -6.125000 -4.375000 3.500000
v -6.125000 -4.625000 3.500000
v -6.125000 -4.625000 3.250000
v -6.125000 -5.125000 3.250000
v -6.125000 -5.125000 3.000000
v 1.875000 -5.125000 1.000000
v 1.875000 -5.125000 2.250000
v 4.125000 -5.125000 1.000000
v 4.125000 -5.125000 2.250000
v 5.875000 -5.125000 2.500000
v 5.875000 -5.125000 3.000000
v -6.625000 -4.625000 3.500000
v -6.625000 -4.625000 3.250000
v 6.625000 -4.625000 3.250000
v 6.625000 -4.625000 3.500000
v -6.625000 -5.375000 3.500000
v 6.625000 -5.375000 3.500000
v 6.625000 -5.625000 3.500000
v -6.625000 -5.625000 3.500000
v 6.625000 5.625000 3.000000
v 6.625000 5.375000 3.500000
v 6.625000 5.625000 3.500000
v 6.625000 4.875000 3.750000
v 6.625000 5.375000 3.750000
v 6.625000 4.375000 4.000000
v 6.625000 4.875000 4.000000
v 6.625000 5.125000 3.250000
v 6.625000 4.625000 3.500000
v 6.625000 3.875000 4.250000
v 6.625000 3.625000 4.500000
v 6.625000 3.875000 4.500000
v 6.625000 4.375000 4.250000
v 6.625000 5.125000 3.000000
v 6.625000 4.625000 3.250000
v 6.625000 4.125000 3.750000
v 6.625000 3.125000 4.750000
v 6.625000 3.625000 4.750000
v 6.625000 4.375000 3.500000
v 6.625000 4.125000 3.500000
v 6.625000 3.375000 4.250000
v 6.625000 2.625000 5.000000
v 6.625000 3.125000 5.000000
v 6.625000 3.625000 4.000000
v 6.625000 3.625000 3.750000
v 6.625000 3.375000 4.000000
v 6.625000 2.875000 4.500000
v 6.625000 1.875000 5.500000
v 6.625000 2.125000 5.500000
v 6.625000 2.125000 5.250000
v 6.625000 2.375000 4.750000
v 6.625000 2.125000 5.000000
v 6.625000 2.625000 5.250000
v 6.625000 2.875000 4.250000
v 6.625000 1.375000 5.750000
v 6.625000 1.875000 5.750000
v 6.625000 0.875000 6.000000
v 6.625000 1.375000 6.000000
v 6.625000 2.375000 4.500000
v 6.625000 2.125000 4.750000
v 6.625000 1.625000 5.250000
v 6.625000 1.625000 5.000000
v 6.625000 1.125000 5.500000
v 6.625000 0.125000 6.500000
v 6.625000 0.375000 6.500000
v 6.625000 0.375000 6.250000
v 6.625000 1.125000 5.250000
v 6.625000 0.625000 5.750000
v 6.625000 0.375000 6.000000
v 6.625000 0.875000 6.250000
v 6.625000 0.625000 5.500000
v 6.625000 0.375000 5.750000
v 6.625000 -0.375000 6.500000
v 6.625000 -0.375000 6.750000
v 6.625000 0.125000 6.750000
v 6.625000 -0.625000 6.250000
v 6.625000 -0.625000 6.500000
v 6.625000 -0.625000 6.000000
v 6.625000 -0.875000 5.750000
v 6.625000 -0.625000 5.750000
v 6.625000 -1.125000 6.000000
v 6.625000 -1.125000 6.250000
v 6.625000 -1.375000 5.500000
v 6.625000 -0.875000 5.500000
v 6.625000 -1.625000 5.750000
v 6.625000 -1.625000 6.000000
v 6.625000 -2.125000 5.500000
v 6.625000 -2.125000 5.750000
v 6.625000 -1.875000 5.250000
v 6.625000 -1.375000 5.250000
v 6.625000 -2.375000 5.250000
v 6.625000 -2.375000 5.500000
v 6.625000 -2.125000 5.000000
v 6.625000 -1.875000 5.000000
v 6.625000 -2.625000 4.750000
v 6.625000 -2.125000 4.750000
v 6.625000 -2.875000 5.000000
v 6.625000 -2.875000 5.250000
v 6.625000 -3.125000 4.500000
v 6.625000 -2.625000 4.500000
v 6.625000 -3.375000 4.750000
v 6.625000 -3.375000 5.000000
v 6.625000 -3.875000 4.500000
v 6.625000 -3.875000 4.750000
v 6.625000 -3.625000 4.250000
v 6.625000 -3.125000 4.250000
v 6.625000 -4.125000 4.250000
v 6.625000 -4.125000 4.500000
v 6.625000 -3.875000 4.000000
v 6.625000 -3.625000 4.000000
v 6.625000 -4.375000 3.750000
v 6.625000 -3.875000 3.750000
v 6.625000 -4.625000 4.000000
v 6.625000 -4.625000 4.250000
v 6.625000 -4.375000 3.500000
v 6.625000 -5.125000 3.750000
v 6.625000 -5.125000 4.000000
v 6.625000 -4.875000 3.500000
v 6.625000 -5.375000 3.750000
v 6.625000 -5.375000 3.250000
v 6.625000 -4.875000 3.250000
v 6.625000 -5.625000 3.000000
v 6.625000 -5.375000 3.000000
v -6.625000 5.625000 3.500000
v -6.625000 5.375000 3.500000
v 6.625000 4.375000 3.250000
v -6.625000 -5.125000 3.750000
v -6.625000 -5.375000 3.750000
v -6.625000 -5.375000 3.250000
v -6.625000 -5.375000 3.000000
v -6.625000 5.375000 3.750000
v -6.625000 4.875000 3.750000
v -6.625000 5.625000 3.000000
v -6.625000 -4.375000 3.750000
v -6.625000 -4.375000 3.500000
v -6.625000 -5.625000 3.000000
v -6.625000 -4.625000 4.000000
v -6.625000 -5.125000 4.000000
v -6.625000 -3.875000 4.000000
v -6.625000 -3.875000 3.750000
v -6.625000 5.125000 3.000000
v -6.625000 5.125000 3.250000
v -6.625000 4.375000 3.250000
v -6.625000 4.375000 3.500000
v -6.625000 4.625000 3.500000
v -6.625000 4.625000 3.250000
v -6.625000 4.125000 3.750000
v -6.625000 4.125000 3.500000
v -6.625000 4.375000 4.000000
v -6.625000 4.875000 4.000000
v -6.625000 3.625000 4.000000
v -6.625000 3.625000 3.750000
v -6.625000 3.875000 4.250000
v -6.625000 4.375000 4.250000
v -6.625000 3.625000 4.500000
v -6.625000 3.875000 4.500000
v -6.625000 3.375000 4.250000
v -6.625000 3.375000 4.000000
v -6.625000 2.875000 4.500000
v -6.625000 2.875000 4.250000
v -6.625000 3.125000 4.750000
v -6.625000 3.625000 4.750000
v -6.625000 2.625000 5.000000
v -6.625000 3.125000 5.000000
v -6.625000 2.375000 4.750000
v -6.625000 2.375000 4.500000
v -6.625000 2.125000 5.000000
v -6.625000 2.125000 4.750000
v -6.625000 2.125000 5.250000
v -6.625000 2.625000 5.250000
v -6.625000 1.625000 5.250000
v -6.625000 1.625000 5.000000
v -6.625000 1.875000 5.500000
v -6.625000 2.125000 5.500000
v -6.625000 1.125000 5.500000
v -6.625000 1.125000 5.250000
v -6.625000 1.375000 5.750000
v -6.625000 1.875000 5.750000
v -6.625000 0.875000 6.000000
v -6.625000 1.375000 6.000000
v -6.625000 0.625000 5.750000
v -6.625000 0.625000 5.500000
v -6.625000 0.375000 6.000000
v -6.625000 0.375000 5.750000
v -6.625000 0.375000 6.250000
v -6.625000 0.875000 6.250000
v -6.625000 0.125000 6.500000
v -6.625000 0.375000 6.500000
v -6.625000 -0.625000 6.000000
v -6.625000 -0.875000 5.750000
v -6.625000 -0.625000 5.750000
v -6.625000 -0.375000 6.500000
v -6.625000 -0.625000 6.250000
v -6.625000 -1.375000 5.500000
v -6.625000 -0.875000 5.500000
v -6.625000 -0.375000 6.750000
v -6.625000 0.125000 6.750000
v -6.625000 -0.625000 6.500000
v -6.625000 -1.125000 6.000000
v -6.625000 -1.875000 5.250000
v -6.625000 -2.125000 5.000000
v -6.625000 -1.875000 5.000000
v -6.625000 -1.375000 5.250000
v -6.625000 -1.625000 5.750000
v -6.625000 -2.625000 4.750000
v -6.625000 -2.125000 4.750000
v -6.625000 -1.125000 6.250000
v -6.625000 -1.625000 6.000000
v -6.625000 -2.125000 5.500000
v -6.625000 -2.375000 5.250000
v -6.625000 -3.125000 4.500000
v -6.625000 -2.625000 4.500000
v -6.625000 -2.125000 5.750000
v -6.625000 -2.375000 5.500000
v -6.625000 -2.875000 5.000000
v -6.625000 -3.625000 4.250000
v -6.625000 -3.625000 4.000000
v -6.625000 -3.125000 4.250000
v -6.625000 -2.875000 5.250000
v -6.625000 -3.375000 4.750000
v -6.625000 -3.375000 5.000000
v -6.625000 -3.875000 4.500000
v -6.625000 -4.125000 4.250000
v -6.625000 -3.875000 4.750000
v -6.625000 -4.125000 4.500000
v -6.625000 -4.875000 3.500000
v -6.625000 -4.625000 4.250000
v -6.625000 -4.875000 3.250000
f 1 2 3
f 1 3 4
f 4 5 6
f 4 6 1
f 7 8 9
f 7 9 10
f 10 9 11
f 10 11 12
f 13 12 14
f 13 10 12
f 12 11 15
f 12 15 16
f 17 8 7
f 17 18 8
f 19 18 17
f 19 20 18
f 21 17 22
f 21 19 17
f 23 22 24
f 23 21 22
f 25 16 15
f 25 26 16
f 27 28 26
f 27 26 25
f 29 30 31
f 29 32 33
f 34 35 36
f 34 37 30
f 38 39 35
f 40 41 42
f 40 43 38
f 44 45 41
f 46 47 44
f 48 49 46
f 50 51 48
f 52 29 33
f 52 30 29
f 52 34 30
f 52 35 34
f 52 38 35
f 53 54 55
f 53 55 50
f 56 33 26
f 56 52 33
f 57 58 53
f 59 46 44
f 59 48 46
f 59 50 48
f 5 59 44
f 5 41 40
f 5 44 41
f 60 53 50
f 60 50 59
f 60 57 53
f 61 62 57
f 61 57 60
f 63 38 52
f 63 40 38
f 63 5 40
f 6 5 63
f 64 65 61
f 64 61 60
f 64 60 6
f 66 56 26
f 67 68 64
f 67 64 6
f 69 70 67
f 71 72 69
f 73 74 71
f 75 6 63
f 75 67 6
f 75 69 67
f 75 71 69
f 75 73 71
f 76 77 73
f 76 73 75
f 78 79 76
f 80 75 63
f 80 63 66
f 81 82 78
f 83 84 81
f 83 76 75
f 83 78 76
f 83 81 78
f 28 85 80
f 28 83 85
f 28 80 66
f 28 84 83
f 26 28 66
f 86 80 85
f 86 85 87
f 88 56 66
f 88 66 89
f 87 90 91
f 87 91 86
f 89 92 93
f 89 93 88
f 28 20 19
f 28 27 20
f 94 7 95
f 96 94 95
f 17 94 97
f 17 7 94
f 22 97 98
f 22 17 97
f 99 100 16
f 99 101 100
f 102 100 101
f 103 99 16
f 104 100 102
f 105 102 103
f 105 104 102
f 105 103 16
f 106 107 108
f 106 109 107
f 33 109 110
f 33 107 109
f 26 111 106
f 26 110 111
f 26 106 108
f 26 33 110
f 16 26 108
f 16 108 105
f 33 100 104
f 33 104 107
f 99 103 112
f 99 112 113
f 113 114 101
f 113 101 99
f 105 108 115
f 105 115 116
f 116 117 104
f 116 104 105
f 106 111 118
f 106 118 119
f 119 120 109
f 119 109 106
f 85 90 87
f 85 83 90
f 66 92 89
f 66 63 92
f 112 114 113
f 112 121 114
f 115 117 116
f 115 122 117
f 118 120 119
f 118 123 120
f 124 9 8
f 125 8 18
f 125 124 8
f 126 127 124
f 128 127 126
f 129 126 124
f 129 124 125
f 15 11 127
f 15 128 130
f 15 127 128
f 131 129 125
f 132 130 129
f 132 15 130
f 132 129 131
f 133 125 134
f 133 131 125
f 135 131 133
f 136 15 132
f 137 133 134
f 27 134 20
f 27 137 134
f 138 136 135
f 138 135 133
f 139 136 138
f 139 137 27
f 25 15 136
f 25 136 139
f 25 139 27
f 140 141 16
f 100 140 16
f 142 100 143
f 142 140 100
f 144 141 140
f 145 142 143
f 146 145 147
f 12 16 141
f 148 12 141
f 149 146 150
f 151 149 152
f 153 151 154
f 14 12 148
f 14 148 155
f 156 153 157
f 158 156 159
f 160 10 13
f 161 156 158
f 162 158 163
f 162 161 158
f 164 165 161
f 166 161 162
f 167 162 168
f 167 166 162
f 169 160 13
f 170 167 171
f 170 166 167
f 172 173 174
f 175 170 176
f 175 166 170
f 175 172 166
f 7 10 160
f 7 160 177
f 178 172 175
f 179 172 178
f 180 175 181
f 180 178 175
f 182 179 178
f 183 173 172
f 183 172 179
f 184 183 179
f 185 173 183
f 186 187 173
f 186 173 185
f 188 185 183
f 189 186 185
f 190 187 186
f 191 190 186
f 95 177 192
f 95 7 177
f 193 194 190
f 195 196 194
f 197 198 196
f 199 200 198
f 201 202 200
f 203 204 202
f 204 142 145
f 204 145 202
f 202 145 146
f 202 146 165
f 165 146 149
f 202 165 187
f 165 149 151
f 202 187 200
f 200 187 198
f 198 187 196
f 196 187 194
f 194 187 190
f 165 151 153
f 165 153 156
f 165 156 161
f 140 169 13
f 140 13 14
f 140 14 155
f 140 155 144
f 134 125 18
f 134 18 20
f 127 11 9
f 127 9 124
f 192 177 160
f 192 160 169
f 139 138 133
f 139 133 137
f 130 128 126
f 130 126 129
f 155 148 141
f 155 141 144
f 136 132 131
f 136 131 135
f 121 112 103
f 121 103 102
f 75 91 90
f 75 90 83
f 122 115 108
f 122 108 107
f 123 118 111
f 123 111 110
f 52 93 92
f 52 92 63
f 102 101 114
f 102 114 121
f 21 205 19
f 206 205 21
f 207 19 205
f 208 206 21
f 28 19 207
f 209 207 208
f 209 28 207
f 84 209 210
f 84 28 209
f 21 209 208
f 210 204 203
f 210 203 84
f 107 104 117
f 107 117 122
f 110 109 120
f 110 120 123
f 98 94 96
f 98 97 94
f 208 205 206
f 208 207 205
f 75 86 91
f 75 80 86
f 169 140 142
f 204 95 192
f 204 192 169
f 142 204 169
f 52 88 93
f 52 56 88
f 202 211 212
f 202 201 211
f 213 82 81
f 213 214 82
f 215 216 217
f 215 217 218
f 219 220 221
f 222 223 220
f 224 225 222
f 226 220 219
f 226 222 220
f 227 224 222
f 227 222 226
f 228 229 230
f 228 231 224
f 232 226 219
f 233 227 226
f 234 228 224
f 235 236 229
f 237 224 227
f 237 234 224
f 238 234 237
f 239 235 229
f 240 241 235
f 242 229 228
f 242 228 234
f 242 239 229
f 243 242 234
f 244 239 242
f 245 240 235
f 245 235 239
f 246 247 248
f 249 240 245
f 250 248 251
f 250 251 240
f 250 240 249
f 252 245 239
f 253 254 246
f 255 256 253
f 257 249 245
f 258 250 249
f 259 253 246
f 259 246 248
f 260 248 250
f 260 259 248
f 261 253 259
f 261 255 253
f 262 263 264
f 265 261 259
f 266 255 261
f 267 262 264
f 267 264 268
f 267 268 255
f 267 255 266
f 269 266 261
f 270 267 266
f 271 272 273
f 271 273 262
f 274 275 271
f 276 271 262
f 276 274 271
f 276 262 267
f 277 276 278
f 279 274 276
f 279 280 274
f 279 276 277
f 281 279 277
f 281 277 282
f 283 279 281
f 283 284 279
f 285 286 283
f 287 283 281
f 287 285 283
f 287 281 288
f 289 290 285
f 291 289 285
f 291 285 287
f 291 287 292
f 293 289 291
f 293 291 294
f 295 296 289
f 295 289 293
f 297 295 293
f 297 293 298
f 299 300 295
f 299 295 297
f 301 302 299
f 303 301 299
f 303 299 297
f 303 297 304
f 305 306 301
f 307 301 303
f 307 305 301
f 307 303 308
f 309 305 307
f 309 307 310
f 311 312 305
f 311 305 309
f 214 311 309
f 214 309 313
f 314 315 311
f 316 314 311
f 316 311 214
f 216 317 314
f 216 314 316
f 318 316 319
f 318 217 216
f 318 216 316
f 320 318 321
f 320 217 318
f 322 221 220
f 322 220 323
f 319 316 214
f 319 214 213
f 324 237 227
f 324 227 233
f 325 314 317
f 325 317 326
f 321 327 328
f 321 318 327
f 329 223 222
f 329 222 330
f 219 322 331
f 219 221 322
f 200 332 333
f 200 199 332
f 321 328 334
f 321 334 320
f 313 79 78
f 313 309 79
f 96 95 204
f 24 22 98
f 24 98 96
f 209 21 23
f 210 209 23
f 204 210 23
f 204 23 24
f 204 24 96
f 335 311 315
f 335 315 336
f 220 329 323
f 220 223 329
f 198 337 338
f 198 197 337
f 310 77 76
f 310 307 77
f 331 339 100
f 219 33 232
f 219 331 100
f 219 100 33
f 217 334 218
f 217 320 334
f 143 339 340
f 143 100 339
f 226 33 32
f 226 232 33
f 147 341 342
f 147 145 341
f 237 29 31
f 237 324 29
f 340 339 331
f 323 340 331
f 323 331 322
f 330 340 323
f 330 323 329
f 343 340 330
f 343 344 340
f 345 346 342
f 347 343 330
f 347 345 342
f 347 342 343
f 347 330 348
f 349 350 345
f 351 345 347
f 351 349 345
f 351 347 352
f 353 351 354
f 355 356 349
f 355 349 351
f 355 351 353
f 357 358 355
f 359 355 353
f 359 357 355
f 359 353 360
f 361 357 359
f 361 359 362
f 363 364 357
f 363 357 361
f 365 366 363
f 365 363 361
f 367 361 368
f 367 365 361
f 369 370 365
f 369 365 367
f 371 367 372
f 371 369 367
f 373 374 369
f 375 371 376
f 375 373 369
f 375 369 371
f 377 375 378
f 377 373 375
f 379 380 373
f 379 373 377
f 381 379 377
f 381 382 379
f 383 377 384
f 383 381 377
f 385 381 383
f 385 383 386
f 387 388 389
f 390 381 385
f 390 387 381
f 391 387 390
f 392 393 388
f 394 385 395
f 394 390 385
f 396 391 390
f 397 388 387
f 397 392 388
f 398 399 400
f 398 401 392
f 402 398 392
f 402 392 397
f 403 404 399
f 405 387 391
f 405 397 387
f 406 402 397
f 407 398 402
f 408 403 399
f 408 399 398
f 408 398 407
f 409 410 403
f 411 407 402
f 412 408 407
f 413 403 408
f 413 409 403
f 414 337 415
f 414 416 409
f 332 338 337
f 417 413 408
f 418 414 409
f 418 409 413
f 211 333 332
f 419 418 413
f 420 414 418
f 421 332 337
f 421 337 414
f 421 414 420
f 422 420 418
f 423 421 420
f 335 424 211
f 335 332 421
f 335 211 332
f 334 328 327
f 425 335 421
f 325 424 335
f 215 327 426
f 215 426 424
f 215 424 325
f 218 327 215
f 218 334 327
f 336 325 335
f 326 215 325
f 424 426 212
f 424 212 211
f 342 341 344
f 342 344 343
f 348 225 224
f 348 224 347
f 222 348 330
f 222 225 348
f 166 164 161
f 174 187 165
f 174 165 164
f 173 187 174
f 172 164 166
f 172 174 164
f 196 414 415
f 196 195 414
f 308 74 73
f 308 303 74
f 6 2 1
f 6 60 2
f 203 426 327
f 202 212 426
f 202 426 203
f 318 84 203
f 318 203 327
f 319 81 84
f 319 84 318
f 213 81 319
f 145 344 341
f 143 340 344
f 143 344 145
f 233 29 324
f 32 29 233
f 226 32 233
f 200 333 211
f 200 211 201
f 313 78 82
f 313 82 214
f 317 215 326
f 317 216 215
f 147 342 346
f 147 346 146
f 150 346 345
f 150 146 346
f 237 31 30
f 237 30 238
f 234 30 37
f 234 238 30
f 198 338 332
f 198 332 199
f 310 76 79
f 310 79 309
f 150 345 350
f 150 350 149
f 234 37 34
f 234 34 243
f 196 415 337
f 196 337 197
f 308 73 77
f 308 77 307
f 224 352 347
f 224 231 352
f 152 349 356
f 152 356 151
f 421 305 312
f 421 312 425
f 242 36 35
f 242 35 244
f 194 409 416
f 194 193 409
f 304 72 71
f 304 297 72
f 194 416 414
f 194 414 195
f 304 71 74
f 304 74 303
f 154 355 358
f 154 358 153
f 239 39 38
f 239 38 252
f 190 410 409
f 190 409 193
f 298 69 72
f 298 72 297
f 59 3 2
f 59 2 60
f 157 357 364
f 157 364 156
f 245 43 40
f 245 40 257
f 186 404 403
f 186 403 191
f 315 325 336
f 315 314 325
f 294 67 70
f 294 70 293
f 152 350 349
f 152 149 350
f 159 363 366
f 159 366 158
f 242 34 36
f 242 243 34
f 249 42 41
f 249 41 258
f 185 400 399
f 185 399 189
f 292 64 68
f 292 68 291
f 163 365 370
f 163 370 162
f 250 45 44
f 250 44 260
f 228 354 351
f 228 230 354
f 183 401 398
f 183 398 188
f 190 403 410
f 190 191 403
f 288 61 65
f 288 65 287
f 298 70 69
f 298 293 70
f 352 231 228
f 352 228 351
f 168 369 374
f 168 374 167
f 259 47 46
f 259 46 265
f 179 393 392
f 179 392 184
f 282 57 62
f 282 62 281
f 171 373 380
f 171 380 170
f 261 49 48
f 261 48 269
f 178 389 388
f 178 388 182
f 278 53 58
f 278 58 277
f 176 379 382
f 176 382 175
f 266 51 50
f 266 50 270
f 181 381 387
f 181 387 180
f 312 335 425
f 312 311 335
f 267 55 54
f 267 54 276
f 59 4 3
f 59 5 4
f 154 356 355
f 154 151 356
f 239 35 39
f 239 244 35
f 229 360 353
f 229 236 360
f 186 399 404
f 186 189 399
f 294 68 67
f 294 291 68
f 420 301 306
f 420 306 423
f 306 421 423
f 306 305 421
f 157 358 357
f 157 153 358
f 245 38 43
f 245 252 38
f 235 362 359
f 235 241 362
f 185 398 400
f 185 188 398
f 292 65 64
f 292 287 65
f 354 230 229
f 354 229 353
f 302 420 422
f 302 301 420
f 240 368 361
f 240 251 368
f 159 364 363
f 159 156 364
f 183 392 401
f 183 184 392
f 249 40 42
f 249 257 40
f 288 62 61
f 288 281 62
f 418 299 302
f 418 302 422
f 248 372 367
f 248 247 372
f 300 418 419
f 300 299 418
f 179 388 393
f 179 182 388
f 282 58 57
f 282 277 58
f 163 366 365
f 163 158 366
f 250 41 45
f 250 258 41
f 360 236 235
f 360 235 359
f 246 376 371
f 246 254 376
f 178 387 389
f 178 180 387
f 278 54 53
f 278 276 54
f 296 413 417
f 296 295 413
f 168 370 369
f 168 162 370
f 259 44 47
f 259 260 44
f 413 295 300
f 413 300 419
f 253 378 375
f 253 256 378
f 290 408 412
f 290 289 408
f 171 374 373
f 171 167 374
f 261 46 49
f 261 265 46
f 362 241 240
f 362 240 361
f 255 384 377
f 255 268 384
f 286 407 411
f 286 285 407
f 176 380 379
f 176 170 380
f 266 48 51
f 266 269 48
f 408 289 296
f 408 296 417
f 264 386 383
f 264 263 386
f 284 402 406
f 284 283 402
f 181 382 381
f 181 175 382
f 267 50 55
f 267 270 50
f 368 251 248
f 368 248 367
f 262 395 385
f 262 273 395
f 280 397 405
f 280 279 397
f 407 285 290
f 407 290 412
f 275 391 396
f 275 274 391
f 372 247 246
f 372 246 371
f 272 390 394
f 272 271 390
f 402 283 286
f 402 286 411
f 376 254 253
f 376 253 375
f 397 279 284
f 397 284 406
f 378 256 255
f 378 255 377
f 391 274 280
f 391 280 405
f 384 268 264
f 384 264 383
f 390 271 275
f 390 275 396
f 386 263 262
f 386 262 385
f 395 273 272
f 395 272 394
