v -6.750000 -4.750000 4.000000
v 6.750000 -4.750000 4.000000
v 6.750000 -5.750000 4.000000
v -6.750000 -5.750000 4.000000
v -6.750000 -5.750000 3.000000
v 6.750000 -5.750000 3.000000
v -6.750000 5.250000 3.500000
v -6.750000 5.750000 3.000000
v -6.750000 5.750000 3.500000
v -6.750000 4.250000 3.000000
v -6.750000 4.250000 3.500000
v -6.750000 4.250000 4.000000
v -6.750000 5.250000 4.000000
v -6.750000 3.250000 4.000000
v -6.750000 3.250000 3.500000
v -6.750000 3.750000 4.500000
v -6.750000 4.250000 4.500000
v -6.750000 2.750000 4.500000
v -6.750000 2.750000 4.000000
v -6.750000 2.750000 5.000000
v -6.750000 3.750000 5.000000
v -6.750000 1.750000 5.000000
v -6.750000 1.750000 4.500000
v -6.750000 1.750000 5.500000
v -6.750000 2.750000 5.500000
v -6.750000 0.750000 5.500000
v -6.750000 0.750000 5.000000
v -6.750000 0.750000 6.000000
v -6.750000 1.750000 6.000000
v -6.750000 0.250000 6.000000
v -6.750000 0.250000 5.500000
v -6.750000 0.250000 6.500000
v -6.750000 0.750000 6.500000
v -6.750000 -0.750000 6.500000
v -6.750000 -0.750000 6.000000
v -6.750000 -1.250000 6.000000
v -6.750000 -1.250000 5.500000
v -6.750000 -0.750000 5.500000
v -6.750000 -0.750000 7.000000
v -6.750000 0.250000 7.000000
v -6.750000 -1.250000 6.500000
v -6.750000 -2.250000 5.500000
v -6.750000 -2.250000 5.000000
v -6.750000 -1.250000 5.000000
v -6.750000 -3.750000 4.000000
v -6.750000 -3.250000 4.000000
v -6.750000 -3.250000 4.500000
v -6.750000 -2.250000 6.000000
v -6.750000 -3.250000 5.000000
v -6.750000 -2.250000 4.500000
v -6.750000 -4.750000 3.000000
v -6.750000 -4.750000 3.500000
v -6.750000 -3.250000 5.500000
v -6.750000 -4.250000 4.500000
v -6.750000 -3.750000 3.500000
v -6.750000 -4.250000 5.000000
v -6.750000 -4.750000 4.500000
v -6.250000 -4.750000 3.000000
v -6.250000 -4.750000 3.500000
v -6.250000 3.250000 4.000000
v -6.250000 3.250000 3.500000
v -6.250000 4.250000 3.500000
v -6.250000 4.250000 3.000000
v 6.750000 5.750000 3.500000
v 6.750000 5.250000 3.500000
v 6.750000 5.750000 3.000000
v -6.250000 -3.750000 3.500000
v -6.250000 -3.750000 4.000000
v 6.750000 5.250000 4.000000
v 6.750000 4.250000 4.000000
v 6.750000 3.750000 4.500000
v 6.750000 4.250000 4.500000
v 6.750000 4.250000 3.500000
v 6.750000 3.250000 4.000000
v 6.750000 2.750000 4.500000
v 6.750000 2.750000 5.000000
v 6.750000 3.750000 5.000000
v 6.750000 4.250000 3.000000
v 6.750000 3.250000 3.500000
v 6.750000 2.750000 4.000000
v 6.750000 1.750000 5.000000
v 6.750000 1.750000 5.500000
v 6.750000 2.750000 5.500000
v 6.750000 0.750000 5.500000
v 6.750000 0.750000 6.000000
v 6.750000 1.750000 6.000000
v 6.750000 0.250000 6.000000
v 6.750000 0.250000 6.500000
v 6.750000 0.750000 6.500000
v 6.750000 1.750000 4.500000
v 6.750000 -0.750000 6.500000
v 6.750000 -0.750000 7.000000
v 6.750000 0.250000 7.000000
v 6.750000 0.250000 5.500000
v 6.750000 0.750000 5.000000
v 6.750000 -0.750000 6.000000
v 6.750000 -1.250000 6.000000
v 6.750000 -1.250000 6.500000
v 6.750000 -1.250000 5.500000
v 6.750000 -0.750000 5.500000
v 6.750000 -2.250000 5.500000
v 6.750000 -2.250000 6.000000
v 6.750000 -2.250000 5.000000
v 6.750000 -1.250000 5.000000
v 6.750000 -3.250000 5.000000
v 6.750000 -3.250000 5.500000
v 6.750000 -3.250000 4.500000
v 6.750000 -2.250000 4.500000
v 6.750000 -4.250000 4.500000
v 6.750000 -4.250000 5.000000
v 6.750000 -3.750000 4.000000
v 6.750000 -3.250000 4.000000
v 6.750000 -4.750000 4.500000
v 6.750000 -4.750000 3.500000
v 6.750000 -3.750000 3.500000
v 6.750000 -4.750000 3.000000
v -6.250000 -5.250000 0.500000
v -6.250000 -5.250000 0.000000
v -6.250000 -0.750000 0.000000
v -6.250000 -0.750000 0.500000
v -6.250000 0.750000 0.000000
v -6.250000 0.750000 0.500000
v -6.250000 -0.750000 2.500000
v -6.250000 0.750000 2.500000
v -6.250000 5.250000 0.000000
v -6.250000 5.250000 0.500000
v -1.250000 -5.250000 0.500000
v -1.250000 -5.250000 0.000000
v -6.250000 -1.750000 1.000000
v -6.250000 -1.750000 2.500000
v -6.250000 -4.250000 1.000000
v -6.250000 -5.250000 2.500000
v -6.250000 -4.250000 2.500000
v 1.250000 -5.250000 0.500000
v 1.250000 -5.250000 0.000000
v 1.250000 -5.250000 2.500000
v -1.250000 -5.250000 2.500000
v 1.250000 -5.250000 3.000000
v -1.250000 -5.250000 3.000000
v 6.250000 -5.250000 0.500000
v 6.250000 -5.250000 0.000000
v 6.250000 5.250000 0.500000
v 6.250000 5.250000 0.000000
v -6.250000 4.750000 2.500000
v -6.250000 5.250000 3.000000
v -6.250000 3.750000 1.000000
v -6.250000 4.750000 3.000000
v -6.250000 3.750000 2.500000
v -6.250000 1.250000 1.000000
v -6.250000 1.250000 2.500000
v -4.750000 -5.250000 1.000000
v -4.750000 -5.250000 2.500000
v -2.250000 -5.250000 1.000000
v -2.250000 -5.250000 2.500000
v 1.750000 -5.250000 1.000000
v 1.750000 -5.250000 2.500000
v 4.250000 -5.250000 1.000000
v 5.750000 -5.250000 2.500000
v 4.250000 -5.250000 2.500000
v 6.250000 -5.250000 3.000000
v 5.750000 -5.250000 3.000000
v -6.250000 3.750000 3.000000
v -6.250000 3.250000 3.000000
v -6.250000 2.750000 3.000000
v -6.250000 2.250000 3.000000
v -6.250000 1.750000 3.000000
v -6.250000 1.250000 3.000000
v -6.250000 0.750000 3.000000
v -6.250000 0.250000 3.000000
v -6.250000 -0.250000 3.000000
v -6.250000 -0.750000 3.000000
v -6.250000 -1.250000 3.000000
v -6.250000 -1.750000 3.000000
v -6.250000 -2.250000 3.000000
v -6.250000 -2.750000 3.000000
v -6.250000 -3.250000 3.000000
v -6.250000 -3.750000 3.000000
v -6.250000 -4.250000 3.000000
v -6.250000 -5.250000 3.000000
v 6.250000 3.250000 3.500000
v 6.250000 4.250000 3.500000
v 6.250000 4.250000 3.000000
v 6.250000 2.750000 4.000000
v 6.250000 3.250000 4.000000
v 6.250000 1.750000 4.500000
v 6.250000 2.750000 4.500000
v 6.250000 5.250000 3.000000
v 6.250000 0.750000 5.000000
v 6.250000 1.750000 5.000000
v 6.250000 0.250000 5.500000
v 6.250000 0.750000 5.500000
v 6.250000 3.250000 2.000000
v 6.250000 3.250000 1.500000
v 6.250000 -0.750000 5.500000
v 6.250000 -0.750000 6.000000
v 6.250000 0.250000 6.000000
v 6.250000 1.750000 2.000000
v 6.250000 -1.250000 5.000000
v 6.250000 -1.250000 5.500000
v 6.250000 1.750000 1.500000
v 6.250000 -2.250000 4.500000
v 6.250000 -2.250000 5.000000
v 6.250000 -3.250000 4.000000
v 6.250000 -3.250000 4.500000
v 6.250000 -3.750000 3.500000
v 6.250000 -3.750000 4.000000
v 6.250000 -2.250000 2.000000
v 6.250000 -2.250000 1.500000
v 6.250000 -3.750000 2.000000
v 6.250000 -4.750000 3.000000
v 6.250000 -4.750000 3.500000
v 6.250000 -3.750000 1.500000
v 5.750000 -2.250000 1.500000
v 5.750000 -3.750000 1.500000
v 5.750000 3.250000 1.500000
v 5.750000 1.750000 1.500000
v 5.750000 -2.250000 2.000000
v 5.750000 -3.750000 2.000000
v 5.750000 3.250000 2.000000
v 5.750000 1.750000 2.000000
v -4.750000 5.250000 1.500000
v -4.750000 5.250000 2.000000
v -3.250000 5.250000 2.000000
v -3.250000 5.250000 1.500000
v -1.250000 5.250000 2.000000
v -1.250000 5.250000 1.500000
v 2.750000 5.250000 1.500000
v 0.250000 5.250000 2.000000
v 0.250000 5.250000 1.500000
v 2.750000 5.250000 2.000000
v 4.250000 5.250000 2.000000
v 4.250000 5.250000 1.500000
v -3.250000 4.750000 1.500000
v -4.750000 4.750000 1.500000
v -3.250000 4.750000 2.000000
v -4.750000 4.750000 2.000000
v 0.250000 4.750000 1.500000
v -1.250000 4.750000 1.500000
v 0.250000 4.750000 2.000000
v -1.250000 4.750000 2.000000
v 4.250000 4.750000 1.500000
v 2.750000 4.750000 1.500000
v 4.250000 4.750000 2.000000
v 2.750000 4.750000 2.000000
v -5.750000 -0.750000 0.000000
v -1.250000 -4.750000 0.000000
v -4.750000 0.250000 0.000000
v -5.750000 0.750000 0.000000
v -4.750000 0.750000 0.000000
v -3.250000 0.250000 0.000000
v -1.250000 0.250000 0.000000
v -3.250000 0.750000 0.000000
v -1.250000 0.750000 0.000000
v 0.750000 -0.750000 0.000000
v 1.250000 -4.750000 0.000000
v 0.250000 0.250000 0.000000
v 1.750000 -0.750000 0.000000
v 0.750000 0.250000 0.000000
v 0.250000 0.750000 0.000000
v 1.750000 0.250000 0.000000
v -6.250000 2.750000 4.500000
v -6.250000 2.750000 4.000000
v -6.250000 -3.250000 4.000000
v -6.250000 -3.250000 4.500000
v -6.250000 1.750000 5.000000
v -6.250000 1.750000 4.500000
v -6.250000 3.750000 3.500000
v -6.250000 2.250000 4.500000
v -6.250000 0.250000 3.500000
v -6.250000 0.750000 4.000000
v -6.250000 0.750000 4.500000
v -6.250000 0.250000 4.000000
v -6.250000 -0.250000 3.500000
v -6.250000 1.250000 5.000000
v -6.250000 0.750000 5.000000
v -6.250000 -0.750000 3.500000
v -6.250000 -1.250000 3.500000
v -6.250000 0.250000 5.500000
v -6.250000 -0.250000 5.000000
v -6.250000 0.250000 5.000000
v -6.250000 0.750000 5.500000
v -6.250000 -0.250000 6.000000
v -6.250000 0.250000 6.000000
v -6.250000 -0.750000 5.500000
v -6.250000 -0.750000 5.000000
v -6.250000 -1.250000 5.000000
v -6.250000 -1.250000 4.500000
v -6.250000 -0.750000 4.500000
v -6.250000 -0.750000 6.000000
v -6.250000 -1.250000 5.500000
v -6.250000 -1.750000 5.000000
v -6.250000 -2.250000 4.500000
v -6.250000 -1.250000 4.000000
v -6.250000 -2.250000 5.000000
v -6.250000 -2.750000 4.500000
v -6.250000 -4.250000 3.500000
f 1 2 3
f 1 3 4
f 3 5 4
f 3 6 5
f 7 8 9
f 10 8 7
f 11 10 7
f 12 7 13
f 12 11 7
f 14 15 11
f 14 11 12
f 16 12 17
f 16 14 12
f 18 19 14
f 18 14 16
f 20 16 21
f 20 18 16
f 22 23 18
f 22 18 20
f 24 20 25
f 24 22 20
f 26 27 22
f 26 22 24
f 28 24 29
f 28 26 24
f 30 31 26
f 30 26 28
f 32 30 28
f 32 28 33
f 34 30 32
f 34 35 30
f 36 37 38
f 36 38 35
f 39 34 32
f 39 32 40
f 41 35 34
f 41 36 35
f 42 43 44
f 42 44 37
f 45 46 47
f 48 37 36
f 48 42 37
f 49 47 50
f 49 50 43
f 5 51 52
f 53 49 43
f 53 43 42
f 54 45 47
f 1 52 55
f 1 55 45
f 1 45 54
f 56 47 49
f 56 54 47
f 57 1 54
f 4 5 52
f 4 52 1
f 58 52 51
f 58 59 52
f 60 15 14
f 60 61 15
f 62 10 11
f 62 63 10
f 9 64 65
f 9 65 7
f 66 9 8
f 66 64 9
f 67 45 55
f 67 68 45
f 13 69 70
f 13 70 12
f 66 65 64
f 70 71 72
f 73 70 69
f 73 69 65
f 74 71 70
f 75 76 77
f 75 77 71
f 75 71 74
f 78 65 66
f 78 73 65
f 79 70 73
f 79 74 70
f 80 75 74
f 81 82 83
f 81 83 76
f 84 85 86
f 84 86 82
f 87 88 89
f 87 89 85
f 90 81 76
f 90 76 75
f 91 88 87
f 91 92 93
f 91 93 88
f 94 85 84
f 94 87 85
f 95 84 82
f 95 82 81
f 96 91 87
f 97 98 91
f 97 91 96
f 99 97 96
f 99 96 100
f 101 102 97
f 101 97 99
f 103 101 99
f 103 99 104
f 105 106 101
f 105 101 103
f 107 105 103
f 107 103 108
f 109 110 105
f 109 105 107
f 111 107 112
f 111 109 107
f 2 113 109
f 2 109 111
f 114 111 115
f 114 2 111
f 3 2 114
f 6 114 116
f 6 3 114
f 117 118 119
f 117 119 120
f 120 119 121
f 120 121 122
f 123 122 124
f 123 120 122
f 122 121 125
f 122 125 126
f 127 118 117
f 127 128 118
f 123 129 120
f 130 129 123
f 117 129 131
f 117 120 129
f 132 131 133
f 132 117 131
f 134 128 127
f 134 135 128
f 136 127 137
f 136 134 127
f 138 137 139
f 138 136 137
f 140 135 134
f 140 141 135
f 141 140 142
f 141 142 143
f 144 126 145
f 144 146 126
f 147 144 145
f 148 146 144
f 122 146 149
f 122 126 146
f 124 149 150
f 124 122 149
f 143 126 125
f 143 142 126
f 133 131 129
f 133 129 130
f 132 151 117
f 152 151 132
f 127 151 153
f 137 153 154
f 137 127 153
f 127 117 151
f 149 146 148
f 150 149 148
f 136 155 134
f 156 155 136
f 157 134 155
f 158 157 159
f 158 140 157
f 160 158 161
f 160 140 158
f 140 134 157
f 154 151 152
f 154 153 151
f 63 148 144
f 63 144 147
f 162 148 63
f 163 148 162
f 164 148 163
f 150 164 165
f 150 165 166
f 150 148 164
f 167 150 166
f 168 124 150
f 168 150 167
f 169 124 168
f 170 124 169
f 123 124 170
f 171 123 170
f 172 130 123
f 172 123 171
f 173 130 172
f 174 130 173
f 175 130 174
f 133 175 176
f 133 176 177
f 133 130 175
f 178 133 177
f 58 132 133
f 58 133 178
f 179 132 58
f 180 181 182
f 183 184 180
f 185 186 183
f 142 182 187
f 188 189 185
f 190 191 188
f 192 180 182
f 193 182 142
f 193 192 182
f 194 195 196
f 194 196 190
f 194 190 188
f 197 188 185
f 197 183 180
f 197 185 183
f 197 180 192
f 198 199 194
f 198 194 188
f 200 193 142
f 201 202 198
f 203 204 201
f 205 206 203
f 207 188 197
f 207 198 188
f 207 201 198
f 207 203 201
f 207 205 203
f 208 197 200
f 208 207 197
f 209 205 207
f 210 211 205
f 210 205 209
f 212 210 209
f 140 160 210
f 140 210 212
f 140 212 208
f 140 208 200
f 142 140 200
f 213 208 212
f 213 212 214
f 215 193 200
f 215 200 216
f 159 155 156
f 159 157 155
f 207 213 217
f 207 208 213
f 214 218 217
f 214 217 213
f 192 215 219
f 192 193 215
f 216 220 219
f 216 219 215
f 152 132 179
f 139 137 154
f 139 154 152
f 179 139 152
f 221 145 126
f 221 222 145
f 223 145 222
f 224 221 126
f 225 145 223
f 226 223 224
f 226 225 223
f 226 224 126
f 227 228 229
f 227 230 228
f 187 230 231
f 187 228 230
f 142 232 227
f 142 231 232
f 142 227 229
f 142 187 231
f 126 142 229
f 126 229 226
f 187 145 225
f 187 225 228
f 221 224 233
f 221 233 234
f 235 233 224
f 235 224 223
f 234 236 222
f 234 222 221
f 226 229 237
f 226 237 238
f 239 237 229
f 239 229 228
f 238 240 225
f 238 225 226
f 227 232 241
f 227 241 242
f 243 241 232
f 243 232 231
f 242 244 230
f 242 230 227
f 156 136 138
f 159 156 138
f 161 158 159
f 138 161 159
f 212 218 214
f 212 209 218
f 200 220 216
f 200 197 220
f 233 236 234
f 233 235 236
f 237 240 238
f 237 239 240
f 241 244 242
f 241 243 244
f 245 119 118
f 246 118 128
f 246 245 118
f 247 248 245
f 249 248 247
f 250 245 246
f 250 247 245
f 251 250 246
f 125 121 248
f 125 249 252
f 125 248 249
f 253 252 250
f 253 125 252
f 253 250 251
f 254 246 255
f 254 251 246
f 256 251 254
f 257 254 255
f 141 255 135
f 141 257 255
f 258 256 254
f 259 125 253
f 259 256 258
f 260 257 141
f 260 259 258
f 143 125 259
f 143 259 260
f 143 260 141
f 116 211 210
f 116 114 211
f 255 246 128
f 255 128 135
f 248 121 119
f 248 119 245
f 73 182 181
f 73 78 182
f 257 258 254
f 260 258 257
f 252 249 247
f 252 247 250
f 74 180 184
f 74 79 180
f 259 253 251
f 259 251 256
f 207 217 218
f 207 218 209
f 192 219 220
f 192 220 197
f 115 206 205
f 115 111 206
f 223 222 236
f 223 236 235
f 228 225 240
f 228 240 239
f 113 1 57
f 113 2 1
f 231 230 244
f 231 244 243
f 261 19 18
f 261 262 19
f 75 183 186
f 75 80 183
f 65 13 7
f 65 69 13
f 54 109 113
f 54 113 57
f 263 47 46
f 263 264 47
f 112 204 203
f 112 107 204
f 110 54 56
f 110 109 54
f 265 23 22
f 265 266 23
f 179 51 5
f 58 51 179
f 139 179 5
f 6 161 138
f 6 138 139
f 6 139 5
f 160 161 6
f 116 210 160
f 116 160 6
f 81 185 189
f 81 90 185
f 267 162 63
f 267 63 62
f 163 162 267
f 61 164 163
f 61 163 267
f 262 165 164
f 262 61 60
f 262 164 61
f 268 262 261
f 266 167 166
f 266 166 165
f 266 165 262
f 266 262 268
f 269 170 169
f 269 169 168
f 270 168 167
f 270 167 266
f 270 269 168
f 271 270 266
f 272 269 270
f 273 170 269
f 274 271 266
f 274 266 265
f 171 170 273
f 275 271 274
f 276 171 273
f 277 173 172
f 277 172 171
f 277 171 276
f 278 279 280
f 278 280 275
f 278 275 281
f 282 278 283
f 284 279 278
f 284 278 282
f 284 285 279
f 286 287 288
f 286 288 285
f 289 284 282
f 290 285 284
f 290 286 285
f 291 287 286
f 292 174 173
f 292 173 277
f 292 287 291
f 292 277 293
f 292 293 287
f 294 292 291
f 295 174 292
f 263 176 175
f 263 175 174
f 263 174 295
f 67 177 176
f 67 176 263
f 264 263 295
f 68 67 263
f 296 178 177
f 296 177 67
f 59 58 178
f 59 178 296
f 70 17 12
f 70 72 17
f 17 72 71
f 17 71 16
f 292 43 50
f 292 294 43
f 272 270 271
f 273 269 272
f 280 271 275
f 280 272 271
f 279 272 280
f 293 277 276
f 288 276 273
f 288 273 272
f 288 293 276
f 288 272 279
f 287 293 288
f 285 288 279
f 108 202 201
f 108 103 202
f 106 49 53
f 106 105 49
f 281 27 26
f 281 275 27
f 84 188 191
f 84 95 188
f 147 10 63
f 145 8 10
f 145 10 147
f 187 182 78
f 66 187 78
f 66 8 145
f 66 145 187
f 71 21 16
f 71 77 21
f 296 52 59
f 55 52 296
f 67 55 296
f 49 105 110
f 49 110 56
f 286 37 44
f 286 290 37
f 115 205 211
f 115 211 114
f 104 199 198
f 104 99 199
f 267 11 15
f 267 15 61
f 62 11 267
f 73 181 180
f 73 180 79
f 263 46 45
f 263 45 68
f 102 42 48
f 102 101 42
f 112 203 206
f 112 206 111
f 283 31 30
f 283 278 31
f 60 14 19
f 60 19 262
f 87 190 196
f 87 94 190
f 74 184 183
f 74 183 80
f 76 25 20
f 76 83 25
f 295 47 264
f 50 47 295
f 292 50 295
f 21 77 76
f 21 76 20
f 284 35 38
f 284 289 35
f 108 201 204
f 108 204 107
f 100 195 194
f 100 96 195
f 268 18 23
f 268 23 266
f 261 18 268
f 75 186 185
f 75 185 90
f 291 43 294
f 44 43 291
f 286 44 291
f 98 36 41
f 98 97 36
f 104 198 202
f 104 202 103
f 274 22 27
f 274 27 275
f 265 22 274
f 81 189 188
f 81 188 95
f 284 38 37
f 284 37 290
f 82 29 24
f 82 86 29
f 42 101 106
f 42 106 53
f 100 194 199
f 100 199 99
f 281 26 31
f 281 31 278
f 84 191 190
f 84 190 94
f 92 34 39
f 92 91 34
f 282 30 35
f 282 35 289
f 283 30 282
f 87 196 195
f 87 195 96
f 85 33 28
f 85 89 33
f 25 83 82
f 25 82 24
f 88 40 32
f 88 93 40
f 36 97 102
f 36 102 48
f 29 86 85
f 29 85 28
f 34 91 98
f 34 98 41
f 33 89 88
f 33 88 32
f 40 93 92
f 40 92 39
