v 2.4999999999999964 -7.0 10.0
v 2.4999999999999964 -7.0 9.0
v 2.4999999999999964 -6.0 9.0
v 2.4999999999999964 -6.0 10.0
v 20.5 -6.0 9.0
v 21.5 -6.0 9.0
v 21.5 -5.0 9.0
v 22.5 -5.0 9.0
v 22.5 -6.0 9.0
v 22.5 -7.0 9.0
v -2.5000000000000036 -7.0 9.0
v -2.5000000000000036 -7.0 10.0
v -2.5000000000000036 -6.0 10.0
v -2.5000000000000036 -6.0 9.0
v -22.500000000000004 -7.0 9.0
v -3.5000000000000036 -7.0 9.0
v -21.500000000000004 -6.0 9.0
v -21.500000000000004 -5.0 9.0
v -22.500000000000004 -5.0 9.0
v -22.500000000000004 -6.0 9.0
v 4.4999999999999964 -6.0 11.0
v 4.4999999999999964 -6.0 12.0
v 4.4999999999999964 -4.0 12.0
v 4.4999999999999964 -4.0 11.0
v 4.4999999999999964 -5.0 11.0
v 19.5 -6.0 11.0
v 21.5 -6.0 11.0
v 22.5 -6.0 11.0
v 22.5 -4.0 11.0
v 21.5 -4.0 11.0
v 4.4999999999999964 6.0 11.0
v 4.4999999999999964 6.0 10.0
v 19.5 6.0 10.0
v 19.5 6.0 11.0
v 18.5 6.0 11.0
v 20.5 6.0 11.0
v 21.5 6.0 11.0
v 21.5 6.0 10.0
v 22.5 6.0 11.0
v 22.5 6.0 10.0
v 4.4999999999999964 -7.0 10.0
v 4.4999999999999964 -7.0 11.0
v 4.4999999999999964 -6.0 10.0
v 21.5 -7.0 10.0
v 22.5 -7.0 10.0
v 22.5 -6.0 10.0
v 21.5 -6.0 10.0
v 20.5 -6.0 10.0
v 19.5 -6.0 10.0
v 18.5 -6.0 10.0
v 21.5 -6.0 -3.0
v 21.5 -5.0 10.0
v 21.5 4.0 10.0
v 21.5 5.0 10.0
v 21.5 5.0 9.0
v 21.5 6.0 9.0
v 21.5 7.0 9.0
v 21.5 7.0 -3.0
v 21.5 6.0 -3.0
v 3.4999999999999964 7.0 -3.0
v 3.4999999999999964 7.0 9.0
v 3.4999999999999964 7.0 8.0
v 3.4999999999999964 8.0 -3.0
v 3.4999999999999964 9.0 -3.0
v 3.4999999999999964 9.0 10.0
v 3.4999999999999964 8.0 10.0
v 3.4999999999999964 8.0 9.0
v -3.5000000000000036 9.0 -3.0
v -3.5000000000000036 9.0 10.0
v -3.5000000000000036 9.0 9.0
v 22.5 -5.0 10.0
v 4.4999999999999964 8.0 10.0
v 21.5 8.0 10.0
v 22.5 8.0 10.0
v 22.5 8.0 9.0
v -3.5000000000000036 7.0 -3.0
v -3.5000000000000036 8.0 10.0
v -3.5000000000000036 8.0 9.0
v -3.5000000000000036 7.0 9.0
v -3.5000000000000036 7.0 8.0
v -22.500000000000004 8.0 10.0
v -22.500000000000004 8.0 9.0
v -4.5000000000000036 8.0 10.0
v -21.500000000000004 7.0 -3.0
v -21.500000000000004 7.0 9.0
v -21.500000000000004 7.0 8.0
v -21.500000000000004 -6.0 -2.0
v -21.500000000000004 -6.0 -3.0
v -21.500000000000004 -3.0 -3.0
v -21.500000000000004 -2.0 -3.0
v -21.500000000000004 -2.0 8.0
v -21.500000000000004 -2.0 9.0
v -21.500000000000004 -1.0 9.0
v -21.500000000000004 1.0 9.0
v -21.500000000000004 1.0 7.0
v -21.500000000000004 -1.0 7.0
v -21.500000000000004 -1.0 6.0
v -21.500000000000004 1.0 6.0
v -21.500000000000004 1.0 4.0
v -21.500000000000004 -1.0 4.0
v -21.500000000000004 -1.0 3.0
v -21.500000000000004 1.0 3.0
v -21.500000000000004 1.0 1.0
v -21.500000000000004 -1.0 1.0
v -21.500000000000004 -1.0 -3.0
v -21.500000000000004 6.0 9.0
v -21.500000000000004 6.0 7.0
v -21.500000000000004 5.0 7.0
v -21.500000000000004 5.0 8.0
v -21.500000000000004 5.0 9.0
v -21.500000000000004 5.0 10.0
v -21.500000000000004 -5.0 10.0
v -21.500000000000004 -5.0 7.0
v -21.500000000000004 -6.0 7.0
v -21.500000000000004 -6.0 6.0
v -21.500000000000004 -5.0 6.0
v -21.500000000000004 -5.0 4.0
v -21.500000000000004 -6.0 4.0
v -21.500000000000004 -6.0 3.0
v -21.500000000000004 -5.0 3.0
v -21.500000000000004 -5.0 1.0
v -21.500000000000004 -6.0 1.0
v -21.500000000000004 -6.0 0.0
v -21.500000000000004 -5.0 0.0
v -21.500000000000004 -5.0 -2.0
v -21.500000000000004 5.0 6.0
v -21.500000000000004 6.0 6.0
v -21.500000000000004 6.0 4.0
v -21.500000000000004 5.0 4.0
v -21.500000000000004 5.0 5.0
v -21.500000000000004 5.0 3.0
v -21.500000000000004 6.0 3.0
v -21.500000000000004 6.0 1.0
v -21.500000000000004 5.0 1.0
v -21.500000000000004 5.0 2.0
v -21.500000000000004 5.0 0.0
v -21.500000000000004 6.0 0.0
v -21.500000000000004 6.0 -2.0
v -21.500000000000004 5.0 -2.0
v -21.500000000000004 5.0 -1.0
v -22.500000000000004 -5.0 10.0
v -21.500000000000004 -1.0 2.0
v -21.500000000000004 -1.0 5.0
v -21.500000000000004 -1.0 8.0
v 22.5 -4.0 12.0
v 22.5 4.0 12.0
v 22.5 4.0 11.0
v 22.5 5.0 9.0
v 22.5 5.0 10.0
v -21.500000000000004 -6.0 -1.0
v -21.500000000000004 -6.0 2.0
v -21.500000000000004 -6.0 5.0
v 4.4999999999999964 9.0 10.0
v 4.4999999999999964 10.0 10.0
v 4.4999999999999964 10.0 11.0
v 4.4999999999999964 8.0 11.0
v 4.4999999999999964 8.0 12.0
v 4.4999999999999964 5.0 12.0
v 4.4999999999999964 5.0 13.0
v 4.4999999999999964 -3.0 13.0
v 4.4999999999999964 -3.0 12.0
v 4.4999999999999964 4.0 12.0
v 4.4999999999999964 4.0 11.0
v -4.5000000000000036 10.0 11.0
v -4.5000000000000036 10.0 10.0
v 3.4999999999999964 10.0 11.0
v -21.500000000000004 -6.0 8.0
v -22.500000000000004 6.0 10.0
v -4.5000000000000036 6.0 10.0
v -5.500000000000002 6.0 10.0
v -20.500000000000004 6.0 10.0
v -21.500000000000004 6.0 10.0
v -22.500000000000004 6.0 11.0
v -21.500000000000004 6.0 11.0
v -20.500000000000004 6.0 11.0
v -5.500000000000002 6.0 11.0
v -4.5000000000000036 6.0 11.0
v 21.5 4.0 12.0
v 21.5 4.0 11.0
v -22.500000000000004 -7.0 10.0
v -22.500000000000004 4.0 10.0
v -22.500000000000004 5.0 10.0
v -22.500000000000004 5.0 9.0
v -22.500000000000004 7.0 9.0
v -22.500000000000004 4.0 11.0
v -22.500000000000004 4.0 12.0
v -22.500000000000004 -4.0 12.0
v -22.500000000000004 -4.0 11.0
v -22.500000000000004 -6.0 11.0
v -22.500000000000004 -6.0 10.0
v -5.500000000000002 4.0 11.0
v -4.5000000000000036 4.0 11.0
v -4.5000000000000036 4.0 12.0
v -5.500000000000002 4.0 12.0
v -21.500000000000004 -6.0 10.0
v -20.500000000000004 -6.0 10.0
v -5.500000000000002 -6.0 10.0
v -4.5000000000000036 -6.0 10.0
v -4.5000000000000036 -7.0 10.0
v -5.500000000000002 -7.0 10.0
v -4.5000000000000036 8.0 12.0
v -4.5000000000000036 8.0 11.0
v 3.4999999999999964 8.0 11.0
v 3.4999999999999964 8.0 12.0
v -4.5000000000000036 -7.0 11.0
v -4.5000000000000036 -6.0 11.0
v -4.5000000000000036 5.0 13.0
v -4.5000000000000036 5.0 12.0
v 3.4999999999999964 5.0 12.0
v 3.4999999999999964 5.0 13.0
v 3.4999999999999964 -7.0 11.0
v 3.4999999999999964 -6.0 11.0
v -4.5000000000000036 5.0 11.0
v -4.5000000000000036 -3.0 12.0
v -4.5000000000000036 -3.0 13.0
v -4.5000000000000036 9.0 10.0
v -21.500000000000004 -6.0 11.0
v -20.500000000000004 -6.0 11.0
v -5.500000000000002 -6.0 11.0
v -4.5000000000000036 -4.0 11.0
v -5.500000000000002 -4.0 11.0
v -4.5000000000000036 -6.0 12.0
v -4.5000000000000036 -4.0 12.0
v -4.5000000000000036 -5.0 12.0
v 3.4999999999999964 -6.0 12.0
v 3.4999999999999964 -3.0 12.0
v 3.4999999999999964 -3.0 13.0
v 20.5 -6.0 -3.0
v -20.500000000000004 -1.0 -3.0
v -19.500000000000004 -1.0 -3.0
v -19.500000000000004 -2.0 -3.0
v -16.5 -2.0 -3.0
v -16.5 -5.0 -3.0
v -20.500000000000004 -5.0 -3.0
v -20.500000000000004 -3.0 -3.0
v -20.500000000000004 -2.0 -3.0
v 9.499999999999996 -5.0 -3.0
v 9.499999999999996 4.0 -3.0
v 9.499999999999996 5.0 -3.0
v 19.5 5.0 -3.0
v 19.5 -5.0 -3.0
v 18.5 -5.0 -3.0
v -15.500000000000002 0.0 -3.0
v -16.5 0.0 -3.0
v -17.5 0.0 -3.0
v -18.5 0.0 -3.0
v -19.500000000000004 0.0 -3.0
v -20.500000000000004 0.0 -3.0
v -20.500000000000004 1.0 -3.0
v -20.500000000000004 2.0 -3.0
v -20.500000000000004 3.0 -3.0
v -20.500000000000004 4.0 -3.0
v -20.500000000000004 5.0 -3.0
v -19.500000000000004 5.0 -3.0
v -19.500000000000004 4.0 -3.0
v -19.500000000000004 3.0 -3.0
v -19.500000000000004 2.0 -3.0
v -18.5 2.0 -3.0
v -18.5 1.0 -3.0
v -17.5 1.0 -3.0
v -17.5 2.0 -3.0
v -17.5 3.0 -3.0
v -17.5 4.0 -3.0
v -17.5 5.0 -3.0
v -16.5 5.0 -3.0
v -16.5 4.0 -3.0
v -16.5 3.0 -3.0
v -16.5 2.0 -3.0
v -15.500000000000002 2.0 -3.0
v -15.500000000000002 1.0 -3.0
v -14.500000000000002 1.0 -3.0
v -14.500000000000002 2.0 -3.0
v -14.500000000000002 3.0 -3.0
v -14.500000000000002 4.0 -3.0
v -14.500000000000002 5.0 -3.0
v -13.500000000000002 5.0 -3.0
v -13.500000000000002 4.0 -3.0
v -13.500000000000002 3.0 -3.0
v -13.500000000000002 2.0 -3.0
v -12.500000000000002 2.0 -3.0
v -12.500000000000002 1.0 -3.0
v -11.500000000000002 1.0 -3.0
v -11.500000000000002 2.0 -3.0
v -11.500000000000002 3.0 -3.0
v -11.500000000000002 4.0 -3.0
v -11.500000000000002 5.0 -3.0
v -10.500000000000002 5.0 -3.0
v -10.500000000000002 4.0 -3.0
v -10.500000000000002 3.0 -3.0
v -10.500000000000002 2.0 -3.0
v -9.500000000000002 2.0 -3.0
v -9.500000000000002 1.0 -3.0
v -8.500000000000002 1.0 -3.0
v -8.500000000000002 2.0 -3.0
v -8.500000000000002 3.0 -3.0
v -8.500000000000002 4.0 -3.0
v -8.500000000000002 5.0 -3.0
v -7.500000000000002 5.0 -3.0
v -7.500000000000002 4.0 -3.0
v -7.500000000000002 3.0 -3.0
v -7.500000000000002 2.0 -3.0
v -6.500000000000002 2.0 -3.0
v -5.500000000000002 2.0 -3.0
v -5.500000000000002 3.0 -3.0
v -5.500000000000002 4.0 -3.0
v -5.500000000000002 5.0 -3.0
v -4.5000000000000036 5.0 -3.0
v -3.5000000000000036 5.0 -3.0
v -3.5000000000000036 4.0 -3.0
v -3.5000000000000036 3.0 -3.0
v -3.5000000000000036 2.0 -3.0
v -4.5000000000000036 2.0 -3.0
v -4.5000000000000036 1.0 -3.0
v -3.5000000000000036 1.0 -3.0
v -2.5000000000000036 1.0 -3.0
v -2.5000000000000036 2.0 -3.0
v -2.5000000000000036 3.0 -3.0
v -2.5000000000000036 4.0 -3.0
v -2.5000000000000036 5.0 -3.0
v -2.5000000000000036 6.0 -3.0
v -2.5000000000000036 7.0 -3.0
v -1.5000000000000036 7.0 -3.0
v -0.5000000000000036 7.0 -3.0
v 0.49999999999999645 7.0 -3.0
v 1.4999999999999964 7.0 -3.0
v 1.4999999999999964 6.0 -3.0
v 1.4999999999999964 5.0 -3.0
v 1.4999999999999964 4.0 -3.0
v 1.4999999999999964 3.0 -3.0
v 1.4999999999999964 2.0 -3.0
v 1.4999999999999964 1.0 -3.0
v 2.4999999999999964 1.0 -3.0
v 2.4999999999999964 0.0 -3.0
v 1.4999999999999964 -1.0 -3.0
v 1.4999999999999964 -2.0 -3.0
v 1.4999999999999964 -3.0 -3.0
v 1.4999999999999964 -4.0 -3.0
v 1.4999999999999964 -5.0 -3.0
v 0.49999999999999645 -5.0 -3.0
v -0.5000000000000036 -5.0 -3.0
v -1.5000000000000036 -5.0 -3.0
v -2.5000000000000036 -5.0 -3.0
v -2.5000000000000036 -4.0 -3.0
v -2.5000000000000036 -3.0 -3.0
v -2.5000000000000036 -2.0 -3.0
v -1.5000000000000036 -2.0 -3.0
v -0.5000000000000036 -2.0 -3.0
v -0.5000000000000036 -1.0 -3.0
v 0.49999999999999645 -1.0 -3.0
v 3.4999999999999964 0.0 -3.0
v 3.4999999999999964 1.0 -3.0
v 3.4999999999999964 2.0 -3.0
v 3.4999999999999964 4.0 -3.0
v 3.4999999999999964 5.0 -3.0
v 4.4999999999999964 5.0 -3.0
v 4.4999999999999964 2.0 -3.0
v 5.4999999999999964 2.0 -3.0
v 5.4999999999999964 1.0 -3.0
v 6.4999999999999964 1.0 -3.0
v 6.4999999999999964 2.0 -3.0
v 6.4999999999999964 4.0 -3.0
v 6.4999999999999964 5.0 -3.0
v 7.4999999999999964 5.0 -3.0
v 7.4999999999999964 2.0 -3.0
v 8.499999999999996 2.0 -3.0
v 8.499999999999996 -1.0 -3.0
v 7.4999999999999964 -1.0 -3.0
v 7.4999999999999964 0.0 -3.0
v 6.4999999999999964 0.0 -3.0
v 3.4999999999999964 -5.0 -3.0
v 3.4999999999999964 -3.0 -3.0
v 3.4999999999999964 -2.0 -3.0
v 3.4999999999999964 -1.0 -3.0
v 4.4999999999999964 -1.0 -3.0
v 5.4999999999999964 -1.0 -3.0
v 5.4999999999999964 -2.0 -3.0
v 7.4999999999999964 -2.0 -3.0
v 7.4999999999999964 -5.0 -3.0
v 6.4999999999999964 -5.0 -3.0
v -14.500000000000002 -5.0 -3.0
v -14.500000000000002 -3.0 -3.0
v -14.500000000000002 -2.0 -3.0
v -15.500000000000002 -2.0 -3.0
v -15.500000000000002 -1.0 -3.0
v -14.500000000000002 -1.0 -3.0
v -13.500000000000002 -1.0 -3.0
v -13.500000000000002 -2.0 -3.0
v -10.500000000000002 -2.0 -3.0
v -10.500000000000002 -5.0 -3.0
v -11.500000000000002 -5.0 -3.0
v -8.500000000000002 -5.0 -3.0
v -8.500000000000002 -3.0 -3.0
v -8.500000000000002 -2.0 -3.0
v -9.500000000000002 -2.0 -3.0
v -9.500000000000002 -1.0 -3.0
v -8.500000000000002 -1.0 -3.0
v -7.500000000000002 -1.0 -3.0
v -7.500000000000002 -2.0 -3.0
v -4.5000000000000036 -2.0 -3.0
v -4.5000000000000036 -5.0 -3.0
v -5.500000000000002 -5.0 -3.0
v 20.5 -6.0 7.0
v 19.5 -6.0 7.0
v 20.5 -6.0 6.0
v 20.5 -6.0 4.0
v 19.5 -6.0 4.0
v 3.4999999999999964 -6.0 4.0
v 3.4999999999999964 -6.0 3.0
v 20.5 -6.0 3.0
v 20.5 -6.0 1.0
v 19.5 -6.0 1.0
v 3.4999999999999964 -6.0 1.0
v 3.4999999999999964 -6.0 0.0
v 2.4999999999999964 -6.0 0.0
v 1.4999999999999964 -6.0 0.0
v 0.49999999999999645 -6.0 0.0
v -1.5000000000000036 -6.0 0.0
v -2.5000000000000036 -6.0 0.0
v -3.5000000000000036 -6.0 0.0
v -3.5000000000000036 -6.0 1.0
v -4.5000000000000036 -6.0 1.0
v -6.500000000000002 -6.0 0.0
v -6.500000000000002 -6.0 -2.0
v -7.500000000000002 -6.0 -2.0
v 5.4999999999999964 -6.0 -2.0
v 5.4999999999999964 -6.0 -1.0
v 5.4999999999999964 -6.0 0.0
v 20.5 -6.0 0.0
v 20.5 -6.0 -2.0
v 19.5 -6.0 -2.0
v -3.5000000000000036 -10.0 1.0
v -3.5000000000000036 -9.0 1.0
v -3.5000000000000036 -8.0 1.0
v -2.5000000000000036 -8.0 1.0
v -1.5000000000000036 -8.0 1.0
v -1.5000000000000036 -9.0 1.0
v 0.49999999999999645 -9.0 1.0
v 1.4999999999999964 -9.0 1.0
v 1.4999999999999964 -8.0 1.0
v 2.4999999999999964 -8.0 1.0
v 3.4999999999999964 -8.0 1.0
v 3.4999999999999964 -10.0 1.0
v 2.4999999999999964 -10.0 1.0
v 3.4999999999999964 -10.0 0.0
v 3.4999999999999964 -8.0 0.0
v 3.4999999999999964 -9.0 0.0
v 3.4999999999999964 -7.0 0.0
v 3.4999999999999964 -8.0 4.0
v 3.4999999999999964 -8.0 3.0
v -4.5000000000000036 -10.0 4.0
v -4.5000000000000036 -7.0 4.0
v -4.5000000000000036 -6.0 4.0
v 3.4999999999999964 -10.0 4.0
v 2.4999999999999964 -10.0 4.0
v 1.4999999999999964 -9.0 3.0
v 1.4999999999999964 -8.0 3.0
v 3.4999999999999964 -10.0 3.0
v 3.4999999999999964 -9.0 3.0
v -3.5000000000000036 -10.0 0.0
v -3.5000000000000036 -9.0 0.0
v -3.5000000000000036 -8.0 0.0
v -3.5000000000000036 -7.0 0.0
v -3.5000000000000036 -6.0 3.0
v -3.5000000000000036 -8.0 3.0
v -3.5000000000000036 -8.0 2.0
v -1.5000000000000036 -9.0 2.0
v -1.5000000000000036 -9.0 3.0
v -1.5000000000000036 -8.0 3.0
v -4.5000000000000036 -10.0 3.0
v -4.5000000000000036 -7.0 3.0
v -4.5000000000000036 -6.0 3.0
v -2.5000000000000036 -1.0 -3.0
v -3.5000000000000036 -1.0 -3.0
v -3.5000000000000036 0.0 -3.0
v -2.5000000000000036 0.0 -3.0
v 2.4999999999999964 -1.0 -3.0
v 1.4999999999999964 0.0 -3.0
v 7.4999999999999964 1.0 -3.0
v 2.4999999999999964 -10.0 0.0
v -4.5000000000000036 0.0 -3.0
v -5.500000000000002 0.0 -3.0
v -6.500000000000002 0.0 -3.0
v -7.500000000000002 0.0 -3.0
v -8.500000000000002 0.0 -3.0
v -9.500000000000002 0.0 -3.0
v -10.500000000000002 0.0 -3.0
v -11.500000000000002 0.0 -3.0
v -12.500000000000002 0.0 -3.0
v -13.500000000000002 0.0 -3.0
v -14.500000000000002 0.0 -3.0
v 2.4999999999999964 -8.0 3.0
v -1.5000000000000036 0.0 -3.0
v 0.49999999999999645 0.0 -3.0
v -0.5000000000000036 0.0 -3.0
v -5.500000000000002 -6.0 3.0
v 2.4999999999999964 -10.0 3.0
v -1.5000000000000036 -8.0 0.0
v -1.5000000000000036 -9.0 0.0
v 1.4999999999999964 -9.0 0.0
v 1.4999999999999964 -8.0 0.0
v 2.4999999999999964 -8.0 0.0
v -1.5000000000000036 -7.0 0.0
v 0.49999999999999645 -7.0 0.0
v 0.49999999999999645 -8.0 0.0
v -2.5000000000000036 -7.0 0.0
v 1.4999999999999964 -7.0 0.0
v 2.4999999999999964 -7.0 0.0
v 1.4999999999999964 -6.0 10.0
v 1.4999999999999964 -6.0 9.0
o Outer Shell
f 2 1 4
f 4 3 2
f 2 3 5
f 2 5 10
f 10 5 6
f 7 8 9
f 10 6 9
f 9 6 7
f 11 14 13
f 13 12 11
f 20 19 17
f 15 17 16
f 17 15 20
f 19 18 17
f 17 14 16
f 14 11 16
f 21 25 22
f 25 23 22
f 23 25 24
f 21 26 25
f 24 25 26
f 26 30 24
f 27 28 29
f 29 30 27
f 27 30 26
f 32 31 35
f 35 34 33
f 35 33 32
f 33 34 36
f 36 37 38
f 36 38 33
f 40 38 39
f 37 39 38
f 41 43 21
f 21 42 41
f 44 49 50
f 43 41 50
f 44 50 41
f 44 45 46
f 44 47 48
f 47 44 46
f 44 48 49
f 55 51 59
f 51 7 6
f 55 7 51
f 59 58 57
f 59 56 55
f 56 59 57
f 53 52 7
f 53 55 54
f 53 7 55
f 60 62 58
f 57 58 62
f 57 62 61
f 63 64 62
f 62 60 63
f 64 67 62
f 67 65 66
f 65 67 64
f 67 61 62
f 64 68 70
f 70 69 65
f 70 65 64
f 7 52 71
f 71 8 7
f 67 66 72
f 67 72 75
f 73 74 75
f 73 75 72
f 68 80 70
f 68 76 80
f 80 79 78
f 77 69 70
f 78 70 80
f 70 78 77
f 82 81 83
f 83 77 78
f 83 78 82
f 86 85 80
f 84 86 80
f 80 76 84
f 79 80 85
f 120 119 117
f 117 119 118
f 123 122 121
f 121 120 90
f 121 124 123
f 90 120 91
f 91 116 113
f 116 115 114
f 114 113 116
f 116 91 117
f 91 113 18
f 120 117 91
f 88 87 125
f 124 121 90
f 88 125 89
f 89 124 90
f 105 104 103
f 125 124 89
f 100 102 101
f 99 102 100
f 140 103 136
f 140 139 103
f 138 84 139
f 135 103 102
f 139 84 105
f 137 84 138
f 103 139 105
f 92 18 112
f 92 91 18
f 92 112 93
f 129 102 99
f 97 95 98
f 96 95 97
f 130 99 98
f 109 95 94
f 94 93 112
f 110 94 111
f 108 95 109
f 94 110 109
f 95 108 98
f 111 94 112
f 126 98 108
f 131 135 102
f 134 103 135
f 136 134 133
f 103 134 136
f 132 84 133
f 133 137 136
f 131 129 132
f 131 102 129
f 126 107 127
f 126 108 107
f 86 107 106
f 85 86 106
f 107 86 127
f 129 128 132
f 128 127 86
f 132 128 86
f 84 132 86
f 130 129 99
f 98 126 130
f 133 84 137
f 19 141 112
f 112 18 19
f 91 101 142
f 91 100 101
f 90 104 105
f 104 90 142
f 90 91 142
f 144 91 92
f 144 92 93
f 143 91 97
f 144 96 91
f 91 96 97
f 91 143 100
f 9 8 71
f 9 71 46
f 147 29 71
f 28 71 29
f 45 10 46
f 28 46 71
f 10 9 46
f 148 40 149
f 40 148 75
f 75 74 40
f 147 145 29
f 71 149 147
f 39 147 149
f 147 146 145
f 149 40 39
f 87 150 125
f 150 124 125
f 124 150 123
f 139 140 138
f 140 137 138
f 137 140 136
f 122 151 121
f 151 120 121
f 120 151 119
f 104 142 103
f 102 103 142
f 102 142 101
f 134 135 133
f 135 132 133
f 132 135 131
f 118 152 117
f 152 116 117
f 116 152 115
f 31 32 156
f 163 31 158
f 160 161 162
f 160 162 159
f 158 162 163
f 159 162 158
f 31 157 158
f 153 154 155
f 153 155 156
f 156 32 72
f 156 157 31
f 156 72 153
f 165 164 166
f 166 155 154
f 166 154 165
f 100 143 99
f 98 99 143
f 98 143 97
f 129 130 128
f 130 127 128
f 127 130 126
f 114 167 113
f 167 18 113
f 18 167 17
f 96 144 95
f 94 95 144
f 94 144 93
f 108 109 107
f 109 106 107
f 106 109 110
f 168 172 81
f 172 171 81
f 170 169 83
f 81 171 83
f 83 171 170
f 168 173 174
f 174 172 168
f 172 174 171
f 175 171 174
f 170 171 176
f 176 171 175
f 177 169 170
f 177 170 176
f 179 163 178
f 178 163 162
f 179 146 147
f 146 179 178
f 15 180 190
f 190 189 141
f 15 190 20
f 19 20 141
f 189 188 141
f 141 20 190
f 188 187 185
f 188 181 141
f 181 185 182
f 185 181 188
f 185 173 182
f 182 173 168
f 185 187 186
f 183 168 184
f 168 183 182
f 184 81 82
f 81 184 168
f 191 185 194
f 194 185 186
f 194 193 192
f 194 192 191
f 180 196 195
f 196 180 200
f 195 190 180
f 199 198 197
f 200 197 196
f 197 200 199
f 32 33 72
f 72 33 73
f 38 40 74
f 74 73 38
f 38 73 33
f 203 202 204
f 204 202 201
f 204 157 156
f 204 156 203
f 199 205 206
f 206 198 199
f 209 208 210
f 210 208 207
f 210 159 158
f 210 158 209
f 205 211 206
f 206 211 212
f 42 21 212
f 42 212 211
f 214 215 193
f 208 193 207
f 213 192 208
f 177 213 208
f 192 193 208
f 193 215 207
f 208 201 177
f 201 202 177
f 202 83 169
f 83 202 216
f 164 165 216
f 202 164 216
f 202 169 177
f 217 218 188
f 188 189 217
f 218 221 188
f 219 206 220
f 220 221 219
f 219 221 218
f 206 222 224
f 224 223 220
f 224 220 206
f 185 175 174
f 175 185 191
f 174 173 185
f 192 213 191
f 213 176 191
f 176 213 177
f 191 176 175
f 35 179 34
f 179 35 163
f 31 163 35
f 147 39 37
f 36 34 179
f 179 37 36
f 179 147 37
f 202 203 164
f 164 203 166
f 156 155 166
f 156 166 203
f 224 222 225
f 214 223 226
f 224 226 223
f 186 187 194
f 214 194 187
f 193 194 214
f 187 223 214
f 225 226 224
f 146 178 145
f 161 145 178
f 225 23 226
f 161 226 23
f 162 161 178
f 23 145 161
f 225 22 23
f 201 208 204
f 204 208 209
f 158 157 204
f 158 204 209
f 215 227 207
f 207 227 210
f 160 159 210
f 160 210 227
f 250 249 105
f 105 248 229
f 248 105 249
f 247 229 248
f 250 105 251
f 84 252 251
f 258 257 256
f 259 258 260
f 258 261 260
f 251 105 84
f 89 90 236
f 89 236 235
f 235 234 89
f 89 234 88
f 230 247 246
f 230 246 245
f 245 232 231
f 245 231 230
f 247 230 229
f 245 244 232
f 262 258 256
f 253 84 254
f 84 253 252
f 258 262 261
f 264 255 254
f 256 255 263
f 84 264 254
f 264 263 255
f 265 264 84
f 267 266 273
f 265 275 266
f 262 256 263
f 84 275 265
f 267 273 269
f 269 268 267
f 269 273 272
f 270 272 271
f 272 270 269
f 266 274 273
f 276 275 84
f 284 278 277
f 286 277 276
f 84 76 276
f 266 275 274
f 286 285 277
f 286 276 76
f 244 384 232
f 384 383 232
f 233 232 383
f 381 383 382
f 384 244 385
f 279 278 280
f 385 244 386
f 282 281 280
f 395 386 244
f 280 283 282
f 233 381 380
f 381 233 383
f 390 389 88
f 389 391 88
f 380 88 233
f 388 395 394
f 388 387 386
f 388 394 392
f 391 389 392
f 393 392 394
f 392 389 388
f 388 386 395
f 391 401 88
f 233 88 234
f 284 283 280
f 280 278 284
f 291 290 289
f 396 395 244
f 295 288 296
f 295 291 289
f 294 293 292
f 294 291 295
f 294 292 291
f 295 289 288
f 277 285 284
f 244 397 396
f 400 88 401
f 343 342 400
f 342 88 400
f 399 398 397
f 344 399 345
f 397 244 348
f 344 343 400
f 341 340 88
f 400 399 344
f 341 88 342
f 296 288 287
f 380 390 88
f 88 340 228
f 297 296 287
f 302 300 304
f 305 300 299
f 302 301 300
f 306 305 299
f 297 76 298
f 305 304 300
f 303 302 304
f 307 306 76
f 298 306 299
f 287 76 297
f 313 312 314
f 314 312 311
f 397 348 399
f 345 348 346
f 347 346 348
f 317 316 311
f 310 317 311
f 348 345 399
f 315 314 316
f 318 310 309
f 314 311 316
f 308 76 320
f 308 307 76
f 320 76 321
f 308 320 319
f 317 310 318
f 318 309 319
f 309 308 319
f 321 68 322
f 68 321 76
f 322 68 323
f 324 323 68
f 64 325 324
f 324 68 64
f 76 306 298
f 328 327 354
f 327 326 354
f 332 331 330
f 352 330 329
f 328 353 329
f 362 355 60
f 60 354 326
f 60 325 63
f 353 328 354
f 355 354 60
f 353 352 329
f 325 60 326
f 325 64 63
f 348 244 349
f 76 287 286
f 244 334 349
f 372 336 335
f 476 372 335
f 332 352 351
f 332 351 350
f 333 350 373
f 350 333 332
f 374 373 350
f 333 373 476
f 330 352 332
f 372 476 373
f 336 372 371
f 337 336 371
f 337 370 338
f 370 337 371
f 338 370 228
f 339 338 228
f 374 350 369
f 379 378 228
f 377 237 378
f 378 237 228
f 367 376 375
f 370 379 228
f 357 356 361
f 360 357 361
f 357 360 359
f 359 358 357
f 367 375 369
f 374 369 375
f 361 356 355
f 60 363 362
f 363 238 364
f 238 363 239
f 239 363 60
f 365 364 238
f 368 367 369
f 238 237 366
f 366 377 367
f 242 228 237
f 365 238 366
f 377 376 367
f 240 58 59
f 240 59 51
f 241 51 228
f 51 241 240
f 241 228 242
f 239 58 240
f 237 377 366
f 239 60 58
f 362 361 355
f 339 228 340
f 234 235 231
f 235 236 231
f 231 232 233
f 231 233 234
f 381 382 387
f 380 381 390
f 387 388 390
f 389 390 388
f 387 390 381
f 401 391 392
f 398 392 393
f 398 399 401
f 400 401 399
f 398 401 392
f 346 340 343
f 344 346 343
f 343 341 342
f 341 343 340
f 344 345 346
f 347 337 340
f 336 347 335
f 338 339 337
f 339 340 337
f 347 336 337
f 347 340 346
f 370 371 379
f 371 372 376
f 376 377 379
f 378 379 377
f 376 379 371
f 237 238 242
f 242 238 240
f 240 241 242
f 240 238 239
f 90 105 236
f 236 105 229
f 229 230 231
f 229 231 236
f 383 384 382
f 382 384 385
f 385 386 387
f 385 387 382
f 393 394 396
f 396 394 395
f 397 398 393
f 397 393 396
f 425 417 423
f 419 420 421
f 423 417 418
f 425 413 414
f 413 425 426
f 415 416 425
f 414 415 425
f 425 416 417
f 418 419 423
f 87 88 424
f 422 421 122
f 419 422 423
f 422 419 421
f 122 123 422
f 407 408 406
f 423 424 88
f 423 228 425
f 228 423 88
f 228 51 429
f 429 430 228
f 428 429 51
f 428 411 427
f 51 410 428
f 410 411 428
f 409 405 406
f 409 410 51
f 406 408 409
f 409 6 405
f 409 51 6
f 427 412 413
f 412 427 411
f 427 413 426
f 404 402 403
f 402 404 6
f 5 402 6
f 404 405 6
f 403 115 404
f 114 115 403
f 430 425 228
f 432 431 436
f 436 431 437
f 434 436 435
f 432 434 433
f 434 432 436
f 443 442 441
f 443 441 440
f 438 437 443
f 440 439 438
f 438 443 440
f 443 437 431
f 444 446 442
f 446 441 442
f 441 446 445
f 441 447 412
f 441 445 447
f 447 413 412
f 412 408 449
f 449 407 448
f 407 449 408
f 412 449 441
f 451 450 454
f 452 451 407
f 454 453 448
f 407 451 448
f 448 451 454
f 438 439 456
f 456 455 438
f 457 458 453
f 458 448 453
f 448 458 449
f 459 431 460
f 460 431 432
f 432 433 461
f 432 461 460
f 462 433 420
f 462 461 433
f 433 465 420
f 463 420 465
f 419 462 420
f 465 464 463
f 436 466 435
f 466 468 435
f 468 466 467
f 469 450 470
f 470 450 451
f 451 452 471
f 451 471 470
f 347 348 349
f 335 349 334
f 349 335 347
f 372 373 374
f 376 374 375
f 374 376 372
f 473 474 472
f 472 474 475
f 314 315 475
f 314 475 474
f 334 476 477
f 477 476 333
f 331 333 332
f 333 331 477
f 150 87 424
f 123 150 424
f 424 423 422
f 424 422 123
f 366 367 368
f 368 478 366
f 360 364 478
f 478 365 366
f 365 478 364
f 360 478 359
f 426 425 430
f 427 426 430
f 430 429 428
f 430 428 427
f 459 479 431
f 431 479 443
f 444 442 443
f 444 443 479
f 248 249 247
f 247 249 259
f 246 259 260
f 259 246 247
f 245 260 244
f 260 245 246
f 244 270 243
f 270 244 260
f 243 270 271
f 490 271 489
f 271 490 243
f 281 488 489
f 489 271 281
f 281 282 487
f 487 282 486
f 281 487 488
f 486 292 485
f 292 486 282
f 485 293 484
f 293 485 292
f 482 483 293
f 313 481 482
f 484 293 483
f 480 313 314
f 313 480 481
f 314 474 480
f 313 482 293
f 436 437 466
f 466 437 467
f 437 455 467
f 455 437 438
f 433 434 465
f 465 434 468
f 468 464 465
f 468 434 435
f 439 440 491
f 491 456 439
f 494 315 316
f 317 330 316
f 494 316 330
f 317 318 329
f 315 494 492
f 492 475 315
f 493 331 477
f 331 493 494
f 330 331 494
f 318 319 328
f 320 321 322
f 323 327 319
f 322 323 320
f 326 323 324
f 328 329 318
f 330 317 329
f 327 328 319
f 325 326 324
f 323 326 327
f 323 319 320
f 440 441 449
f 449 491 440
f 350 351 358
f 350 358 369
f 369 359 368
f 359 369 358
f 478 368 359
f 249 250 257
f 257 258 259
f 257 259 249
f 260 261 268
f 270 268 269
f 268 270 260
f 271 272 279
f 281 279 280
f 279 281 271
f 282 283 290
f 290 291 292
f 290 292 282
f 293 294 301
f 293 301 302
f 302 303 313
f 312 313 303
f 302 313 293
f 151 122 495
f 495 119 151
f 495 122 421
f 420 463 471
f 495 421 471
f 471 421 420
f 351 352 356
f 358 356 357
f 356 358 351
f 256 250 251
f 256 257 250
f 251 252 255
f 254 255 252
f 256 251 255
f 252 253 254
f 268 262 267
f 268 261 262
f 262 263 266
f 264 265 266
f 267 262 266
f 266 263 264
f 278 272 273
f 278 279 272
f 273 274 277
f 276 277 274
f 278 273 277
f 274 275 276
f 290 284 289
f 290 283 284
f 284 285 288
f 287 288 285
f 289 284 288
f 285 286 287
f 408 412 411
f 411 410 409
f 411 409 408
f 300 294 295
f 300 301 294
f 295 296 300
f 297 298 299
f 300 296 299
f 299 296 297
f 312 304 310
f 304 312 303
f 311 312 310
f 310 304 305
f 309 305 307
f 309 310 305
f 309 307 308
f 307 305 306
f 469 496 450
f 450 496 454
f 457 453 454
f 457 454 496
f 356 352 353
f 353 354 355
f 353 355 356
f 364 360 361
f 361 362 363
f 361 363 364
f 498 460 461
f 498 461 497
f 479 459 498
f 498 459 460
f 479 498 499
f 501 479 499
f 501 445 446
f 479 446 444
f 446 479 501
f 501 499 500
f 118 119 495
f 495 471 452
f 495 452 118
f 504 498 497
f 504 499 498
f 497 502 503
f 417 416 503
f 504 497 503
f 504 500 499
f 503 502 417
f 461 462 505
f 462 419 418
f 418 505 462
f 502 497 505
f 505 497 461
f 504 503 506
f 500 506 507
f 506 500 504
f 415 414 507
f 501 500 507
f 507 506 415
f 501 507 445
f 445 507 447
f 447 414 413
f 414 447 507
f 502 505 418
f 418 417 502
f 506 503 416
f 416 415 506
f 470 471 463
f 470 463 464
f 469 464 467
f 464 469 470
f 468 467 464
f 469 467 496
f 455 456 491
f 455 491 458
f 457 496 458
f 458 496 455
f 491 449 458
f 455 496 467
f 118 452 152
f 115 152 452
f 452 404 115
f 406 405 404
f 407 404 452
f 404 407 406
f 183 184 106
f 106 110 183
f 184 85 106
f 82 85 184
f 85 82 78
f 78 79 85
f 57 61 67
f 57 75 148
f 75 57 67
f 56 148 55
f 148 56 57
f 12 13 508
f 508 4 1
f 508 1 12
f 112 141 181
f 181 182 111
f 181 111 112
f 71 52 53
f 53 54 149
f 53 149 71
f 114 14 167
f 14 114 403
f 17 167 14
f 403 402 5
f 3 509 403
f 5 3 403
f 403 509 14
f 216 165 69
f 83 69 77
f 69 83 216
f 165 65 69
f 65 154 153
f 154 65 165
f 65 72 66
f 72 65 153
f 199 16 12
f 16 199 200
f 11 12 16
f 199 12 205
f 180 15 200
f 15 16 200
f 12 211 205
f 41 10 44
f 10 41 2
f 45 44 10
f 2 41 1
f 211 1 41
f 42 211 41
f 1 211 12
f 13 14 508
f 508 14 509
f 508 3 4
f 3 508 509
f 182 183 110
f 110 111 182
f 55 148 149
f 149 54 55
f 190 195 217
f 217 189 190
f 195 196 217
f 218 217 196
f 218 196 219
f 219 196 197
f 206 219 197
f 206 197 198
f 21 43 50
f 50 49 26
f 50 26 21
f 49 48 26
f 48 27 26
f 27 48 47
f 47 46 28
f 28 27 47
f 222 206 225
f 225 206 212
f 225 21 22
f 21 225 212
f 187 188 221
f 221 220 223
f 221 223 187
f 23 24 30
f 30 29 145
f 30 145 23
f 215 214 227
f 227 214 226
f 227 161 160
f 161 227 226
